  0
SECTION
  2
HEADER
  9
$ACADVER
  1
AC1009
  9
$FILLMODE
 70
 0
  9
$SPLFRAME
 70
 1
  9
$EXTMIN
 10
0
 20
0
 30
0.0
  9
$EXTMAX
 10
1058.33
 20
1058.33
 30
0.0
  0
ENDSEC
  0
SECTION
  2
TABLES
  0
TABLE
  2
LAYER
 70
1
  0
LAYER
  2
0
 70
     0
 62
     7
  6
CONTINUOUS
  0
ENDTAB
  0
ENDSEC
  0
SECTION
  2
ENTITIES
  0
LINE
  8
0
 62
     0
 10
140.597
 20
111.735
 30
0.0
 11
140.753
 21
111.729
 31
0.0
  0
LINE
  8
0
 62
     0
 10
140.753
 20
111.729
 30
0.0
 11
140.909
 21
111.711
 31
0.0
  0
LINE
  8
0
 62
     0
 10
140.909
 20
111.711
 30
0.0
 11
141.063
 21
111.68
 31
0.0
  0
LINE
  8
0
 62
     0
 10
141.063
 20
111.68
 30
0.0
 11
141.214
 21
111.638
 31
0.0
  0
LINE
  8
0
 62
     0
 10
141.214
 20
111.638
 30
0.0
 11
141.362
 21
111.583
 31
0.0
  0
LINE
  8
0
 62
     0
 10
141.362
 20
111.583
 30
0.0
 11
141.504
 21
111.518
 31
0.0
  0
LINE
  8
0
 62
     0
 10
141.504
 20
111.518
 30
0.0
 11
141.64
 21
111.441
 31
0.0
  0
LINE
  8
0
 62
     0
 10
141.64
 20
111.441
 30
0.0
 11
141.771
 21
111.354
 31
0.0
  0
LINE
  8
0
 62
     0
 10
141.771
 20
111.354
 30
0.0
 11
141.894
 21
111.256
 31
0.0
  0
LINE
  8
0
 62
     0
 10
141.894
 20
111.256
 30
0.0
 11
142.011
 21
111.15
 31
0.0
  0
LINE
  8
0
 62
     0
 10
142.011
 20
111.15
 30
0.0
 11
142.117
 21
111.034
 31
0.0
  0
LINE
  8
0
 62
     0
 10
142.117
 20
111.034
 30
0.0
 11
142.215
 21
110.912
 31
0.0
  0
LINE
  8
0
 62
     0
 10
142.215
 20
110.912
 30
0.0
 11
142.302
 21
110.78
 31
0.0
  0
LINE
  8
0
 62
     0
 10
142.302
 20
110.78
 30
0.0
 11
142.379
 21
110.643
 31
0.0
  0
LINE
  8
0
 62
     0
 10
142.379
 20
110.643
 30
0.0
 11
142.444
 21
110.501
 31
0.0
  0
LINE
  8
0
 62
     0
 10
142.444
 20
110.501
 30
0.0
 11
142.499
 21
110.355
 31
0.0
  0
LINE
  8
0
 62
     0
 10
142.499
 20
110.355
 30
0.0
 11
142.54
 21
110.202
 31
0.0
  0
LINE
  8
0
 62
     0
 10
142.54
 20
110.202
 30
0.0
 11
142.572
 21
110.049
 31
0.0
  0
LINE
  8
0
 62
     0
 10
142.572
 20
110.049
 30
0.0
 11
142.59
 21
109.892
 31
0.0
  0
LINE
  8
0
 62
     0
 10
142.59
 20
109.892
 30
0.0
 11
142.597
 21
109.735
 31
0.0
  0
LINE
  8
0
 62
     0
 10
142.597
 20
109.735
 30
0.0
 11
142.597
 21
2.19108
 31
0.0
  0
LINE
  8
0
 62
     0
 10
142.597
 20
2.19108
 30
0.0
 11
142.59
 21
2.03399
 31
0.0
  0
LINE
  8
0
 62
     0
 10
142.59
 20
2.03399
 30
0.0
 11
142.572
 21
1.87827
 31
0.0
  0
LINE
  8
0
 62
     0
 10
142.572
 20
1.87827
 30
0.0
 11
142.54
 21
1.72393
 31
0.0
  0
LINE
  8
0
 62
     0
 10
142.54
 20
1.72393
 30
0.0
 11
142.499
 21
1.57372
 31
0.0
  0
LINE
  8
0
 62
     0
 10
142.499
 20
1.57372
 30
0.0
 11
142.444
 21
1.42489
 31
0.0
  0
LINE
  8
0
 62
     0
 10
142.444
 20
1.42489
 30
0.0
 11
142.379
 21
1.28295
 31
0.0
  0
LINE
  8
0
 62
     0
 10
142.379
 20
1.28295
 30
0.0
 11
142.302
 21
1.14653
 31
0.0
  0
LINE
  8
0
 62
     0
 10
142.302
 20
1.14653
 30
0.0
 11
142.215
 21
1.01562
 31
0.0
  0
LINE
  8
0
 62
     0
 10
142.215
 20
1.01562
 30
0.0
 11
142.117
 21
0.891589
 31
0.0
  0
LINE
  8
0
 62
     0
 10
142.117
 20
0.891589
 30
0.0
 11
142.011
 21
0.777215
 31
0.0
  0
LINE
  8
0
 62
     0
 10
142.011
 20
0.777215
 30
0.0
 11
141.894
 21
0.669727
 31
0.0
  0
LINE
  8
0
 62
     0
 10
141.894
 20
0.669727
 30
0.0
 11
141.771
 21
0.573264
 31
0.0
  0
LINE
  8
0
 62
     0
 10
141.771
 20
0.573264
 30
0.0
 11
141.64
 21
0.485069
 31
0.0
  0
LINE
  8
0
 62
     0
 10
141.64
 20
0.485069
 30
0.0
 11
141.504
 21
0.409279
 31
0.0
  0
LINE
  8
0
 62
     0
 10
141.504
 20
0.409279
 30
0.0
 11
141.362
 21
0.343131
 31
0.0
  0
LINE
  8
0
 62
     0
 10
141.362
 20
0.343131
 30
0.0
 11
141.214
 21
0.289388
 31
0.0
  0
LINE
  8
0
 62
     0
 10
141.214
 20
0.289388
 30
0.0
 11
141.063
 21
0.246669
 31
0.0
  0
LINE
  8
0
 62
     0
 10
141.063
 20
0.246669
 30
0.0
 11
140.909
 21
0.214974
 31
0.0
  0
LINE
  8
0
 62
     0
 10
140.909
 20
0.214974
 30
0.0
 11
140.753
 21
0.19706
 31
0.0
  0
LINE
  8
0
 62
     0
 10
140.753
 20
0.19706
 30
0.0
 11
140.596
 21
0.191547
 31
0.0
  0
LINE
  8
0
 62
     0
 10
140.596
 20
0.191547
 30
0.0
 11
2.096
 21
0.191547
 31
0.0
  0
LINE
  8
0
 62
     0
 10
2.096
 20
0.191547
 30
0.0
 11
1.9389
 21
0.19706
 31
0.0
  0
LINE
  8
0
 62
     0
 10
1.9389
 20
0.19706
 30
0.0
 11
1.7818
 21
0.214974
 31
0.0
  0
LINE
  8
0
 62
     0
 10
1.7818
 20
0.214974
 30
0.0
 11
1.62884
 21
0.246669
 31
0.0
  0
LINE
  8
0
 62
     0
 10
1.62884
 20
0.246669
 30
0.0
 11
1.47588
 21
0.289388
 31
0.0
  0
LINE
  8
0
 62
     0
 10
1.47588
 20
0.289388
 30
0.0
 11
1.32981
 21
0.343131
 31
0.0
  0
LINE
  8
0
 62
     0
 10
1.32981
 20
0.343131
 30
0.0
 11
1.18787
 21
0.409279
 31
0.0
  0
LINE
  8
0
 62
     0
 10
1.18787
 20
0.409279
 30
0.0
 11
1.05006
 21
0.485069
 31
0.0
  0
LINE
  8
0
 62
     0
 10
1.05006
 20
0.485069
 30
0.0
 11
0.919152
 21
0.573264
 31
0.0
  0
LINE
  8
0
 62
     0
 10
0.919152
 20
0.573264
 30
0.0
 11
0.796505
 21
0.669727
 31
0.0
  0
LINE
  8
0
 62
     0
 10
0.796505
 20
0.669727
 30
0.0
 11
0.680752
 21
0.777215
 31
0.0
  0
LINE
  8
0
 62
     0
 10
0.680752
 20
0.777215
 30
0.0
 11
0.574643
 21
0.891589
 31
0.0
  0
LINE
  8
0
 62
     0
 10
0.574643
 20
0.891589
 30
0.0
 11
0.4768
 21
1.01562
 31
0.0
  0
LINE
  8
0
 62
     0
 10
0.4768
 20
1.01562
 30
0.0
 11
0.389985
 21
1.14653
 31
0.0
  0
LINE
  8
0
 62
     0
 10
0.389985
 20
1.14653
 30
0.0
 11
0.312815
 21
1.28295
 31
0.0
  0
LINE
  8
0
 62
     0
 10
0.312815
 20
1.28295
 30
0.0
 11
0.248047
 21
1.42489
 31
0.0
  0
LINE
  8
0
 62
     0
 10
0.248047
 20
1.42489
 30
0.0
 11
0.192925
 21
1.57372
 31
0.0
  0
LINE
  8
0
 62
     0
 10
0.192925
 20
1.57372
 30
0.0
 11
0.150206
 21
1.72393
 31
0.0
  0
LINE
  8
0
 62
     0
 10
0.150206
 20
1.72393
 30
0.0
 11
0.119889
 21
1.87827
 31
0.0
  0
LINE
  8
0
 62
     0
 10
0.119889
 20
1.87827
 30
0.0
 11
0.101975
 21
2.03399
 31
0.0
  0
LINE
  8
0
 62
     0
 10
0.101975
 20
2.03399
 30
0.0
 11
0.0950846
 21
2.19108
 31
0.0
  0
LINE
  8
0
 62
     0
 10
0.0950846
 20
2.19108
 30
0.0
 11
0.0950846
 21
109.735
 31
0.0
  0
LINE
  8
0
 62
     0
 10
0.0950846
 20
109.735
 30
0.0
 11
0.101975
 21
109.892
 31
0.0
  0
LINE
  8
0
 62
     0
 10
0.101975
 20
109.892
 30
0.0
 11
0.119889
 21
110.049
 31
0.0
  0
LINE
  8
0
 62
     0
 10
0.119889
 20
110.049
 30
0.0
 11
0.150206
 21
110.202
 31
0.0
  0
LINE
  8
0
 62
     0
 10
0.150206
 20
110.202
 30
0.0
 11
0.192925
 21
110.355
 31
0.0
  0
LINE
  8
0
 62
     0
 10
0.192925
 20
110.355
 30
0.0
 11
0.248047
 21
110.501
 31
0.0
  0
LINE
  8
0
 62
     0
 10
0.248047
 20
110.501
 30
0.0
 11
0.312815
 21
110.643
 31
0.0
  0
LINE
  8
0
 62
     0
 10
0.312815
 20
110.643
 30
0.0
 11
0.389985
 21
110.78
 31
0.0
  0
LINE
  8
0
 62
     0
 10
0.389985
 20
110.78
 30
0.0
 11
0.4768
 21
110.912
 31
0.0
  0
LINE
  8
0
 62
     0
 10
0.4768
 20
110.912
 30
0.0
 11
0.574643
 21
111.034
 31
0.0
  0
LINE
  8
0
 62
     0
 10
0.574643
 20
111.034
 30
0.0
 11
0.680752
 21
111.15
 31
0.0
  0
LINE
  8
0
 62
     0
 10
0.680752
 20
111.15
 30
0.0
 11
0.796505
 21
111.256
 31
0.0
  0
LINE
  8
0
 62
     0
 10
0.796505
 20
111.256
 30
0.0
 11
0.919152
 21
111.354
 31
0.0
  0
LINE
  8
0
 62
     0
 10
0.919152
 20
111.354
 30
0.0
 11
1.05006
 21
111.441
 31
0.0
  0
LINE
  8
0
 62
     0
 10
1.05006
 20
111.441
 30
0.0
 11
1.18787
 21
111.518
 31
0.0
  0
LINE
  8
0
 62
     0
 10
1.18787
 20
111.518
 30
0.0
 11
1.32981
 21
111.583
 31
0.0
  0
LINE
  8
0
 62
     0
 10
1.32981
 20
111.583
 30
0.0
 11
1.47588
 21
111.638
 31
0.0
  0
LINE
  8
0
 62
     0
 10
1.47588
 20
111.638
 30
0.0
 11
1.62884
 21
111.68
 31
0.0
  0
LINE
  8
0
 62
     0
 10
1.62884
 20
111.68
 30
0.0
 11
1.7818
 21
111.711
 31
0.0
  0
LINE
  8
0
 62
     0
 10
1.7818
 20
111.711
 30
0.0
 11
1.9389
 21
111.729
 31
0.0
  0
LINE
  8
0
 62
     0
 10
1.9389
 20
111.729
 30
0.0
 11
2.096
 21
111.735
 31
0.0
  0
LINE
  8
0
 62
     0
 10
2.096
 20
111.735
 30
0.0
 11
140.597
 21
111.735
 31
0.0
  0
LINE
  8
0
 62
     0
 10
7.27054
 20
21.2176
 30
0.0
 11
7.27054
 21
20.2172
 31
0.0
  0
LINE
  8
0
 62
     0
 10
7.27054
 20
20.2172
 30
0.0
 11
6.46987
 21
20.2172
 31
0.0
  0
LINE
  8
0
 62
     0
 10
6.46987
 20
20.2172
 30
0.0
 11
6.46987
 21
17.2668
 31
0.0
  0
LINE
  8
0
 62
     0
 10
6.46987
 20
17.2668
 30
0.0
 11
7.27054
 21
17.2668
 31
0.0
  0
LINE
  8
0
 62
     0
 10
7.27054
 20
17.2668
 30
0.0
 11
7.27054
 21
11.3164
 31
0.0
  0
LINE
  8
0
 62
     0
 10
7.27054
 20
11.3164
 30
0.0
 11
6.46987
 21
11.3164
 31
0.0
  0
LINE
  8
0
 62
     0
 10
6.46987
 20
11.3164
 30
0.0
 11
6.46987
 21
8.36747
 31
0.0
  0
LINE
  8
0
 62
     0
 10
6.46987
 20
8.36747
 30
0.0
 11
7.27054
 21
8.36747
 31
0.0
  0
LINE
  8
0
 62
     0
 10
7.27054
 20
8.36747
 30
0.0
 11
7.27054
 21
7.36699
 31
0.0
  0
LINE
  8
0
 62
     0
 10
7.27054
 20
7.36699
 30
0.0
 11
21.1198
 21
7.36699
 31
0.0
  0
LINE
  8
0
 62
     0
 10
21.1198
 20
7.36699
 30
0.0
 11
21.1198
 21
8.36747
 31
0.0
  0
LINE
  8
0
 62
     0
 10
21.1198
 20
8.36747
 30
0.0
 11
21.9204
 21
8.36747
 31
0.0
  0
LINE
  8
0
 62
     0
 10
21.9204
 20
8.36747
 30
0.0
 11
21.9204
 21
11.3164
 31
0.0
  0
LINE
  8
0
 62
     0
 10
21.9204
 20
11.3164
 30
0.0
 11
21.1198
 21
11.3164
 31
0.0
  0
LINE
  8
0
 62
     0
 10
21.1198
 20
11.3164
 30
0.0
 11
21.1198
 21
17.2668
 31
0.0
  0
LINE
  8
0
 62
     0
 10
21.1198
 20
17.2668
 30
0.0
 11
21.9204
 21
17.2668
 31
0.0
  0
LINE
  8
0
 62
     0
 10
21.9204
 20
17.2668
 30
0.0
 11
21.9204
 21
20.2172
 31
0.0
  0
LINE
  8
0
 62
     0
 10
21.9204
 20
20.2172
 30
0.0
 11
21.1198
 21
20.2172
 31
0.0
  0
LINE
  8
0
 62
     0
 10
21.1198
 20
20.2172
 30
0.0
 11
21.1198
 21
21.2176
 31
0.0
  0
LINE
  8
0
 62
     0
 10
21.1198
 20
21.2176
 30
0.0
 11
7.27054
 21
21.2176
 31
0.0
  0
LINE
  8
0
 62
     0
 10
26.3205
 20
21.2176
 30
0.0
 11
26.3205
 21
20.2172
 31
0.0
  0
LINE
  8
0
 62
     0
 10
26.3205
 20
20.2172
 30
0.0
 11
25.5199
 21
20.2172
 31
0.0
  0
LINE
  8
0
 62
     0
 10
25.5199
 20
20.2172
 30
0.0
 11
25.5199
 21
17.2668
 31
0.0
  0
LINE
  8
0
 62
     0
 10
25.5199
 20
17.2668
 30
0.0
 11
26.3205
 21
17.2668
 31
0.0
  0
LINE
  8
0
 62
     0
 10
26.3205
 20
17.2668
 30
0.0
 11
26.3205
 21
11.3164
 31
0.0
  0
LINE
  8
0
 62
     0
 10
26.3205
 20
11.3164
 30
0.0
 11
25.5199
 21
11.3164
 31
0.0
  0
LINE
  8
0
 62
     0
 10
25.5199
 20
11.3164
 30
0.0
 11
25.5199
 21
8.36747
 31
0.0
  0
LINE
  8
0
 62
     0
 10
25.5199
 20
8.36747
 30
0.0
 11
26.3205
 21
8.36747
 31
0.0
  0
LINE
  8
0
 62
     0
 10
26.3205
 20
8.36747
 30
0.0
 11
26.3205
 21
7.36699
 31
0.0
  0
LINE
  8
0
 62
     0
 10
26.3205
 20
7.36699
 30
0.0
 11
40.1697
 21
7.36699
 31
0.0
  0
LINE
  8
0
 62
     0
 10
40.1697
 20
7.36699
 30
0.0
 11
40.1697
 21
8.36747
 31
0.0
  0
LINE
  8
0
 62
     0
 10
40.1697
 20
8.36747
 30
0.0
 11
40.9706
 21
8.36747
 31
0.0
  0
LINE
  8
0
 62
     0
 10
40.9706
 20
8.36747
 30
0.0
 11
40.9706
 21
11.3164
 31
0.0
  0
LINE
  8
0
 62
     0
 10
40.9706
 20
11.3164
 30
0.0
 11
40.1697
 21
11.3164
 31
0.0
  0
LINE
  8
0
 62
     0
 10
40.1697
 20
11.3164
 30
0.0
 11
40.1697
 21
17.2668
 31
0.0
  0
LINE
  8
0
 62
     0
 10
40.1697
 20
17.2668
 30
0.0
 11
40.9706
 21
17.2668
 31
0.0
  0
LINE
  8
0
 62
     0
 10
40.9706
 20
17.2668
 30
0.0
 11
40.9706
 21
20.2172
 31
0.0
  0
LINE
  8
0
 62
     0
 10
40.9706
 20
20.2172
 30
0.0
 11
40.1697
 21
20.2172
 31
0.0
  0
LINE
  8
0
 62
     0
 10
40.1697
 20
20.2172
 30
0.0
 11
40.1697
 21
21.2176
 31
0.0
  0
LINE
  8
0
 62
     0
 10
40.1697
 20
21.2176
 30
0.0
 11
26.3205
 21
21.2176
 31
0.0
  0
LINE
  8
0
 62
     0
 10
45.3704
 20
25.9788
 30
0.0
 11
45.3704
 21
24.9797
 31
0.0
  0
LINE
  8
0
 62
     0
 10
45.3704
 20
24.9797
 30
0.0
 11
44.5699
 21
24.9797
 31
0.0
  0
LINE
  8
0
 62
     0
 10
44.5699
 20
24.9797
 30
0.0
 11
44.5699
 21
22.0293
 31
0.0
  0
LINE
  8
0
 62
     0
 10
44.5699
 20
22.0293
 30
0.0
 11
45.3704
 21
22.0293
 31
0.0
  0
LINE
  8
0
 62
     0
 10
45.3704
 20
22.0293
 30
0.0
 11
45.3704
 21
16.0789
 31
0.0
  0
LINE
  8
0
 62
     0
 10
45.3704
 20
16.0789
 30
0.0
 11
44.5699
 21
16.0789
 31
0.0
  0
LINE
  8
0
 62
     0
 10
44.5699
 20
16.0789
 30
0.0
 11
44.5699
 21
13.1286
 31
0.0
  0
LINE
  8
0
 62
     0
 10
44.5699
 20
13.1286
 30
0.0
 11
45.3704
 21
13.1286
 31
0.0
  0
LINE
  8
0
 62
     0
 10
45.3704
 20
13.1286
 30
0.0
 11
45.3704
 21
12.1295
 31
0.0
  0
LINE
  8
0
 62
     0
 10
45.3704
 20
12.1295
 30
0.0
 11
59.2197
 21
12.1295
 31
0.0
  0
LINE
  8
0
 62
     0
 10
59.2197
 20
12.1295
 30
0.0
 11
59.2197
 21
13.1286
 31
0.0
  0
LINE
  8
0
 62
     0
 10
59.2197
 20
13.1286
 30
0.0
 11
60.0206
 21
13.1286
 31
0.0
  0
LINE
  8
0
 62
     0
 10
60.0206
 20
13.1286
 30
0.0
 11
60.0206
 21
16.0789
 31
0.0
  0
LINE
  8
0
 62
     0
 10
60.0206
 20
16.0789
 30
0.0
 11
59.2197
 21
16.0789
 31
0.0
  0
LINE
  8
0
 62
     0
 10
59.2197
 20
16.0789
 30
0.0
 11
59.2197
 21
22.0293
 31
0.0
  0
LINE
  8
0
 62
     0
 10
59.2197
 20
22.0293
 30
0.0
 11
60.0206
 21
22.0293
 31
0.0
  0
LINE
  8
0
 62
     0
 10
60.0206
 20
22.0293
 30
0.0
 11
60.0206
 21
24.9797
 31
0.0
  0
LINE
  8
0
 62
     0
 10
60.0206
 20
24.9797
 30
0.0
 11
59.2197
 21
24.9797
 31
0.0
  0
LINE
  8
0
 62
     0
 10
59.2197
 20
24.9797
 30
0.0
 11
59.2197
 21
25.9788
 31
0.0
  0
LINE
  8
0
 62
     0
 10
59.2197
 20
25.9788
 30
0.0
 11
45.3704
 21
25.9788
 31
0.0
  0
LINE
  8
0
 62
     0
 10
83.4704
 20
25.9788
 30
0.0
 11
83.4704
 21
24.9797
 31
0.0
  0
LINE
  8
0
 62
     0
 10
83.4704
 20
24.9797
 30
0.0
 11
82.6699
 21
24.9797
 31
0.0
  0
LINE
  8
0
 62
     0
 10
82.6699
 20
24.9797
 30
0.0
 11
82.6699
 21
22.0293
 31
0.0
  0
LINE
  8
0
 62
     0
 10
82.6699
 20
22.0293
 30
0.0
 11
83.4704
 21
22.0293
 31
0.0
  0
LINE
  8
0
 62
     0
 10
83.4704
 20
22.0293
 30
0.0
 11
83.4704
 21
16.0789
 31
0.0
  0
LINE
  8
0
 62
     0
 10
83.4704
 20
16.0789
 30
0.0
 11
82.6699
 21
16.0789
 31
0.0
  0
LINE
  8
0
 62
     0
 10
82.6699
 20
16.0789
 30
0.0
 11
82.6699
 21
13.1286
 31
0.0
  0
LINE
  8
0
 62
     0
 10
82.6699
 20
13.1286
 30
0.0
 11
83.4704
 21
13.1286
 31
0.0
  0
LINE
  8
0
 62
     0
 10
83.4704
 20
13.1286
 30
0.0
 11
83.4704
 21
12.1295
 31
0.0
  0
LINE
  8
0
 62
     0
 10
83.4704
 20
12.1295
 30
0.0
 11
97.3197
 21
12.1295
 31
0.0
  0
LINE
  8
0
 62
     0
 10
97.3197
 20
12.1295
 30
0.0
 11
97.3197
 21
13.1286
 31
0.0
  0
LINE
  8
0
 62
     0
 10
97.3197
 20
13.1286
 30
0.0
 11
98.1191
 21
13.1286
 31
0.0
  0
LINE
  8
0
 62
     0
 10
98.1191
 20
13.1286
 30
0.0
 11
98.1191
 21
16.0789
 31
0.0
  0
LINE
  8
0
 62
     0
 10
98.1191
 20
16.0789
 30
0.0
 11
97.3197
 21
16.0789
 31
0.0
  0
LINE
  8
0
 62
     0
 10
97.3197
 20
16.0789
 30
0.0
 11
97.3197
 21
22.0293
 31
0.0
  0
LINE
  8
0
 62
     0
 10
97.3197
 20
22.0293
 30
0.0
 11
98.1191
 21
22.0293
 31
0.0
  0
LINE
  8
0
 62
     0
 10
98.1191
 20
22.0293
 30
0.0
 11
98.1191
 21
24.9797
 31
0.0
  0
LINE
  8
0
 62
     0
 10
98.1191
 20
24.9797
 30
0.0
 11
97.3197
 21
24.9797
 31
0.0
  0
LINE
  8
0
 62
     0
 10
97.3197
 20
24.9797
 30
0.0
 11
97.3197
 21
25.9788
 31
0.0
  0
LINE
  8
0
 62
     0
 10
97.3197
 20
25.9788
 30
0.0
 11
83.4704
 21
25.9788
 31
0.0
  0
LINE
  8
0
 62
     0
 10
64.4204
 20
28.36
 30
0.0
 11
64.4204
 21
27.3596
 31
0.0
  0
LINE
  8
0
 62
     0
 10
64.4204
 20
27.3596
 30
0.0
 11
63.6199
 21
27.3596
 31
0.0
  0
LINE
  8
0
 62
     0
 10
63.6199
 20
27.3596
 30
0.0
 11
63.6199
 21
24.4106
 31
0.0
  0
LINE
  8
0
 62
     0
 10
63.6199
 20
24.4106
 30
0.0
 11
64.4204
 21
24.4106
 31
0.0
  0
LINE
  8
0
 62
     0
 10
64.4204
 20
24.4106
 30
0.0
 11
64.4204
 21
18.4602
 31
0.0
  0
LINE
  8
0
 62
     0
 10
64.4204
 20
18.4602
 30
0.0
 11
63.6199
 21
18.4602
 31
0.0
  0
LINE
  8
0
 62
     0
 10
63.6199
 20
18.4602
 30
0.0
 11
63.6199
 21
15.5098
 31
0.0
  0
LINE
  8
0
 62
     0
 10
63.6199
 20
15.5098
 30
0.0
 11
64.4204
 21
15.5098
 31
0.0
  0
LINE
  8
0
 62
     0
 10
64.4204
 20
15.5098
 30
0.0
 11
64.4204
 21
14.5107
 31
0.0
  0
LINE
  8
0
 62
     0
 10
64.4204
 20
14.5107
 30
0.0
 11
78.2697
 21
14.5107
 31
0.0
  0
LINE
  8
0
 62
     0
 10
78.2697
 20
14.5107
 30
0.0
 11
78.2697
 21
15.5098
 31
0.0
  0
LINE
  8
0
 62
     0
 10
78.2697
 20
15.5098
 30
0.0
 11
79.0706
 21
15.5098
 31
0.0
  0
LINE
  8
0
 62
     0
 10
79.0706
 20
15.5098
 30
0.0
 11
79.0706
 21
18.4602
 31
0.0
  0
LINE
  8
0
 62
     0
 10
79.0706
 20
18.4602
 30
0.0
 11
78.2697
 21
18.4602
 31
0.0
  0
LINE
  8
0
 62
     0
 10
78.2697
 20
18.4602
 30
0.0
 11
78.2697
 21
24.4106
 31
0.0
  0
LINE
  8
0
 62
     0
 10
78.2697
 20
24.4106
 30
0.0
 11
79.0706
 21
24.4106
 31
0.0
  0
LINE
  8
0
 62
     0
 10
79.0706
 20
24.4106
 30
0.0
 11
79.0706
 21
27.3596
 31
0.0
  0
LINE
  8
0
 62
     0
 10
79.0706
 20
27.3596
 30
0.0
 11
78.2697
 21
27.3596
 31
0.0
  0
LINE
  8
0
 62
     0
 10
78.2697
 20
27.3596
 30
0.0
 11
78.2697
 21
28.36
 31
0.0
  0
LINE
  8
0
 62
     0
 10
78.2697
 20
28.36
 30
0.0
 11
64.4204
 21
28.36
 31
0.0
  0
LINE
  8
0
 62
     0
 10
7.27054
 20
40.2678
 30
0.0
 11
7.27054
 21
39.2673
 31
0.0
  0
LINE
  8
0
 62
     0
 10
7.27054
 20
39.2673
 30
0.0
 11
6.46987
 21
39.2673
 31
0.0
  0
LINE
  8
0
 62
     0
 10
6.46987
 20
39.2673
 30
0.0
 11
6.46987
 21
36.3167
 31
0.0
  0
LINE
  8
0
 62
     0
 10
6.46987
 20
36.3167
 30
0.0
 11
7.27054
 21
36.3167
 31
0.0
  0
LINE
  8
0
 62
     0
 10
7.27054
 20
36.3167
 30
0.0
 11
7.27054
 21
30.3664
 31
0.0
  0
LINE
  8
0
 62
     0
 10
7.27054
 20
30.3664
 30
0.0
 11
6.46987
 21
30.3664
 31
0.0
  0
LINE
  8
0
 62
     0
 10
6.46987
 20
30.3664
 30
0.0
 11
6.46987
 21
27.4175
 31
0.0
  0
LINE
  8
0
 62
     0
 10
6.46987
 20
27.4175
 30
0.0
 11
7.27054
 21
27.4175
 31
0.0
  0
LINE
  8
0
 62
     0
 10
7.27054
 20
27.4175
 30
0.0
 11
7.27054
 21
26.417
 31
0.0
  0
LINE
  8
0
 62
     0
 10
7.27054
 20
26.417
 30
0.0
 11
21.1198
 21
26.417
 31
0.0
  0
LINE
  8
0
 62
     0
 10
21.1198
 20
26.417
 30
0.0
 11
21.1198
 21
27.4175
 31
0.0
  0
LINE
  8
0
 62
     0
 10
21.1198
 20
27.4175
 30
0.0
 11
21.9204
 21
27.4175
 31
0.0
  0
LINE
  8
0
 62
     0
 10
21.9204
 20
27.4175
 30
0.0
 11
21.9204
 21
30.3664
 31
0.0
  0
LINE
  8
0
 62
     0
 10
21.9204
 20
30.3664
 30
0.0
 11
21.1198
 21
30.3664
 31
0.0
  0
LINE
  8
0
 62
     0
 10
21.1198
 20
30.3664
 30
0.0
 11
21.1198
 21
36.3167
 31
0.0
  0
LINE
  8
0
 62
     0
 10
21.1198
 20
36.3167
 30
0.0
 11
21.9204
 21
36.3167
 31
0.0
  0
LINE
  8
0
 62
     0
 10
21.9204
 20
36.3167
 30
0.0
 11
21.9204
 21
39.2673
 31
0.0
  0
LINE
  8
0
 62
     0
 10
21.9204
 20
39.2673
 30
0.0
 11
21.1198
 21
39.2673
 31
0.0
  0
LINE
  8
0
 62
     0
 10
21.1198
 20
39.2673
 30
0.0
 11
21.1198
 21
40.2678
 31
0.0
  0
LINE
  8
0
 62
     0
 10
21.1198
 20
40.2678
 30
0.0
 11
7.27054
 21
40.2678
 31
0.0
  0
LINE
  8
0
 62
     0
 10
26.3205
 20
40.2678
 30
0.0
 11
26.3205
 21
39.2673
 31
0.0
  0
LINE
  8
0
 62
     0
 10
26.3205
 20
39.2673
 30
0.0
 11
25.5199
 21
39.2673
 31
0.0
  0
LINE
  8
0
 62
     0
 10
25.5199
 20
39.2673
 30
0.0
 11
25.5199
 21
36.3167
 31
0.0
  0
LINE
  8
0
 62
     0
 10
25.5199
 20
36.3167
 30
0.0
 11
26.3205
 21
36.3167
 31
0.0
  0
LINE
  8
0
 62
     0
 10
26.3205
 20
36.3167
 30
0.0
 11
26.3205
 21
30.3664
 31
0.0
  0
LINE
  8
0
 62
     0
 10
26.3205
 20
30.3664
 30
0.0
 11
25.5199
 21
30.3664
 31
0.0
  0
LINE
  8
0
 62
     0
 10
25.5199
 20
30.3664
 30
0.0
 11
25.5199
 21
27.4175
 31
0.0
  0
LINE
  8
0
 62
     0
 10
25.5199
 20
27.4175
 30
0.0
 11
26.3205
 21
27.4175
 31
0.0
  0
LINE
  8
0
 62
     0
 10
26.3205
 20
27.4175
 30
0.0
 11
26.3205
 21
26.417
 31
0.0
  0
LINE
  8
0
 62
     0
 10
26.3205
 20
26.417
 30
0.0
 11
40.1697
 21
26.417
 31
0.0
  0
LINE
  8
0
 62
     0
 10
40.1697
 20
26.417
 30
0.0
 11
40.1697
 21
27.4175
 31
0.0
  0
LINE
  8
0
 62
     0
 10
40.1697
 20
27.4175
 30
0.0
 11
40.9706
 21
27.4175
 31
0.0
  0
LINE
  8
0
 62
     0
 10
40.9706
 20
27.4175
 30
0.0
 11
40.9706
 21
30.3664
 31
0.0
  0
LINE
  8
0
 62
     0
 10
40.9706
 20
30.3664
 30
0.0
 11
40.1697
 21
30.3664
 31
0.0
  0
LINE
  8
0
 62
     0
 10
40.1697
 20
30.3664
 30
0.0
 11
40.1697
 21
36.3167
 31
0.0
  0
LINE
  8
0
 62
     0
 10
40.1697
 20
36.3167
 30
0.0
 11
40.9706
 21
36.3167
 31
0.0
  0
LINE
  8
0
 62
     0
 10
40.9706
 20
36.3167
 30
0.0
 11
40.9706
 21
39.2673
 31
0.0
  0
LINE
  8
0
 62
     0
 10
40.9706
 20
39.2673
 30
0.0
 11
40.1697
 21
39.2673
 31
0.0
  0
LINE
  8
0
 62
     0
 10
40.1697
 20
39.2673
 30
0.0
 11
40.1697
 21
40.2678
 31
0.0
  0
LINE
  8
0
 62
     0
 10
40.1697
 20
40.2678
 30
0.0
 11
26.3205
 21
40.2678
 31
0.0
  0
LINE
  8
0
 62
     0
 10
102.52
 20
42.6477
 30
0.0
 11
102.52
 21
41.6486
 31
0.0
  0
LINE
  8
0
 62
     0
 10
102.52
 20
41.6486
 30
0.0
 11
101.72
 21
41.6486
 31
0.0
  0
LINE
  8
0
 62
     0
 10
101.72
 20
41.6486
 30
0.0
 11
101.72
 21
38.698
 31
0.0
  0
LINE
  8
0
 62
     0
 10
101.72
 20
38.698
 30
0.0
 11
102.52
 21
38.698
 31
0.0
  0
LINE
  8
0
 62
     0
 10
102.52
 20
38.698
 30
0.0
 11
102.52
 21
32.7477
 31
0.0
  0
LINE
  8
0
 62
     0
 10
102.52
 20
32.7477
 30
0.0
 11
101.72
 21
32.7477
 31
0.0
  0
LINE
  8
0
 62
     0
 10
101.72
 20
32.7477
 30
0.0
 11
101.72
 21
29.7987
 31
0.0
  0
LINE
  8
0
 62
     0
 10
101.72
 20
29.7987
 30
0.0
 11
102.52
 21
29.7987
 31
0.0
  0
LINE
  8
0
 62
     0
 10
102.52
 20
29.7987
 30
0.0
 11
102.52
 21
28.7982
 31
0.0
  0
LINE
  8
0
 62
     0
 10
102.52
 20
28.7982
 30
0.0
 11
116.37
 21
28.7982
 31
0.0
  0
LINE
  8
0
 62
     0
 10
116.37
 20
28.7982
 30
0.0
 11
116.37
 21
29.7987
 31
0.0
  0
LINE
  8
0
 62
     0
 10
116.37
 20
29.7987
 30
0.0
 11
117.171
 21
29.7987
 31
0.0
  0
LINE
  8
0
 62
     0
 10
117.171
 20
29.7987
 30
0.0
 11
117.171
 21
32.7477
 31
0.0
  0
LINE
  8
0
 62
     0
 10
117.171
 20
32.7477
 30
0.0
 11
116.37
 21
32.7477
 31
0.0
  0
LINE
  8
0
 62
     0
 10
116.37
 20
32.7477
 30
0.0
 11
116.37
 21
38.698
 31
0.0
  0
LINE
  8
0
 62
     0
 10
116.37
 20
38.698
 30
0.0
 11
117.171
 21
38.698
 31
0.0
  0
LINE
  8
0
 62
     0
 10
117.171
 20
38.698
 30
0.0
 11
117.171
 21
41.6486
 31
0.0
  0
LINE
  8
0
 62
     0
 10
117.171
 20
41.6486
 30
0.0
 11
116.37
 21
41.6486
 31
0.0
  0
LINE
  8
0
 62
     0
 10
116.37
 20
41.6486
 30
0.0
 11
116.37
 21
42.6477
 31
0.0
  0
LINE
  8
0
 62
     0
 10
116.37
 20
42.6477
 30
0.0
 11
102.52
 21
42.6477
 31
0.0
  0
LINE
  8
0
 62
     0
 10
45.3704
 20
45.0289
 30
0.0
 11
45.3704
 21
44.0298
 31
0.0
  0
LINE
  8
0
 62
     0
 10
45.3704
 20
44.0298
 30
0.0
 11
44.5699
 21
44.0298
 31
0.0
  0
LINE
  8
0
 62
     0
 10
44.5699
 20
44.0298
 30
0.0
 11
44.5699
 21
41.0792
 31
0.0
  0
LINE
  8
0
 62
     0
 10
44.5699
 20
41.0792
 30
0.0
 11
45.3704
 21
41.0792
 31
0.0
  0
LINE
  8
0
 62
     0
 10
45.3704
 20
41.0792
 30
0.0
 11
45.3704
 21
35.1289
 31
0.0
  0
LINE
  8
0
 62
     0
 10
45.3704
 20
35.1289
 30
0.0
 11
44.5699
 21
35.1289
 31
0.0
  0
LINE
  8
0
 62
     0
 10
44.5699
 20
35.1289
 30
0.0
 11
44.5699
 21
32.1786
 31
0.0
  0
LINE
  8
0
 62
     0
 10
44.5699
 20
32.1786
 30
0.0
 11
45.3704
 21
32.1786
 31
0.0
  0
LINE
  8
0
 62
     0
 10
45.3704
 20
32.1786
 30
0.0
 11
45.3704
 21
31.1795
 31
0.0
  0
LINE
  8
0
 62
     0
 10
45.3704
 20
31.1795
 30
0.0
 11
59.2197
 21
31.1795
 31
0.0
  0
LINE
  8
0
 62
     0
 10
59.2197
 20
31.1795
 30
0.0
 11
59.2197
 21
32.1786
 31
0.0
  0
LINE
  8
0
 62
     0
 10
59.2197
 20
32.1786
 30
0.0
 11
60.0206
 21
32.1786
 31
0.0
  0
LINE
  8
0
 62
     0
 10
60.0206
 20
32.1786
 30
0.0
 11
60.0206
 21
35.1289
 31
0.0
  0
LINE
  8
0
 62
     0
 10
60.0206
 20
35.1289
 30
0.0
 11
59.2197
 21
35.1289
 31
0.0
  0
LINE
  8
0
 62
     0
 10
59.2197
 20
35.1289
 30
0.0
 11
59.2197
 21
41.0792
 31
0.0
  0
LINE
  8
0
 62
     0
 10
59.2197
 20
41.0792
 30
0.0
 11
60.0206
 21
41.0792
 31
0.0
  0
LINE
  8
0
 62
     0
 10
60.0206
 20
41.0792
 30
0.0
 11
60.0206
 21
44.0298
 31
0.0
  0
LINE
  8
0
 62
     0
 10
60.0206
 20
44.0298
 30
0.0
 11
59.2197
 21
44.0298
 31
0.0
  0
LINE
  8
0
 62
     0
 10
59.2197
 20
44.0298
 30
0.0
 11
59.2197
 21
45.0289
 31
0.0
  0
LINE
  8
0
 62
     0
 10
59.2197
 20
45.0289
 30
0.0
 11
45.3704
 21
45.0289
 31
0.0
  0
LINE
  8
0
 62
     0
 10
83.4704
 20
45.0289
 30
0.0
 11
83.4704
 21
44.0298
 31
0.0
  0
LINE
  8
0
 62
     0
 10
83.4704
 20
44.0298
 30
0.0
 11
82.6699
 21
44.0298
 31
0.0
  0
LINE
  8
0
 62
     0
 10
82.6699
 20
44.0298
 30
0.0
 11
82.6699
 21
41.0792
 31
0.0
  0
LINE
  8
0
 62
     0
 10
82.6699
 20
41.0792
 30
0.0
 11
83.4704
 21
41.0792
 31
0.0
  0
LINE
  8
0
 62
     0
 10
83.4704
 20
41.0792
 30
0.0
 11
83.4704
 21
35.1289
 31
0.0
  0
LINE
  8
0
 62
     0
 10
83.4704
 20
35.1289
 30
0.0
 11
82.6699
 21
35.1289
 31
0.0
  0
LINE
  8
0
 62
     0
 10
82.6699
 20
35.1289
 30
0.0
 11
82.6699
 21
32.1786
 31
0.0
  0
LINE
  8
0
 62
     0
 10
82.6699
 20
32.1786
 30
0.0
 11
83.4704
 21
32.1786
 31
0.0
  0
LINE
  8
0
 62
     0
 10
83.4704
 20
32.1786
 30
0.0
 11
83.4704
 21
31.1795
 31
0.0
  0
LINE
  8
0
 62
     0
 10
83.4704
 20
31.1795
 30
0.0
 11
97.3197
 21
31.1795
 31
0.0
  0
LINE
  8
0
 62
     0
 10
97.3197
 20
31.1795
 30
0.0
 11
97.3197
 21
32.1786
 31
0.0
  0
LINE
  8
0
 62
     0
 10
97.3197
 20
32.1786
 30
0.0
 11
98.1191
 21
32.1786
 31
0.0
  0
LINE
  8
0
 62
     0
 10
98.1191
 20
32.1786
 30
0.0
 11
98.1191
 21
35.1289
 31
0.0
  0
LINE
  8
0
 62
     0
 10
98.1191
 20
35.1289
 30
0.0
 11
97.3197
 21
35.1289
 31
0.0
  0
LINE
  8
0
 62
     0
 10
97.3197
 20
35.1289
 30
0.0
 11
97.3197
 21
41.0792
 31
0.0
  0
LINE
  8
0
 62
     0
 10
97.3197
 20
41.0792
 30
0.0
 11
98.1191
 21
41.0792
 31
0.0
  0
LINE
  8
0
 62
     0
 10
98.1191
 20
41.0792
 30
0.0
 11
98.1191
 21
44.0298
 31
0.0
  0
LINE
  8
0
 62
     0
 10
98.1191
 20
44.0298
 30
0.0
 11
97.3197
 21
44.0298
 31
0.0
  0
LINE
  8
0
 62
     0
 10
97.3197
 20
44.0298
 30
0.0
 11
97.3197
 21
45.0289
 31
0.0
  0
LINE
  8
0
 62
     0
 10
97.3197
 20
45.0289
 30
0.0
 11
83.4704
 21
45.0289
 31
0.0
  0
LINE
  8
0
 62
     0
 10
64.4204
 20
47.4102
 30
0.0
 11
64.4204
 21
46.4097
 31
0.0
  0
LINE
  8
0
 62
     0
 10
64.4204
 20
46.4097
 30
0.0
 11
63.6199
 21
46.4097
 31
0.0
  0
LINE
  8
0
 62
     0
 10
63.6199
 20
46.4097
 30
0.0
 11
63.6199
 21
43.4605
 31
0.0
  0
LINE
  8
0
 62
     0
 10
63.6199
 20
43.4605
 30
0.0
 11
64.4204
 21
43.4605
 31
0.0
  0
LINE
  8
0
 62
     0
 10
64.4204
 20
43.4605
 30
0.0
 11
64.4204
 21
37.5102
 31
0.0
  0
LINE
  8
0
 62
     0
 10
64.4204
 20
37.5102
 30
0.0
 11
63.6199
 21
37.5102
 31
0.0
  0
LINE
  8
0
 62
     0
 10
63.6199
 20
37.5102
 30
0.0
 11
63.6199
 21
34.5598
 31
0.0
  0
LINE
  8
0
 62
     0
 10
63.6199
 20
34.5598
 30
0.0
 11
64.4204
 21
34.5598
 31
0.0
  0
LINE
  8
0
 62
     0
 10
64.4204
 20
34.5598
 30
0.0
 11
64.4204
 21
33.5607
 31
0.0
  0
LINE
  8
0
 62
     0
 10
64.4204
 20
33.5607
 30
0.0
 11
78.2697
 21
33.5607
 31
0.0
  0
LINE
  8
0
 62
     0
 10
78.2697
 20
33.5607
 30
0.0
 11
78.2697
 21
34.5598
 31
0.0
  0
LINE
  8
0
 62
     0
 10
78.2697
 20
34.5598
 30
0.0
 11
79.0706
 21
34.5598
 31
0.0
  0
LINE
  8
0
 62
     0
 10
79.0706
 20
34.5598
 30
0.0
 11
79.0706
 21
37.5102
 31
0.0
  0
LINE
  8
0
 62
     0
 10
79.0706
 20
37.5102
 30
0.0
 11
78.2697
 21
37.5102
 31
0.0
  0
LINE
  8
0
 62
     0
 10
78.2697
 20
37.5102
 30
0.0
 11
78.2697
 21
43.4605
 31
0.0
  0
LINE
  8
0
 62
     0
 10
78.2697
 20
43.4605
 30
0.0
 11
79.0706
 21
43.4605
 31
0.0
  0
LINE
  8
0
 62
     0
 10
79.0706
 20
43.4605
 30
0.0
 11
79.0706
 21
46.4097
 31
0.0
  0
LINE
  8
0
 62
     0
 10
79.0706
 20
46.4097
 30
0.0
 11
78.2697
 21
46.4097
 31
0.0
  0
LINE
  8
0
 62
     0
 10
78.2697
 20
46.4097
 30
0.0
 11
78.2697
 21
47.4102
 31
0.0
  0
LINE
  8
0
 62
     0
 10
78.2697
 20
47.4102
 30
0.0
 11
64.4204
 21
47.4102
 31
0.0
  0
LINE
  8
0
 62
     0
 10
121.57
 20
56.9352
 30
0.0
 11
121.57
 21
55.9347
 31
0.0
  0
LINE
  8
0
 62
     0
 10
121.57
 20
55.9347
 30
0.0
 11
120.77
 21
55.9347
 31
0.0
  0
LINE
  8
0
 62
     0
 10
120.77
 20
55.9347
 30
0.0
 11
120.77
 21
52.9855
 31
0.0
  0
LINE
  8
0
 62
     0
 10
120.77
 20
52.9855
 30
0.0
 11
121.57
 21
52.9855
 31
0.0
  0
LINE
  8
0
 62
     0
 10
121.57
 20
52.9855
 30
0.0
 11
121.57
 21
47.0352
 31
0.0
  0
LINE
  8
0
 62
     0
 10
121.57
 20
47.0352
 30
0.0
 11
120.77
 21
47.0352
 31
0.0
  0
LINE
  8
0
 62
     0
 10
120.77
 20
47.0352
 30
0.0
 11
120.77
 21
44.0849
 31
0.0
  0
LINE
  8
0
 62
     0
 10
120.77
 20
44.0849
 30
0.0
 11
121.57
 21
44.0849
 31
0.0
  0
LINE
  8
0
 62
     0
 10
121.57
 20
44.0849
 30
0.0
 11
121.57
 21
43.0858
 31
0.0
  0
LINE
  8
0
 62
     0
 10
121.57
 20
43.0858
 30
0.0
 11
135.42
 21
43.0858
 31
0.0
  0
LINE
  8
0
 62
     0
 10
135.42
 20
43.0858
 30
0.0
 11
135.42
 21
44.0849
 31
0.0
  0
LINE
  8
0
 62
     0
 10
135.42
 20
44.0849
 30
0.0
 11
136.221
 21
44.0849
 31
0.0
  0
LINE
  8
0
 62
     0
 10
136.221
 20
44.0849
 30
0.0
 11
136.221
 21
47.0352
 31
0.0
  0
LINE
  8
0
 62
     0
 10
136.221
 20
47.0352
 30
0.0
 11
135.42
 21
47.0352
 31
0.0
  0
LINE
  8
0
 62
     0
 10
135.42
 20
47.0352
 30
0.0
 11
135.42
 21
52.9855
 31
0.0
  0
LINE
  8
0
 62
     0
 10
135.42
 20
52.9855
 30
0.0
 11
136.221
 21
52.9855
 31
0.0
  0
LINE
  8
0
 62
     0
 10
136.221
 20
52.9855
 30
0.0
 11
136.221
 21
55.9347
 31
0.0
  0
LINE
  8
0
 62
     0
 10
136.221
 20
55.9347
 30
0.0
 11
135.42
 21
55.9347
 31
0.0
  0
LINE
  8
0
 62
     0
 10
135.42
 20
55.9347
 30
0.0
 11
135.42
 21
56.9352
 31
0.0
  0
LINE
  8
0
 62
     0
 10
135.42
 20
56.9352
 30
0.0
 11
121.57
 21
56.9352
 31
0.0
  0
LINE
  8
0
 62
     0
 10
7.27054
 20
59.3178
 30
0.0
 11
7.27054
 21
58.3173
 31
0.0
  0
LINE
  8
0
 62
     0
 10
7.27054
 20
58.3173
 30
0.0
 11
6.46987
 21
58.3173
 31
0.0
  0
LINE
  8
0
 62
     0
 10
6.46987
 20
58.3173
 30
0.0
 11
6.46987
 21
55.3667
 31
0.0
  0
LINE
  8
0
 62
     0
 10
6.46987
 20
55.3667
 30
0.0
 11
7.27054
 21
55.3667
 31
0.0
  0
LINE
  8
0
 62
     0
 10
7.27054
 20
55.3667
 30
0.0
 11
7.27054
 21
49.4164
 31
0.0
  0
LINE
  8
0
 62
     0
 10
7.27054
 20
49.4164
 30
0.0
 11
6.46987
 21
49.4164
 31
0.0
  0
LINE
  8
0
 62
     0
 10
6.46987
 20
49.4164
 30
0.0
 11
6.46987
 21
46.4675
 31
0.0
  0
LINE
  8
0
 62
     0
 10
6.46987
 20
46.4675
 30
0.0
 11
7.27054
 21
46.4675
 31
0.0
  0
LINE
  8
0
 62
     0
 10
7.27054
 20
46.4675
 30
0.0
 11
7.27054
 21
45.4671
 31
0.0
  0
LINE
  8
0
 62
     0
 10
7.27054
 20
45.4671
 30
0.0
 11
21.1198
 21
45.4671
 31
0.0
  0
LINE
  8
0
 62
     0
 10
21.1198
 20
45.4671
 30
0.0
 11
21.1198
 21
46.4675
 31
0.0
  0
LINE
  8
0
 62
     0
 10
21.1198
 20
46.4675
 30
0.0
 11
21.9204
 21
46.4675
 31
0.0
  0
LINE
  8
0
 62
     0
 10
21.9204
 20
46.4675
 30
0.0
 11
21.9204
 21
49.4164
 31
0.0
  0
LINE
  8
0
 62
     0
 10
21.9204
 20
49.4164
 30
0.0
 11
21.1198
 21
49.4164
 31
0.0
  0
LINE
  8
0
 62
     0
 10
21.1198
 20
49.4164
 30
0.0
 11
21.1198
 21
55.3667
 31
0.0
  0
LINE
  8
0
 62
     0
 10
21.1198
 20
55.3667
 30
0.0
 11
21.9204
 21
55.3667
 31
0.0
  0
LINE
  8
0
 62
     0
 10
21.9204
 20
55.3667
 30
0.0
 11
21.9204
 21
58.3173
 31
0.0
  0
LINE
  8
0
 62
     0
 10
21.9204
 20
58.3173
 30
0.0
 11
21.1198
 21
58.3173
 31
0.0
  0
LINE
  8
0
 62
     0
 10
21.1198
 20
58.3173
 30
0.0
 11
21.1198
 21
59.3178
 31
0.0
  0
LINE
  8
0
 62
     0
 10
21.1198
 20
59.3178
 30
0.0
 11
7.27054
 21
59.3178
 31
0.0
  0
LINE
  8
0
 62
     0
 10
26.3205
 20
59.3178
 30
0.0
 11
26.3205
 21
58.3173
 31
0.0
  0
LINE
  8
0
 62
     0
 10
26.3205
 20
58.3173
 30
0.0
 11
25.5199
 21
58.3173
 31
0.0
  0
LINE
  8
0
 62
     0
 10
25.5199
 20
58.3173
 30
0.0
 11
25.5199
 21
55.3667
 31
0.0
  0
LINE
  8
0
 62
     0
 10
25.5199
 20
55.3667
 30
0.0
 11
26.3205
 21
55.3667
 31
0.0
  0
LINE
  8
0
 62
     0
 10
26.3205
 20
55.3667
 30
0.0
 11
26.3205
 21
49.4164
 31
0.0
  0
LINE
  8
0
 62
     0
 10
26.3205
 20
49.4164
 30
0.0
 11
25.5199
 21
49.4164
 31
0.0
  0
LINE
  8
0
 62
     0
 10
25.5199
 20
49.4164
 30
0.0
 11
25.5199
 21
46.4675
 31
0.0
  0
LINE
  8
0
 62
     0
 10
25.5199
 20
46.4675
 30
0.0
 11
26.3205
 21
46.4675
 31
0.0
  0
LINE
  8
0
 62
     0
 10
26.3205
 20
46.4675
 30
0.0
 11
26.3205
 21
45.4671
 31
0.0
  0
LINE
  8
0
 62
     0
 10
26.3205
 20
45.4671
 30
0.0
 11
40.1697
 21
45.4671
 31
0.0
  0
LINE
  8
0
 62
     0
 10
40.1697
 20
45.4671
 30
0.0
 11
40.1697
 21
46.4675
 31
0.0
  0
LINE
  8
0
 62
     0
 10
40.1697
 20
46.4675
 30
0.0
 11
40.9706
 21
46.4675
 31
0.0
  0
LINE
  8
0
 62
     0
 10
40.9706
 20
46.4675
 30
0.0
 11
40.9706
 21
49.4164
 31
0.0
  0
LINE
  8
0
 62
     0
 10
40.9706
 20
49.4164
 30
0.0
 11
40.1697
 21
49.4164
 31
0.0
  0
LINE
  8
0
 62
     0
 10
40.1697
 20
49.4164
 30
0.0
 11
40.1697
 21
55.3667
 31
0.0
  0
LINE
  8
0
 62
     0
 10
40.1697
 20
55.3667
 30
0.0
 11
40.9706
 21
55.3667
 31
0.0
  0
LINE
  8
0
 62
     0
 10
40.9706
 20
55.3667
 30
0.0
 11
40.9706
 21
58.3173
 31
0.0
  0
LINE
  8
0
 62
     0
 10
40.9706
 20
58.3173
 30
0.0
 11
40.1697
 21
58.3173
 31
0.0
  0
LINE
  8
0
 62
     0
 10
40.1697
 20
58.3173
 30
0.0
 11
40.1697
 21
59.3178
 31
0.0
  0
LINE
  8
0
 62
     0
 10
40.1697
 20
59.3178
 30
0.0
 11
26.3205
 21
59.3178
 31
0.0
  0
LINE
  8
0
 62
     0
 10
102.52
 20
61.6977
 30
0.0
 11
102.52
 21
60.6986
 31
0.0
  0
LINE
  8
0
 62
     0
 10
102.52
 20
60.6986
 30
0.0
 11
101.72
 21
60.6986
 31
0.0
  0
LINE
  8
0
 62
     0
 10
101.72
 20
60.6986
 30
0.0
 11
101.72
 21
57.748
 31
0.0
  0
LINE
  8
0
 62
     0
 10
101.72
 20
57.748
 30
0.0
 11
102.52
 21
57.748
 31
0.0
  0
LINE
  8
0
 62
     0
 10
102.52
 20
57.748
 30
0.0
 11
102.52
 21
51.7977
 31
0.0
  0
LINE
  8
0
 62
     0
 10
102.52
 20
51.7977
 30
0.0
 11
101.72
 21
51.7977
 31
0.0
  0
LINE
  8
0
 62
     0
 10
101.72
 20
51.7977
 30
0.0
 11
101.72
 21
48.8488
 31
0.0
  0
LINE
  8
0
 62
     0
 10
101.72
 20
48.8488
 30
0.0
 11
102.52
 21
48.8488
 31
0.0
  0
LINE
  8
0
 62
     0
 10
102.52
 20
48.8488
 30
0.0
 11
102.52
 21
47.8483
 31
0.0
  0
LINE
  8
0
 62
     0
 10
102.52
 20
47.8483
 30
0.0
 11
116.37
 21
47.8483
 31
0.0
  0
LINE
  8
0
 62
     0
 10
116.37
 20
47.8483
 30
0.0
 11
116.37
 21
48.8488
 31
0.0
  0
LINE
  8
0
 62
     0
 10
116.37
 20
48.8488
 30
0.0
 11
117.171
 21
48.8488
 31
0.0
  0
LINE
  8
0
 62
     0
 10
117.171
 20
48.8488
 30
0.0
 11
117.171
 21
51.7977
 31
0.0
  0
LINE
  8
0
 62
     0
 10
117.171
 20
51.7977
 30
0.0
 11
116.37
 21
51.7977
 31
0.0
  0
LINE
  8
0
 62
     0
 10
116.37
 20
51.7977
 30
0.0
 11
116.37
 21
57.748
 31
0.0
  0
LINE
  8
0
 62
     0
 10
116.37
 20
57.748
 30
0.0
 11
117.171
 21
57.748
 31
0.0
  0
LINE
  8
0
 62
     0
 10
117.171
 20
57.748
 30
0.0
 11
117.171
 21
60.6986
 31
0.0
  0
LINE
  8
0
 62
     0
 10
117.171
 20
60.6986
 30
0.0
 11
116.37
 21
60.6986
 31
0.0
  0
LINE
  8
0
 62
     0
 10
116.37
 20
60.6986
 30
0.0
 11
116.37
 21
61.6977
 31
0.0
  0
LINE
  8
0
 62
     0
 10
116.37
 20
61.6977
 30
0.0
 11
102.52
 21
61.6977
 31
0.0
  0
LINE
  8
0
 62
     0
 10
45.3704
 20
64.0789
 30
0.0
 11
45.3704
 21
63.0798
 31
0.0
  0
LINE
  8
0
 62
     0
 10
45.3704
 20
63.0798
 30
0.0
 11
44.5699
 21
63.0798
 31
0.0
  0
LINE
  8
0
 62
     0
 10
44.5699
 20
63.0798
 30
0.0
 11
44.5699
 21
60.1292
 31
0.0
  0
LINE
  8
0
 62
     0
 10
44.5699
 20
60.1292
 30
0.0
 11
45.3704
 21
60.1292
 31
0.0
  0
LINE
  8
0
 62
     0
 10
45.3704
 20
60.1292
 30
0.0
 11
45.3704
 21
54.1789
 31
0.0
  0
LINE
  8
0
 62
     0
 10
45.3704
 20
54.1789
 30
0.0
 11
44.5699
 21
54.1789
 31
0.0
  0
LINE
  8
0
 62
     0
 10
44.5699
 20
54.1789
 30
0.0
 11
44.5699
 21
51.2286
 31
0.0
  0
LINE
  8
0
 62
     0
 10
44.5699
 20
51.2286
 30
0.0
 11
45.3704
 21
51.2286
 31
0.0
  0
LINE
  8
0
 62
     0
 10
45.3704
 20
51.2286
 30
0.0
 11
45.3704
 21
50.2296
 31
0.0
  0
LINE
  8
0
 62
     0
 10
45.3704
 20
50.2296
 30
0.0
 11
59.2197
 21
50.2296
 31
0.0
  0
LINE
  8
0
 62
     0
 10
59.2197
 20
50.2296
 30
0.0
 11
59.2197
 21
51.2286
 31
0.0
  0
LINE
  8
0
 62
     0
 10
59.2197
 20
51.2286
 30
0.0
 11
60.0206
 21
51.2286
 31
0.0
  0
LINE
  8
0
 62
     0
 10
60.0206
 20
51.2286
 30
0.0
 11
60.0206
 21
54.1789
 31
0.0
  0
LINE
  8
0
 62
     0
 10
60.0206
 20
54.1789
 30
0.0
 11
59.2197
 21
54.1789
 31
0.0
  0
LINE
  8
0
 62
     0
 10
59.2197
 20
54.1789
 30
0.0
 11
59.2197
 21
60.1292
 31
0.0
  0
LINE
  8
0
 62
     0
 10
59.2197
 20
60.1292
 30
0.0
 11
60.0206
 21
60.1292
 31
0.0
  0
LINE
  8
0
 62
     0
 10
60.0206
 20
60.1292
 30
0.0
 11
60.0206
 21
63.0798
 31
0.0
  0
LINE
  8
0
 62
     0
 10
60.0206
 20
63.0798
 30
0.0
 11
59.2197
 21
63.0798
 31
0.0
  0
LINE
  8
0
 62
     0
 10
59.2197
 20
63.0798
 30
0.0
 11
59.2197
 21
64.0789
 31
0.0
  0
LINE
  8
0
 62
     0
 10
59.2197
 20
64.0789
 30
0.0
 11
45.3704
 21
64.0789
 31
0.0
  0
LINE
  8
0
 62
     0
 10
83.4704
 20
64.0789
 30
0.0
 11
83.4704
 21
63.0798
 31
0.0
  0
LINE
  8
0
 62
     0
 10
83.4704
 20
63.0798
 30
0.0
 11
82.6699
 21
63.0798
 31
0.0
  0
LINE
  8
0
 62
     0
 10
82.6699
 20
63.0798
 30
0.0
 11
82.6699
 21
60.1292
 31
0.0
  0
LINE
  8
0
 62
     0
 10
82.6699
 20
60.1292
 30
0.0
 11
83.4704
 21
60.1292
 31
0.0
  0
LINE
  8
0
 62
     0
 10
83.4704
 20
60.1292
 30
0.0
 11
83.4704
 21
54.1789
 31
0.0
  0
LINE
  8
0
 62
     0
 10
83.4704
 20
54.1789
 30
0.0
 11
82.6699
 21
54.1789
 31
0.0
  0
LINE
  8
0
 62
     0
 10
82.6699
 20
54.1789
 30
0.0
 11
82.6699
 21
51.2286
 31
0.0
  0
LINE
  8
0
 62
     0
 10
82.6699
 20
51.2286
 30
0.0
 11
83.4704
 21
51.2286
 31
0.0
  0
LINE
  8
0
 62
     0
 10
83.4704
 20
51.2286
 30
0.0
 11
83.4704
 21
50.2296
 31
0.0
  0
LINE
  8
0
 62
     0
 10
83.4704
 20
50.2296
 30
0.0
 11
97.3197
 21
50.2296
 31
0.0
  0
LINE
  8
0
 62
     0
 10
97.3197
 20
50.2296
 30
0.0
 11
97.3197
 21
51.2286
 31
0.0
  0
LINE
  8
0
 62
     0
 10
97.3197
 20
51.2286
 30
0.0
 11
98.1191
 21
51.2286
 31
0.0
  0
LINE
  8
0
 62
     0
 10
98.1191
 20
51.2286
 30
0.0
 11
98.1191
 21
54.1789
 31
0.0
  0
LINE
  8
0
 62
     0
 10
98.1191
 20
54.1789
 30
0.0
 11
97.3197
 21
54.1789
 31
0.0
  0
LINE
  8
0
 62
     0
 10
97.3197
 20
54.1789
 30
0.0
 11
97.3197
 21
60.1292
 31
0.0
  0
LINE
  8
0
 62
     0
 10
97.3197
 20
60.1292
 30
0.0
 11
98.1191
 21
60.1292
 31
0.0
  0
LINE
  8
0
 62
     0
 10
98.1191
 20
60.1292
 30
0.0
 11
98.1191
 21
63.0798
 31
0.0
  0
LINE
  8
0
 62
     0
 10
98.1191
 20
63.0798
 30
0.0
 11
97.3197
 21
63.0798
 31
0.0
  0
LINE
  8
0
 62
     0
 10
97.3197
 20
63.0798
 30
0.0
 11
97.3197
 21
64.0789
 31
0.0
  0
LINE
  8
0
 62
     0
 10
97.3197
 20
64.0789
 30
0.0
 11
83.4704
 21
64.0789
 31
0.0
  0
LINE
  8
0
 62
     0
 10
64.4204
 20
66.4602
 30
0.0
 11
64.4204
 21
65.4597
 31
0.0
  0
LINE
  8
0
 62
     0
 10
64.4204
 20
65.4597
 30
0.0
 11
63.6199
 21
65.4597
 31
0.0
  0
LINE
  8
0
 62
     0
 10
63.6199
 20
65.4597
 30
0.0
 11
63.6199
 21
62.5105
 31
0.0
  0
LINE
  8
0
 62
     0
 10
63.6199
 20
62.5105
 30
0.0
 11
64.4204
 21
62.5105
 31
0.0
  0
LINE
  8
0
 62
     0
 10
64.4204
 20
62.5105
 30
0.0
 11
64.4204
 21
56.5602
 31
0.0
  0
LINE
  8
0
 62
     0
 10
64.4204
 20
56.5602
 30
0.0
 11
63.6199
 21
56.5602
 31
0.0
  0
LINE
  8
0
 62
     0
 10
63.6199
 20
56.5602
 30
0.0
 11
63.6199
 21
53.6099
 31
0.0
  0
LINE
  8
0
 62
     0
 10
63.6199
 20
53.6099
 30
0.0
 11
64.4204
 21
53.6099
 31
0.0
  0
LINE
  8
0
 62
     0
 10
64.4204
 20
53.6099
 30
0.0
 11
64.4204
 21
52.6108
 31
0.0
  0
LINE
  8
0
 62
     0
 10
64.4204
 20
52.6108
 30
0.0
 11
78.2697
 21
52.6108
 31
0.0
  0
LINE
  8
0
 62
     0
 10
78.2697
 20
52.6108
 30
0.0
 11
78.2697
 21
53.6099
 31
0.0
  0
LINE
  8
0
 62
     0
 10
78.2697
 20
53.6099
 30
0.0
 11
79.0706
 21
53.6099
 31
0.0
  0
LINE
  8
0
 62
     0
 10
79.0706
 20
53.6099
 30
0.0
 11
79.0706
 21
56.5602
 31
0.0
  0
LINE
  8
0
 62
     0
 10
79.0706
 20
56.5602
 30
0.0
 11
78.2697
 21
56.5602
 31
0.0
  0
LINE
  8
0
 62
     0
 10
78.2697
 20
56.5602
 30
0.0
 11
78.2697
 21
62.5105
 31
0.0
  0
LINE
  8
0
 62
     0
 10
78.2697
 20
62.5105
 30
0.0
 11
79.0706
 21
62.5105
 31
0.0
  0
LINE
  8
0
 62
     0
 10
79.0706
 20
62.5105
 30
0.0
 11
79.0706
 21
65.4597
 31
0.0
  0
LINE
  8
0
 62
     0
 10
79.0706
 20
65.4597
 30
0.0
 11
78.2697
 21
65.4597
 31
0.0
  0
LINE
  8
0
 62
     0
 10
78.2697
 20
65.4597
 30
0.0
 11
78.2697
 21
66.4602
 31
0.0
  0
LINE
  8
0
 62
     0
 10
78.2697
 20
66.4602
 30
0.0
 11
64.4204
 21
66.4602
 31
0.0
  0
LINE
  8
0
 62
     0
 10
121.57
 20
75.9852
 30
0.0
 11
121.57
 21
74.9847
 31
0.0
  0
LINE
  8
0
 62
     0
 10
121.57
 20
74.9847
 30
0.0
 11
120.77
 21
74.9847
 31
0.0
  0
LINE
  8
0
 62
     0
 10
120.77
 20
74.9847
 30
0.0
 11
120.77
 21
72.0355
 31
0.0
  0
LINE
  8
0
 62
     0
 10
120.77
 20
72.0355
 30
0.0
 11
121.57
 21
72.0355
 31
0.0
  0
LINE
  8
0
 62
     0
 10
121.57
 20
72.0355
 30
0.0
 11
121.57
 21
66.0852
 31
0.0
  0
LINE
  8
0
 62
     0
 10
121.57
 20
66.0852
 30
0.0
 11
120.77
 21
66.0852
 31
0.0
  0
LINE
  8
0
 62
     0
 10
120.77
 20
66.0852
 30
0.0
 11
120.77
 21
63.1349
 31
0.0
  0
LINE
  8
0
 62
     0
 10
120.77
 20
63.1349
 30
0.0
 11
121.57
 21
63.1349
 31
0.0
  0
LINE
  8
0
 62
     0
 10
121.57
 20
63.1349
 30
0.0
 11
121.57
 21
62.1358
 31
0.0
  0
LINE
  8
0
 62
     0
 10
121.57
 20
62.1358
 30
0.0
 11
135.42
 21
62.1358
 31
0.0
  0
LINE
  8
0
 62
     0
 10
135.42
 20
62.1358
 30
0.0
 11
135.42
 21
63.1349
 31
0.0
  0
LINE
  8
0
 62
     0
 10
135.42
 20
63.1349
 30
0.0
 11
136.221
 21
63.1349
 31
0.0
  0
LINE
  8
0
 62
     0
 10
136.221
 20
63.1349
 30
0.0
 11
136.221
 21
66.0852
 31
0.0
  0
LINE
  8
0
 62
     0
 10
136.221
 20
66.0852
 30
0.0
 11
135.42
 21
66.0852
 31
0.0
  0
LINE
  8
0
 62
     0
 10
135.42
 20
66.0852
 30
0.0
 11
135.42
 21
72.0355
 31
0.0
  0
LINE
  8
0
 62
     0
 10
135.42
 20
72.0355
 30
0.0
 11
136.221
 21
72.0355
 31
0.0
  0
LINE
  8
0
 62
     0
 10
136.221
 20
72.0355
 30
0.0
 11
136.221
 21
74.9847
 31
0.0
  0
LINE
  8
0
 62
     0
 10
136.221
 20
74.9847
 30
0.0
 11
135.42
 21
74.9847
 31
0.0
  0
LINE
  8
0
 62
     0
 10
135.42
 20
74.9847
 30
0.0
 11
135.42
 21
75.9852
 31
0.0
  0
LINE
  8
0
 62
     0
 10
135.42
 20
75.9852
 30
0.0
 11
121.57
 21
75.9852
 31
0.0
  0
LINE
  8
0
 62
     0
 10
7.27054
 20
78.3678
 30
0.0
 11
7.27054
 21
77.3673
 31
0.0
  0
LINE
  8
0
 62
     0
 10
7.27054
 20
77.3673
 30
0.0
 11
6.46987
 21
77.3673
 31
0.0
  0
LINE
  8
0
 62
     0
 10
6.46987
 20
77.3673
 30
0.0
 11
6.46987
 21
74.4167
 31
0.0
  0
LINE
  8
0
 62
     0
 10
6.46987
 20
74.4167
 30
0.0
 11
7.27054
 21
74.4167
 31
0.0
  0
LINE
  8
0
 62
     0
 10
7.27054
 20
74.4167
 30
0.0
 11
7.27054
 21
68.4664
 31
0.0
  0
LINE
  8
0
 62
     0
 10
7.27054
 20
68.4664
 30
0.0
 11
6.46987
 21
68.4664
 31
0.0
  0
LINE
  8
0
 62
     0
 10
6.46987
 20
68.4664
 30
0.0
 11
6.46987
 21
65.5175
 31
0.0
  0
LINE
  8
0
 62
     0
 10
6.46987
 20
65.5175
 30
0.0
 11
7.27054
 21
65.5175
 31
0.0
  0
LINE
  8
0
 62
     0
 10
7.27054
 20
65.5175
 30
0.0
 11
7.27054
 21
64.5171
 31
0.0
  0
LINE
  8
0
 62
     0
 10
7.27054
 20
64.5171
 30
0.0
 11
21.1198
 21
64.5171
 31
0.0
  0
LINE
  8
0
 62
     0
 10
21.1198
 20
64.5171
 30
0.0
 11
21.1198
 21
65.5175
 31
0.0
  0
LINE
  8
0
 62
     0
 10
21.1198
 20
65.5175
 30
0.0
 11
21.9204
 21
65.5175
 31
0.0
  0
LINE
  8
0
 62
     0
 10
21.9204
 20
65.5175
 30
0.0
 11
21.9204
 21
68.4664
 31
0.0
  0
LINE
  8
0
 62
     0
 10
21.9204
 20
68.4664
 30
0.0
 11
21.1198
 21
68.4664
 31
0.0
  0
LINE
  8
0
 62
     0
 10
21.1198
 20
68.4664
 30
0.0
 11
21.1198
 21
74.4167
 31
0.0
  0
LINE
  8
0
 62
     0
 10
21.1198
 20
74.4167
 30
0.0
 11
21.9204
 21
74.4167
 31
0.0
  0
LINE
  8
0
 62
     0
 10
21.9204
 20
74.4167
 30
0.0
 11
21.9204
 21
77.3673
 31
0.0
  0
LINE
  8
0
 62
     0
 10
21.9204
 20
77.3673
 30
0.0
 11
21.1198
 21
77.3673
 31
0.0
  0
LINE
  8
0
 62
     0
 10
21.1198
 20
77.3673
 30
0.0
 11
21.1198
 21
78.3678
 31
0.0
  0
LINE
  8
0
 62
     0
 10
21.1198
 20
78.3678
 30
0.0
 11
7.27054
 21
78.3678
 31
0.0
  0
LINE
  8
0
 62
     0
 10
26.3205
 20
78.3678
 30
0.0
 11
26.3205
 21
77.3673
 31
0.0
  0
LINE
  8
0
 62
     0
 10
26.3205
 20
77.3673
 30
0.0
 11
25.5199
 21
77.3673
 31
0.0
  0
LINE
  8
0
 62
     0
 10
25.5199
 20
77.3673
 30
0.0
 11
25.5199
 21
74.4167
 31
0.0
  0
LINE
  8
0
 62
     0
 10
25.5199
 20
74.4167
 30
0.0
 11
26.3205
 21
74.4167
 31
0.0
  0
LINE
  8
0
 62
     0
 10
26.3205
 20
74.4167
 30
0.0
 11
26.3205
 21
68.4664
 31
0.0
  0
LINE
  8
0
 62
     0
 10
26.3205
 20
68.4664
 30
0.0
 11
25.5199
 21
68.4664
 31
0.0
  0
LINE
  8
0
 62
     0
 10
25.5199
 20
68.4664
 30
0.0
 11
25.5199
 21
65.5175
 31
0.0
  0
LINE
  8
0
 62
     0
 10
25.5199
 20
65.5175
 30
0.0
 11
26.3205
 21
65.5175
 31
0.0
  0
LINE
  8
0
 62
     0
 10
26.3205
 20
65.5175
 30
0.0
 11
26.3205
 21
64.5171
 31
0.0
  0
LINE
  8
0
 62
     0
 10
26.3205
 20
64.5171
 30
0.0
 11
40.1697
 21
64.5171
 31
0.0
  0
LINE
  8
0
 62
     0
 10
40.1697
 20
64.5171
 30
0.0
 11
40.1697
 21
65.5175
 31
0.0
  0
LINE
  8
0
 62
     0
 10
40.1697
 20
65.5175
 30
0.0
 11
40.9706
 21
65.5175
 31
0.0
  0
LINE
  8
0
 62
     0
 10
40.9706
 20
65.5175
 30
0.0
 11
40.9706
 21
68.4664
 31
0.0
  0
LINE
  8
0
 62
     0
 10
40.9706
 20
68.4664
 30
0.0
 11
40.1697
 21
68.4664
 31
0.0
  0
LINE
  8
0
 62
     0
 10
40.1697
 20
68.4664
 30
0.0
 11
40.1697
 21
74.4167
 31
0.0
  0
LINE
  8
0
 62
     0
 10
40.1697
 20
74.4167
 30
0.0
 11
40.9706
 21
74.4167
 31
0.0
  0
LINE
  8
0
 62
     0
 10
40.9706
 20
74.4167
 30
0.0
 11
40.9706
 21
77.3673
 31
0.0
  0
LINE
  8
0
 62
     0
 10
40.9706
 20
77.3673
 30
0.0
 11
40.1697
 21
77.3673
 31
0.0
  0
LINE
  8
0
 62
     0
 10
40.1697
 20
77.3673
 30
0.0
 11
40.1697
 21
78.3678
 31
0.0
  0
LINE
  8
0
 62
     0
 10
40.1697
 20
78.3678
 30
0.0
 11
26.3205
 21
78.3678
 31
0.0
  0
LINE
  8
0
 62
     0
 10
102.52
 20
80.7477
 30
0.0
 11
102.52
 21
79.7486
 31
0.0
  0
LINE
  8
0
 62
     0
 10
102.52
 20
79.7486
 30
0.0
 11
101.72
 21
79.7486
 31
0.0
  0
LINE
  8
0
 62
     0
 10
101.72
 20
79.7486
 30
0.0
 11
101.72
 21
76.798
 31
0.0
  0
LINE
  8
0
 62
     0
 10
101.72
 20
76.798
 30
0.0
 11
102.52
 21
76.798
 31
0.0
  0
LINE
  8
0
 62
     0
 10
102.52
 20
76.798
 30
0.0
 11
102.52
 21
70.8477
 31
0.0
  0
LINE
  8
0
 62
     0
 10
102.52
 20
70.8477
 30
0.0
 11
101.72
 21
70.8477
 31
0.0
  0
LINE
  8
0
 62
     0
 10
101.72
 20
70.8477
 30
0.0
 11
101.72
 21
67.8988
 31
0.0
  0
LINE
  8
0
 62
     0
 10
101.72
 20
67.8988
 30
0.0
 11
102.52
 21
67.8988
 31
0.0
  0
LINE
  8
0
 62
     0
 10
102.52
 20
67.8988
 30
0.0
 11
102.52
 21
66.8983
 31
0.0
  0
LINE
  8
0
 62
     0
 10
102.52
 20
66.8983
 30
0.0
 11
116.37
 21
66.8983
 31
0.0
  0
LINE
  8
0
 62
     0
 10
116.37
 20
66.8983
 30
0.0
 11
116.37
 21
67.8988
 31
0.0
  0
LINE
  8
0
 62
     0
 10
116.37
 20
67.8988
 30
0.0
 11
117.171
 21
67.8988
 31
0.0
  0
LINE
  8
0
 62
     0
 10
117.171
 20
67.8988
 30
0.0
 11
117.171
 21
70.8477
 31
0.0
  0
LINE
  8
0
 62
     0
 10
117.171
 20
70.8477
 30
0.0
 11
116.37
 21
70.8477
 31
0.0
  0
LINE
  8
0
 62
     0
 10
116.37
 20
70.8477
 30
0.0
 11
116.37
 21
76.798
 31
0.0
  0
LINE
  8
0
 62
     0
 10
116.37
 20
76.798
 30
0.0
 11
117.171
 21
76.798
 31
0.0
  0
LINE
  8
0
 62
     0
 10
117.171
 20
76.798
 30
0.0
 11
117.171
 21
79.7486
 31
0.0
  0
LINE
  8
0
 62
     0
 10
117.171
 20
79.7486
 30
0.0
 11
116.37
 21
79.7486
 31
0.0
  0
LINE
  8
0
 62
     0
 10
116.37
 20
79.7486
 30
0.0
 11
116.37
 21
80.7477
 31
0.0
  0
LINE
  8
0
 62
     0
 10
116.37
 20
80.7477
 30
0.0
 11
102.52
 21
80.7477
 31
0.0
  0
LINE
  8
0
 62
     0
 10
45.3704
 20
83.1289
 30
0.0
 11
45.3704
 21
82.1298
 31
0.0
  0
LINE
  8
0
 62
     0
 10
45.3704
 20
82.1298
 30
0.0
 11
44.5699
 21
82.1298
 31
0.0
  0
LINE
  8
0
 62
     0
 10
44.5699
 20
82.1298
 30
0.0
 11
44.5699
 21
79.1792
 31
0.0
  0
LINE
  8
0
 62
     0
 10
44.5699
 20
79.1792
 30
0.0
 11
45.3704
 21
79.1792
 31
0.0
  0
LINE
  8
0
 62
     0
 10
45.3704
 20
79.1792
 30
0.0
 11
45.3704
 21
73.2289
 31
0.0
  0
LINE
  8
0
 62
     0
 10
45.3704
 20
73.2289
 30
0.0
 11
44.5699
 21
73.2289
 31
0.0
  0
LINE
  8
0
 62
     0
 10
44.5699
 20
73.2289
 30
0.0
 11
44.5699
 21
70.2786
 31
0.0
  0
LINE
  8
0
 62
     0
 10
44.5699
 20
70.2786
 30
0.0
 11
45.3704
 21
70.2786
 31
0.0
  0
LINE
  8
0
 62
     0
 10
45.3704
 20
70.2786
 30
0.0
 11
45.3704
 21
69.2796
 31
0.0
  0
LINE
  8
0
 62
     0
 10
45.3704
 20
69.2796
 30
0.0
 11
59.2197
 21
69.2796
 31
0.0
  0
LINE
  8
0
 62
     0
 10
59.2197
 20
69.2796
 30
0.0
 11
59.2197
 21
70.2786
 31
0.0
  0
LINE
  8
0
 62
     0
 10
59.2197
 20
70.2786
 30
0.0
 11
60.0206
 21
70.2786
 31
0.0
  0
LINE
  8
0
 62
     0
 10
60.0206
 20
70.2786
 30
0.0
 11
60.0206
 21
73.2289
 31
0.0
  0
LINE
  8
0
 62
     0
 10
60.0206
 20
73.2289
 30
0.0
 11
59.2197
 21
73.2289
 31
0.0
  0
LINE
  8
0
 62
     0
 10
59.2197
 20
73.2289
 30
0.0
 11
59.2197
 21
79.1792
 31
0.0
  0
LINE
  8
0
 62
     0
 10
59.2197
 20
79.1792
 30
0.0
 11
60.0206
 21
79.1792
 31
0.0
  0
LINE
  8
0
 62
     0
 10
60.0206
 20
79.1792
 30
0.0
 11
60.0206
 21
82.1298
 31
0.0
  0
LINE
  8
0
 62
     0
 10
60.0206
 20
82.1298
 30
0.0
 11
59.2197
 21
82.1298
 31
0.0
  0
LINE
  8
0
 62
     0
 10
59.2197
 20
82.1298
 30
0.0
 11
59.2197
 21
83.1289
 31
0.0
  0
LINE
  8
0
 62
     0
 10
59.2197
 20
83.1289
 30
0.0
 11
45.3704
 21
83.1289
 31
0.0
  0
LINE
  8
0
 62
     0
 10
83.4704
 20
83.1289
 30
0.0
 11
83.4704
 21
82.1298
 31
0.0
  0
LINE
  8
0
 62
     0
 10
83.4704
 20
82.1298
 30
0.0
 11
82.6699
 21
82.1298
 31
0.0
  0
LINE
  8
0
 62
     0
 10
82.6699
 20
82.1298
 30
0.0
 11
82.6699
 21
79.1792
 31
0.0
  0
LINE
  8
0
 62
     0
 10
82.6699
 20
79.1792
 30
0.0
 11
83.4704
 21
79.1792
 31
0.0
  0
LINE
  8
0
 62
     0
 10
83.4704
 20
79.1792
 30
0.0
 11
83.4704
 21
73.2289
 31
0.0
  0
LINE
  8
0
 62
     0
 10
83.4704
 20
73.2289
 30
0.0
 11
82.6699
 21
73.2289
 31
0.0
  0
LINE
  8
0
 62
     0
 10
82.6699
 20
73.2289
 30
0.0
 11
82.6699
 21
70.2786
 31
0.0
  0
LINE
  8
0
 62
     0
 10
82.6699
 20
70.2786
 30
0.0
 11
83.4704
 21
70.2786
 31
0.0
  0
LINE
  8
0
 62
     0
 10
83.4704
 20
70.2786
 30
0.0
 11
83.4704
 21
69.2796
 31
0.0
  0
LINE
  8
0
 62
     0
 10
83.4704
 20
69.2796
 30
0.0
 11
97.3197
 21
69.2796
 31
0.0
  0
LINE
  8
0
 62
     0
 10
97.3197
 20
69.2796
 30
0.0
 11
97.3197
 21
70.2786
 31
0.0
  0
LINE
  8
0
 62
     0
 10
97.3197
 20
70.2786
 30
0.0
 11
98.1191
 21
70.2786
 31
0.0
  0
LINE
  8
0
 62
     0
 10
98.1191
 20
70.2786
 30
0.0
 11
98.1191
 21
73.2289
 31
0.0
  0
LINE
  8
0
 62
     0
 10
98.1191
 20
73.2289
 30
0.0
 11
97.3197
 21
73.2289
 31
0.0
  0
LINE
  8
0
 62
     0
 10
97.3197
 20
73.2289
 30
0.0
 11
97.3197
 21
79.1792
 31
0.0
  0
LINE
  8
0
 62
     0
 10
97.3197
 20
79.1792
 30
0.0
 11
98.1191
 21
79.1792
 31
0.0
  0
LINE
  8
0
 62
     0
 10
98.1191
 20
79.1792
 30
0.0
 11
98.1191
 21
82.1298
 31
0.0
  0
LINE
  8
0
 62
     0
 10
98.1191
 20
82.1298
 30
0.0
 11
97.3197
 21
82.1298
 31
0.0
  0
LINE
  8
0
 62
     0
 10
97.3197
 20
82.1298
 30
0.0
 11
97.3197
 21
83.1289
 31
0.0
  0
LINE
  8
0
 62
     0
 10
97.3197
 20
83.1289
 30
0.0
 11
83.4704
 21
83.1289
 31
0.0
  0
LINE
  8
0
 62
     0
 10
64.4204
 20
85.5102
 30
0.0
 11
64.4204
 21
84.5097
 31
0.0
  0
LINE
  8
0
 62
     0
 10
64.4204
 20
84.5097
 30
0.0
 11
63.6199
 21
84.5097
 31
0.0
  0
LINE
  8
0
 62
     0
 10
63.6199
 20
84.5097
 30
0.0
 11
63.6199
 21
81.5605
 31
0.0
  0
LINE
  8
0
 62
     0
 10
63.6199
 20
81.5605
 30
0.0
 11
64.4204
 21
81.5605
 31
0.0
  0
LINE
  8
0
 62
     0
 10
64.4204
 20
81.5605
 30
0.0
 11
64.4204
 21
75.6102
 31
0.0
  0
LINE
  8
0
 62
     0
 10
64.4204
 20
75.6102
 30
0.0
 11
63.6199
 21
75.6102
 31
0.0
  0
LINE
  8
0
 62
     0
 10
63.6199
 20
75.6102
 30
0.0
 11
63.6199
 21
72.6599
 31
0.0
  0
LINE
  8
0
 62
     0
 10
63.6199
 20
72.6599
 30
0.0
 11
64.4204
 21
72.6599
 31
0.0
  0
LINE
  8
0
 62
     0
 10
64.4204
 20
72.6599
 30
0.0
 11
64.4204
 21
71.6608
 31
0.0
  0
LINE
  8
0
 62
     0
 10
64.4204
 20
71.6608
 30
0.0
 11
78.2697
 21
71.6608
 31
0.0
  0
LINE
  8
0
 62
     0
 10
78.2697
 20
71.6608
 30
0.0
 11
78.2697
 21
72.6599
 31
0.0
  0
LINE
  8
0
 62
     0
 10
78.2697
 20
72.6599
 30
0.0
 11
79.0706
 21
72.6599
 31
0.0
  0
LINE
  8
0
 62
     0
 10
79.0706
 20
72.6599
 30
0.0
 11
79.0706
 21
75.6102
 31
0.0
  0
LINE
  8
0
 62
     0
 10
79.0706
 20
75.6102
 30
0.0
 11
78.2697
 21
75.6102
 31
0.0
  0
LINE
  8
0
 62
     0
 10
78.2697
 20
75.6102
 30
0.0
 11
78.2697
 21
81.5605
 31
0.0
  0
LINE
  8
0
 62
     0
 10
78.2697
 20
81.5605
 30
0.0
 11
79.0706
 21
81.5605
 31
0.0
  0
LINE
  8
0
 62
     0
 10
79.0706
 20
81.5605
 30
0.0
 11
79.0706
 21
84.5097
 31
0.0
  0
LINE
  8
0
 62
     0
 10
79.0706
 20
84.5097
 30
0.0
 11
78.2697
 21
84.5097
 31
0.0
  0
LINE
  8
0
 62
     0
 10
78.2697
 20
84.5097
 30
0.0
 11
78.2697
 21
85.5102
 31
0.0
  0
LINE
  8
0
 62
     0
 10
78.2697
 20
85.5102
 30
0.0
 11
64.4204
 21
85.5102
 31
0.0
  0
LINE
  8
0
 62
     0
 10
121.57
 20
95.0352
 30
0.0
 11
121.57
 21
94.0347
 31
0.0
  0
LINE
  8
0
 62
     0
 10
121.57
 20
94.0347
 30
0.0
 11
120.77
 21
94.0347
 31
0.0
  0
LINE
  8
0
 62
     0
 10
120.77
 20
94.0347
 30
0.0
 11
120.77
 21
91.0855
 31
0.0
  0
LINE
  8
0
 62
     0
 10
120.77
 20
91.0855
 30
0.0
 11
121.57
 21
91.0855
 31
0.0
  0
LINE
  8
0
 62
     0
 10
121.57
 20
91.0855
 30
0.0
 11
121.57
 21
85.1352
 31
0.0
  0
LINE
  8
0
 62
     0
 10
121.57
 20
85.1352
 30
0.0
 11
120.77
 21
85.1352
 31
0.0
  0
LINE
  8
0
 62
     0
 10
120.77
 20
85.1352
 30
0.0
 11
120.77
 21
82.1849
 31
0.0
  0
LINE
  8
0
 62
     0
 10
120.77
 20
82.1849
 30
0.0
 11
121.57
 21
82.1849
 31
0.0
  0
LINE
  8
0
 62
     0
 10
121.57
 20
82.1849
 30
0.0
 11
121.57
 21
81.1858
 31
0.0
  0
LINE
  8
0
 62
     0
 10
121.57
 20
81.1858
 30
0.0
 11
135.42
 21
81.1858
 31
0.0
  0
LINE
  8
0
 62
     0
 10
135.42
 20
81.1858
 30
0.0
 11
135.42
 21
82.1849
 31
0.0
  0
LINE
  8
0
 62
     0
 10
135.42
 20
82.1849
 30
0.0
 11
136.221
 21
82.1849
 31
0.0
  0
LINE
  8
0
 62
     0
 10
136.221
 20
82.1849
 30
0.0
 11
136.221
 21
85.1352
 31
0.0
  0
LINE
  8
0
 62
     0
 10
136.221
 20
85.1352
 30
0.0
 11
135.42
 21
85.1352
 31
0.0
  0
LINE
  8
0
 62
     0
 10
135.42
 20
85.1352
 30
0.0
 11
135.42
 21
91.0855
 31
0.0
  0
LINE
  8
0
 62
     0
 10
135.42
 20
91.0855
 30
0.0
 11
136.221
 21
91.0855
 31
0.0
  0
LINE
  8
0
 62
     0
 10
136.221
 20
91.0855
 30
0.0
 11
136.221
 21
94.0347
 31
0.0
  0
LINE
  8
0
 62
     0
 10
136.221
 20
94.0347
 30
0.0
 11
135.42
 21
94.0347
 31
0.0
  0
LINE
  8
0
 62
     0
 10
135.42
 20
94.0347
 30
0.0
 11
135.42
 21
95.0352
 31
0.0
  0
LINE
  8
0
 62
     0
 10
135.42
 20
95.0352
 30
0.0
 11
121.57
 21
95.0352
 31
0.0
  0
LINE
  8
0
 62
     0
 10
7.27054
 20
97.4178
 30
0.0
 11
7.27054
 21
96.4173
 31
0.0
  0
LINE
  8
0
 62
     0
 10
7.27054
 20
96.4173
 30
0.0
 11
6.46987
 21
96.4173
 31
0.0
  0
LINE
  8
0
 62
     0
 10
6.46987
 20
96.4173
 30
0.0
 11
6.46987
 21
93.4667
 31
0.0
  0
LINE
  8
0
 62
     0
 10
6.46987
 20
93.4667
 30
0.0
 11
7.27054
 21
93.4667
 31
0.0
  0
LINE
  8
0
 62
     0
 10
7.27054
 20
93.4667
 30
0.0
 11
7.27054
 21
87.5164
 31
0.0
  0
LINE
  8
0
 62
     0
 10
7.27054
 20
87.5164
 30
0.0
 11
6.46987
 21
87.5164
 31
0.0
  0
LINE
  8
0
 62
     0
 10
6.46987
 20
87.5164
 30
0.0
 11
6.46987
 21
84.5675
 31
0.0
  0
LINE
  8
0
 62
     0
 10
6.46987
 20
84.5675
 30
0.0
 11
7.27054
 21
84.5675
 31
0.0
  0
LINE
  8
0
 62
     0
 10
7.27054
 20
84.5675
 30
0.0
 11
7.27054
 21
83.5671
 31
0.0
  0
LINE
  8
0
 62
     0
 10
7.27054
 20
83.5671
 30
0.0
 11
21.1198
 21
83.5671
 31
0.0
  0
LINE
  8
0
 62
     0
 10
21.1198
 20
83.5671
 30
0.0
 11
21.1198
 21
84.5675
 31
0.0
  0
LINE
  8
0
 62
     0
 10
21.1198
 20
84.5675
 30
0.0
 11
21.9204
 21
84.5675
 31
0.0
  0
LINE
  8
0
 62
     0
 10
21.9204
 20
84.5675
 30
0.0
 11
21.9204
 21
87.5164
 31
0.0
  0
LINE
  8
0
 62
     0
 10
21.9204
 20
87.5164
 30
0.0
 11
21.1198
 21
87.5164
 31
0.0
  0
LINE
  8
0
 62
     0
 10
21.1198
 20
87.5164
 30
0.0
 11
21.1198
 21
93.4667
 31
0.0
  0
LINE
  8
0
 62
     0
 10
21.1198
 20
93.4667
 30
0.0
 11
21.9204
 21
93.4667
 31
0.0
  0
LINE
  8
0
 62
     0
 10
21.9204
 20
93.4667
 30
0.0
 11
21.9204
 21
96.4173
 31
0.0
  0
LINE
  8
0
 62
     0
 10
21.9204
 20
96.4173
 30
0.0
 11
21.1198
 21
96.4173
 31
0.0
  0
LINE
  8
0
 62
     0
 10
21.1198
 20
96.4173
 30
0.0
 11
21.1198
 21
97.4178
 31
0.0
  0
LINE
  8
0
 62
     0
 10
21.1198
 20
97.4178
 30
0.0
 11
7.27054
 21
97.4178
 31
0.0
  0
LINE
  8
0
 62
     0
 10
26.3205
 20
97.4178
 30
0.0
 11
26.3205
 21
96.4173
 31
0.0
  0
LINE
  8
0
 62
     0
 10
26.3205
 20
96.4173
 30
0.0
 11
25.5199
 21
96.4173
 31
0.0
  0
LINE
  8
0
 62
     0
 10
25.5199
 20
96.4173
 30
0.0
 11
25.5199
 21
93.4667
 31
0.0
  0
LINE
  8
0
 62
     0
 10
25.5199
 20
93.4667
 30
0.0
 11
26.3205
 21
93.4667
 31
0.0
  0
LINE
  8
0
 62
     0
 10
26.3205
 20
93.4667
 30
0.0
 11
26.3205
 21
87.5164
 31
0.0
  0
LINE
  8
0
 62
     0
 10
26.3205
 20
87.5164
 30
0.0
 11
25.5199
 21
87.5164
 31
0.0
  0
LINE
  8
0
 62
     0
 10
25.5199
 20
87.5164
 30
0.0
 11
25.5199
 21
84.5675
 31
0.0
  0
LINE
  8
0
 62
     0
 10
25.5199
 20
84.5675
 30
0.0
 11
26.3205
 21
84.5675
 31
0.0
  0
LINE
  8
0
 62
     0
 10
26.3205
 20
84.5675
 30
0.0
 11
26.3205
 21
83.5671
 31
0.0
  0
LINE
  8
0
 62
     0
 10
26.3205
 20
83.5671
 30
0.0
 11
40.1697
 21
83.5671
 31
0.0
  0
LINE
  8
0
 62
     0
 10
40.1697
 20
83.5671
 30
0.0
 11
40.1697
 21
84.5675
 31
0.0
  0
LINE
  8
0
 62
     0
 10
40.1697
 20
84.5675
 30
0.0
 11
40.9706
 21
84.5675
 31
0.0
  0
LINE
  8
0
 62
     0
 10
40.9706
 20
84.5675
 30
0.0
 11
40.9706
 21
87.5164
 31
0.0
  0
LINE
  8
0
 62
     0
 10
40.9706
 20
87.5164
 30
0.0
 11
40.1697
 21
87.5164
 31
0.0
  0
LINE
  8
0
 62
     0
 10
40.1697
 20
87.5164
 30
0.0
 11
40.1697
 21
93.4667
 31
0.0
  0
LINE
  8
0
 62
     0
 10
40.1697
 20
93.4667
 30
0.0
 11
40.9706
 21
93.4667
 31
0.0
  0
LINE
  8
0
 62
     0
 10
40.9706
 20
93.4667
 30
0.0
 11
40.9706
 21
96.4173
 31
0.0
  0
LINE
  8
0
 62
     0
 10
40.9706
 20
96.4173
 30
0.0
 11
40.1697
 21
96.4173
 31
0.0
  0
LINE
  8
0
 62
     0
 10
40.1697
 20
96.4173
 30
0.0
 11
40.1697
 21
97.4178
 31
0.0
  0
LINE
  8
0
 62
     0
 10
40.1697
 20
97.4178
 30
0.0
 11
26.3205
 21
97.4178
 31
0.0
  0
LINE
  8
0
 62
     0
 10
102.52
 20
99.7977
 30
0.0
 11
102.52
 21
98.7986
 31
0.0
  0
LINE
  8
0
 62
     0
 10
102.52
 20
98.7986
 30
0.0
 11
101.72
 21
98.7986
 31
0.0
  0
LINE
  8
0
 62
     0
 10
101.72
 20
98.7986
 30
0.0
 11
101.72
 21
95.848
 31
0.0
  0
LINE
  8
0
 62
     0
 10
101.72
 20
95.848
 30
0.0
 11
102.52
 21
95.848
 31
0.0
  0
LINE
  8
0
 62
     0
 10
102.52
 20
95.848
 30
0.0
 11
102.52
 21
89.8977
 31
0.0
  0
LINE
  8
0
 62
     0
 10
102.52
 20
89.8977
 30
0.0
 11
101.72
 21
89.8977
 31
0.0
  0
LINE
  8
0
 62
     0
 10
101.72
 20
89.8977
 30
0.0
 11
101.72
 21
86.9488
 31
0.0
  0
LINE
  8
0
 62
     0
 10
101.72
 20
86.9488
 30
0.0
 11
102.52
 21
86.9488
 31
0.0
  0
LINE
  8
0
 62
     0
 10
102.52
 20
86.9488
 30
0.0
 11
102.52
 21
85.9483
 31
0.0
  0
LINE
  8
0
 62
     0
 10
102.52
 20
85.9483
 30
0.0
 11
116.37
 21
85.9483
 31
0.0
  0
LINE
  8
0
 62
     0
 10
116.37
 20
85.9483
 30
0.0
 11
116.37
 21
86.9488
 31
0.0
  0
LINE
  8
0
 62
     0
 10
116.37
 20
86.9488
 30
0.0
 11
117.171
 21
86.9488
 31
0.0
  0
LINE
  8
0
 62
     0
 10
117.171
 20
86.9488
 30
0.0
 11
117.171
 21
89.8977
 31
0.0
  0
LINE
  8
0
 62
     0
 10
117.171
 20
89.8977
 30
0.0
 11
116.37
 21
89.8977
 31
0.0
  0
LINE
  8
0
 62
     0
 10
116.37
 20
89.8977
 30
0.0
 11
116.37
 21
95.848
 31
0.0
  0
LINE
  8
0
 62
     0
 10
116.37
 20
95.848
 30
0.0
 11
117.171
 21
95.848
 31
0.0
  0
LINE
  8
0
 62
     0
 10
117.171
 20
95.848
 30
0.0
 11
117.171
 21
98.7986
 31
0.0
  0
LINE
  8
0
 62
     0
 10
117.171
 20
98.7986
 30
0.0
 11
116.37
 21
98.7986
 31
0.0
  0
LINE
  8
0
 62
     0
 10
116.37
 20
98.7986
 30
0.0
 11
116.37
 21
99.7977
 31
0.0
  0
LINE
  8
0
 62
     0
 10
116.37
 20
99.7977
 30
0.0
 11
102.52
 21
99.7977
 31
0.0
  0
LINE
  8
0
 62
     0
 10
45.3704
 20
102.179
 30
0.0
 11
45.3704
 21
101.18
 31
0.0
  0
LINE
  8
0
 62
     0
 10
45.3704
 20
101.18
 30
0.0
 11
44.5699
 21
101.18
 31
0.0
  0
LINE
  8
0
 62
     0
 10
44.5699
 20
101.18
 30
0.0
 11
44.5699
 21
98.2292
 31
0.0
  0
LINE
  8
0
 62
     0
 10
44.5699
 20
98.2292
 30
0.0
 11
45.3704
 21
98.2292
 31
0.0
  0
LINE
  8
0
 62
     0
 10
45.3704
 20
98.2292
 30
0.0
 11
45.3704
 21
92.2789
 31
0.0
  0
LINE
  8
0
 62
     0
 10
45.3704
 20
92.2789
 30
0.0
 11
44.5699
 21
92.2789
 31
0.0
  0
LINE
  8
0
 62
     0
 10
44.5699
 20
92.2789
 30
0.0
 11
44.5699
 21
89.3286
 31
0.0
  0
LINE
  8
0
 62
     0
 10
44.5699
 20
89.3286
 30
0.0
 11
45.3704
 21
89.3286
 31
0.0
  0
LINE
  8
0
 62
     0
 10
45.3704
 20
89.3286
 30
0.0
 11
45.3704
 21
88.3296
 31
0.0
  0
LINE
  8
0
 62
     0
 10
45.3704
 20
88.3296
 30
0.0
 11
59.2197
 21
88.3296
 31
0.0
  0
LINE
  8
0
 62
     0
 10
59.2197
 20
88.3296
 30
0.0
 11
59.2197
 21
89.3286
 31
0.0
  0
LINE
  8
0
 62
     0
 10
59.2197
 20
89.3286
 30
0.0
 11
60.0206
 21
89.3286
 31
0.0
  0
LINE
  8
0
 62
     0
 10
60.0206
 20
89.3286
 30
0.0
 11
60.0206
 21
92.2789
 31
0.0
  0
LINE
  8
0
 62
     0
 10
60.0206
 20
92.2789
 30
0.0
 11
59.2197
 21
92.2789
 31
0.0
  0
LINE
  8
0
 62
     0
 10
59.2197
 20
92.2789
 30
0.0
 11
59.2197
 21
98.2292
 31
0.0
  0
LINE
  8
0
 62
     0
 10
59.2197
 20
98.2292
 30
0.0
 11
60.0206
 21
98.2292
 31
0.0
  0
LINE
  8
0
 62
     0
 10
60.0206
 20
98.2292
 30
0.0
 11
60.0206
 21
101.18
 31
0.0
  0
LINE
  8
0
 62
     0
 10
60.0206
 20
101.18
 30
0.0
 11
59.2197
 21
101.18
 31
0.0
  0
LINE
  8
0
 62
     0
 10
59.2197
 20
101.18
 30
0.0
 11
59.2197
 21
102.179
 31
0.0
  0
LINE
  8
0
 62
     0
 10
59.2197
 20
102.179
 30
0.0
 11
45.3704
 21
102.179
 31
0.0
  0
LINE
  8
0
 62
     0
 10
83.4704
 20
102.179
 30
0.0
 11
83.4704
 21
101.18
 31
0.0
  0
LINE
  8
0
 62
     0
 10
83.4704
 20
101.18
 30
0.0
 11
82.6699
 21
101.18
 31
0.0
  0
LINE
  8
0
 62
     0
 10
82.6699
 20
101.18
 30
0.0
 11
82.6699
 21
98.2292
 31
0.0
  0
LINE
  8
0
 62
     0
 10
82.6699
 20
98.2292
 30
0.0
 11
83.4704
 21
98.2292
 31
0.0
  0
LINE
  8
0
 62
     0
 10
83.4704
 20
98.2292
 30
0.0
 11
83.4704
 21
92.2789
 31
0.0
  0
LINE
  8
0
 62
     0
 10
83.4704
 20
92.2789
 30
0.0
 11
82.6699
 21
92.2789
 31
0.0
  0
LINE
  8
0
 62
     0
 10
82.6699
 20
92.2789
 30
0.0
 11
82.6699
 21
89.3286
 31
0.0
  0
LINE
  8
0
 62
     0
 10
82.6699
 20
89.3286
 30
0.0
 11
83.4704
 21
89.3286
 31
0.0
  0
LINE
  8
0
 62
     0
 10
83.4704
 20
89.3286
 30
0.0
 11
83.4704
 21
88.3296
 31
0.0
  0
LINE
  8
0
 62
     0
 10
83.4704
 20
88.3296
 30
0.0
 11
97.3197
 21
88.3296
 31
0.0
  0
LINE
  8
0
 62
     0
 10
97.3197
 20
88.3296
 30
0.0
 11
97.3197
 21
89.3286
 31
0.0
  0
LINE
  8
0
 62
     0
 10
97.3197
 20
89.3286
 30
0.0
 11
98.1191
 21
89.3286
 31
0.0
  0
LINE
  8
0
 62
     0
 10
98.1191
 20
89.3286
 30
0.0
 11
98.1191
 21
92.2789
 31
0.0
  0
LINE
  8
0
 62
     0
 10
98.1191
 20
92.2789
 30
0.0
 11
97.3197
 21
92.2789
 31
0.0
  0
LINE
  8
0
 62
     0
 10
97.3197
 20
92.2789
 30
0.0
 11
97.3197
 21
98.2292
 31
0.0
  0
LINE
  8
0
 62
     0
 10
97.3197
 20
98.2292
 30
0.0
 11
98.1191
 21
98.2292
 31
0.0
  0
LINE
  8
0
 62
     0
 10
98.1191
 20
98.2292
 30
0.0
 11
98.1191
 21
101.18
 31
0.0
  0
LINE
  8
0
 62
     0
 10
98.1191
 20
101.18
 30
0.0
 11
97.3197
 21
101.18
 31
0.0
  0
LINE
  8
0
 62
     0
 10
97.3197
 20
101.18
 30
0.0
 11
97.3197
 21
102.179
 31
0.0
  0
LINE
  8
0
 62
     0
 10
97.3197
 20
102.179
 30
0.0
 11
83.4704
 21
102.179
 31
0.0
  0
LINE
  8
0
 62
     0
 10
64.4204
 20
104.56
 30
0.0
 11
64.4204
 21
103.56
 31
0.0
  0
LINE
  8
0
 62
     0
 10
64.4204
 20
103.56
 30
0.0
 11
63.6199
 21
103.56
 31
0.0
  0
LINE
  8
0
 62
     0
 10
63.6199
 20
103.56
 30
0.0
 11
63.6199
 21
100.61
 31
0.0
  0
LINE
  8
0
 62
     0
 10
63.6199
 20
100.61
 30
0.0
 11
64.4204
 21
100.61
 31
0.0
  0
LINE
  8
0
 62
     0
 10
64.4204
 20
100.61
 30
0.0
 11
64.4204
 21
94.6602
 31
0.0
  0
LINE
  8
0
 62
     0
 10
64.4204
 20
94.6602
 30
0.0
 11
63.6199
 21
94.6602
 31
0.0
  0
LINE
  8
0
 62
     0
 10
63.6199
 20
94.6602
 30
0.0
 11
63.6199
 21
91.7099
 31
0.0
  0
LINE
  8
0
 62
     0
 10
63.6199
 20
91.7099
 30
0.0
 11
64.4204
 21
91.7099
 31
0.0
  0
LINE
  8
0
 62
     0
 10
64.4204
 20
91.7099
 30
0.0
 11
64.4204
 21
90.7108
 31
0.0
  0
LINE
  8
0
 62
     0
 10
64.4204
 20
90.7108
 30
0.0
 11
78.2697
 21
90.7108
 31
0.0
  0
LINE
  8
0
 62
     0
 10
78.2697
 20
90.7108
 30
0.0
 11
78.2697
 21
91.7099
 31
0.0
  0
LINE
  8
0
 62
     0
 10
78.2697
 20
91.7099
 30
0.0
 11
79.0706
 21
91.7099
 31
0.0
  0
LINE
  8
0
 62
     0
 10
79.0706
 20
91.7099
 30
0.0
 11
79.0706
 21
94.6602
 31
0.0
  0
LINE
  8
0
 62
     0
 10
79.0706
 20
94.6602
 30
0.0
 11
78.2697
 21
94.6602
 31
0.0
  0
LINE
  8
0
 62
     0
 10
78.2697
 20
94.6602
 30
0.0
 11
78.2697
 21
100.61
 31
0.0
  0
LINE
  8
0
 62
     0
 10
78.2697
 20
100.61
 30
0.0
 11
79.0706
 21
100.61
 31
0.0
  0
LINE
  8
0
 62
     0
 10
79.0706
 20
100.61
 30
0.0
 11
79.0706
 21
103.56
 31
0.0
  0
LINE
  8
0
 62
     0
 10
79.0706
 20
103.56
 30
0.0
 11
78.2697
 21
103.56
 31
0.0
  0
LINE
  8
0
 62
     0
 10
78.2697
 20
103.56
 30
0.0
 11
78.2697
 21
104.56
 31
0.0
  0
LINE
  8
0
 62
     0
 10
78.2697
 20
104.56
 30
0.0
 11
64.4204
 21
104.56
 31
0.0
  0
ENDSEC
  0
EOF
