  0
SECTION
  2
HEADER
  9
$ACADVER
  1
AC1009
  9
$FILLMODE
 70
 0
  9
$SPLFRAME
 70
 1
  9
$EXTMIN
 10
0
 20
0
 30
0.0
  9
$EXTMAX
 10
1058.33
 20
1058.33
 30
0.0
  0
ENDSEC
  0
SECTION
  2
TABLES
  0
TABLE
  2
LAYER
 70
1
  0
LAYER
  2
0
 70
     0
 62
     7
  6
CONTINUOUS
  0
ENDTAB
  0
ENDSEC
  0
SECTION
  2
ENTITIES
  0
LINE
  8
0
 62
     0
 10
140.597
 20
111.735
 30
0.0
 11
140.753
 21
111.729
 31
0.0
  0
LINE
  8
0
 62
     0
 10
140.753
 20
111.729
 30
0.0
 11
140.909
 21
111.711
 31
0.0
  0
LINE
  8
0
 62
     0
 10
140.909
 20
111.711
 30
0.0
 11
141.063
 21
111.68
 31
0.0
  0
LINE
  8
0
 62
     0
 10
141.063
 20
111.68
 30
0.0
 11
141.214
 21
111.638
 31
0.0
  0
LINE
  8
0
 62
     0
 10
141.214
 20
111.638
 30
0.0
 11
141.362
 21
111.583
 31
0.0
  0
LINE
  8
0
 62
     0
 10
141.362
 20
111.583
 30
0.0
 11
141.504
 21
111.518
 31
0.0
  0
LINE
  8
0
 62
     0
 10
141.504
 20
111.518
 30
0.0
 11
141.64
 21
111.441
 31
0.0
  0
LINE
  8
0
 62
     0
 10
141.64
 20
111.441
 30
0.0
 11
141.771
 21
111.354
 31
0.0
  0
LINE
  8
0
 62
     0
 10
141.771
 20
111.354
 30
0.0
 11
141.894
 21
111.256
 31
0.0
  0
LINE
  8
0
 62
     0
 10
141.894
 20
111.256
 30
0.0
 11
142.011
 21
111.15
 31
0.0
  0
LINE
  8
0
 62
     0
 10
142.011
 20
111.15
 30
0.0
 11
142.117
 21
111.034
 31
0.0
  0
LINE
  8
0
 62
     0
 10
142.117
 20
111.034
 30
0.0
 11
142.215
 21
110.912
 31
0.0
  0
LINE
  8
0
 62
     0
 10
142.215
 20
110.912
 30
0.0
 11
142.302
 21
110.78
 31
0.0
  0
LINE
  8
0
 62
     0
 10
142.302
 20
110.78
 30
0.0
 11
142.379
 21
110.643
 31
0.0
  0
LINE
  8
0
 62
     0
 10
142.379
 20
110.643
 30
0.0
 11
142.444
 21
110.501
 31
0.0
  0
LINE
  8
0
 62
     0
 10
142.444
 20
110.501
 30
0.0
 11
142.499
 21
110.355
 31
0.0
  0
LINE
  8
0
 62
     0
 10
142.499
 20
110.355
 30
0.0
 11
142.54
 21
110.202
 31
0.0
  0
LINE
  8
0
 62
     0
 10
142.54
 20
110.202
 30
0.0
 11
142.572
 21
110.049
 31
0.0
  0
LINE
  8
0
 62
     0
 10
142.572
 20
110.049
 30
0.0
 11
142.59
 21
109.892
 31
0.0
  0
LINE
  8
0
 62
     0
 10
142.59
 20
109.892
 30
0.0
 11
142.597
 21
109.735
 31
0.0
  0
LINE
  8
0
 62
     0
 10
142.597
 20
109.735
 30
0.0
 11
142.597
 21
2.19108
 31
0.0
  0
LINE
  8
0
 62
     0
 10
142.597
 20
2.19108
 30
0.0
 11
142.59
 21
2.03399
 31
0.0
  0
LINE
  8
0
 62
     0
 10
142.59
 20
2.03399
 30
0.0
 11
142.572
 21
1.87827
 31
0.0
  0
LINE
  8
0
 62
     0
 10
142.572
 20
1.87827
 30
0.0
 11
142.54
 21
1.72393
 31
0.0
  0
LINE
  8
0
 62
     0
 10
142.54
 20
1.72393
 30
0.0
 11
142.499
 21
1.57372
 31
0.0
  0
LINE
  8
0
 62
     0
 10
142.499
 20
1.57372
 30
0.0
 11
142.444
 21
1.42489
 31
0.0
  0
LINE
  8
0
 62
     0
 10
142.444
 20
1.42489
 30
0.0
 11
142.379
 21
1.28295
 31
0.0
  0
LINE
  8
0
 62
     0
 10
142.379
 20
1.28295
 30
0.0
 11
142.302
 21
1.14653
 31
0.0
  0
LINE
  8
0
 62
     0
 10
142.302
 20
1.14653
 30
0.0
 11
142.215
 21
1.01562
 31
0.0
  0
LINE
  8
0
 62
     0
 10
142.215
 20
1.01562
 30
0.0
 11
142.117
 21
0.891589
 31
0.0
  0
LINE
  8
0
 62
     0
 10
142.117
 20
0.891589
 30
0.0
 11
142.011
 21
0.777215
 31
0.0
  0
LINE
  8
0
 62
     0
 10
142.011
 20
0.777215
 30
0.0
 11
141.894
 21
0.669727
 31
0.0
  0
LINE
  8
0
 62
     0
 10
141.894
 20
0.669727
 30
0.0
 11
141.771
 21
0.573264
 31
0.0
  0
LINE
  8
0
 62
     0
 10
141.771
 20
0.573264
 30
0.0
 11
141.64
 21
0.485069
 31
0.0
  0
LINE
  8
0
 62
     0
 10
141.64
 20
0.485069
 30
0.0
 11
141.504
 21
0.409279
 31
0.0
  0
LINE
  8
0
 62
     0
 10
141.504
 20
0.409279
 30
0.0
 11
141.362
 21
0.343131
 31
0.0
  0
LINE
  8
0
 62
     0
 10
141.362
 20
0.343131
 30
0.0
 11
141.214
 21
0.289388
 31
0.0
  0
LINE
  8
0
 62
     0
 10
141.214
 20
0.289388
 30
0.0
 11
141.063
 21
0.246669
 31
0.0
  0
LINE
  8
0
 62
     0
 10
141.063
 20
0.246669
 30
0.0
 11
140.909
 21
0.214974
 31
0.0
  0
LINE
  8
0
 62
     0
 10
140.909
 20
0.214974
 30
0.0
 11
140.753
 21
0.19706
 31
0.0
  0
LINE
  8
0
 62
     0
 10
140.753
 20
0.19706
 30
0.0
 11
140.596
 21
0.191547
 31
0.0
  0
LINE
  8
0
 62
     0
 10
140.596
 20
0.191547
 30
0.0
 11
2.096
 21
0.191547
 31
0.0
  0
LINE
  8
0
 62
     0
 10
2.096
 20
0.191547
 30
0.0
 11
1.9389
 21
0.19706
 31
0.0
  0
LINE
  8
0
 62
     0
 10
1.9389
 20
0.19706
 30
0.0
 11
1.7818
 21
0.214974
 31
0.0
  0
LINE
  8
0
 62
     0
 10
1.7818
 20
0.214974
 30
0.0
 11
1.62884
 21
0.246669
 31
0.0
  0
LINE
  8
0
 62
     0
 10
1.62884
 20
0.246669
 30
0.0
 11
1.47588
 21
0.289388
 31
0.0
  0
LINE
  8
0
 62
     0
 10
1.47588
 20
0.289388
 30
0.0
 11
1.32981
 21
0.343131
 31
0.0
  0
LINE
  8
0
 62
     0
 10
1.32981
 20
0.343131
 30
0.0
 11
1.18787
 21
0.409279
 31
0.0
  0
LINE
  8
0
 62
     0
 10
1.18787
 20
0.409279
 30
0.0
 11
1.05006
 21
0.485069
 31
0.0
  0
LINE
  8
0
 62
     0
 10
1.05006
 20
0.485069
 30
0.0
 11
0.919152
 21
0.573264
 31
0.0
  0
LINE
  8
0
 62
     0
 10
0.919152
 20
0.573264
 30
0.0
 11
0.796505
 21
0.669727
 31
0.0
  0
LINE
  8
0
 62
     0
 10
0.796505
 20
0.669727
 30
0.0
 11
0.680752
 21
0.777215
 31
0.0
  0
LINE
  8
0
 62
     0
 10
0.680752
 20
0.777215
 30
0.0
 11
0.574643
 21
0.891589
 31
0.0
  0
LINE
  8
0
 62
     0
 10
0.574643
 20
0.891589
 30
0.0
 11
0.4768
 21
1.01562
 31
0.0
  0
LINE
  8
0
 62
     0
 10
0.4768
 20
1.01562
 30
0.0
 11
0.389985
 21
1.14653
 31
0.0
  0
LINE
  8
0
 62
     0
 10
0.389985
 20
1.14653
 30
0.0
 11
0.312815
 21
1.28295
 31
0.0
  0
LINE
  8
0
 62
     0
 10
0.312815
 20
1.28295
 30
0.0
 11
0.248047
 21
1.42489
 31
0.0
  0
LINE
  8
0
 62
     0
 10
0.248047
 20
1.42489
 30
0.0
 11
0.192925
 21
1.57372
 31
0.0
  0
LINE
  8
0
 62
     0
 10
0.192925
 20
1.57372
 30
0.0
 11
0.150206
 21
1.72393
 31
0.0
  0
LINE
  8
0
 62
     0
 10
0.150206
 20
1.72393
 30
0.0
 11
0.119889
 21
1.87827
 31
0.0
  0
LINE
  8
0
 62
     0
 10
0.119889
 20
1.87827
 30
0.0
 11
0.101975
 21
2.03399
 31
0.0
  0
LINE
  8
0
 62
     0
 10
0.101975
 20
2.03399
 30
0.0
 11
0.0950846
 21
2.19108
 31
0.0
  0
LINE
  8
0
 62
     0
 10
0.0950846
 20
2.19108
 30
0.0
 11
0.0950846
 21
109.735
 31
0.0
  0
LINE
  8
0
 62
     0
 10
0.0950846
 20
109.735
 30
0.0
 11
0.101975
 21
109.892
 31
0.0
  0
LINE
  8
0
 62
     0
 10
0.101975
 20
109.892
 30
0.0
 11
0.119889
 21
110.049
 31
0.0
  0
LINE
  8
0
 62
     0
 10
0.119889
 20
110.049
 30
0.0
 11
0.150206
 21
110.202
 31
0.0
  0
LINE
  8
0
 62
     0
 10
0.150206
 20
110.202
 30
0.0
 11
0.192925
 21
110.355
 31
0.0
  0
LINE
  8
0
 62
     0
 10
0.192925
 20
110.355
 30
0.0
 11
0.248047
 21
110.501
 31
0.0
  0
LINE
  8
0
 62
     0
 10
0.248047
 20
110.501
 30
0.0
 11
0.312815
 21
110.643
 31
0.0
  0
LINE
  8
0
 62
     0
 10
0.312815
 20
110.643
 30
0.0
 11
0.389985
 21
110.78
 31
0.0
  0
LINE
  8
0
 62
     0
 10
0.389985
 20
110.78
 30
0.0
 11
0.4768
 21
110.912
 31
0.0
  0
LINE
  8
0
 62
     0
 10
0.4768
 20
110.912
 30
0.0
 11
0.574643
 21
111.034
 31
0.0
  0
LINE
  8
0
 62
     0
 10
0.574643
 20
111.034
 30
0.0
 11
0.680752
 21
111.15
 31
0.0
  0
LINE
  8
0
 62
     0
 10
0.680752
 20
111.15
 30
0.0
 11
0.796505
 21
111.256
 31
0.0
  0
LINE
  8
0
 62
     0
 10
0.796505
 20
111.256
 30
0.0
 11
0.919152
 21
111.354
 31
0.0
  0
LINE
  8
0
 62
     0
 10
0.919152
 20
111.354
 30
0.0
 11
1.05006
 21
111.441
 31
0.0
  0
LINE
  8
0
 62
     0
 10
1.05006
 20
111.441
 30
0.0
 11
1.18787
 21
111.518
 31
0.0
  0
LINE
  8
0
 62
     0
 10
1.18787
 20
111.518
 30
0.0
 11
1.32981
 21
111.583
 31
0.0
  0
LINE
  8
0
 62
     0
 10
1.32981
 20
111.583
 30
0.0
 11
1.47588
 21
111.638
 31
0.0
  0
LINE
  8
0
 62
     0
 10
1.47588
 20
111.638
 30
0.0
 11
1.62884
 21
111.68
 31
0.0
  0
LINE
  8
0
 62
     0
 10
1.62884
 20
111.68
 30
0.0
 11
1.7818
 21
111.711
 31
0.0
  0
LINE
  8
0
 62
     0
 10
1.7818
 20
111.711
 30
0.0
 11
1.9389
 21
111.729
 31
0.0
  0
LINE
  8
0
 62
     0
 10
1.9389
 20
111.729
 30
0.0
 11
2.096
 21
111.735
 31
0.0
  0
LINE
  8
0
 62
     0
 10
2.096
 20
111.735
 30
0.0
 11
140.597
 21
111.735
 31
0.0
  0
LINE
  8
0
 62
     0
 10
61.8201
 20
107.16
 30
0.0
 11
61.8201
 21
104.781
 31
0.0
  0
LINE
  8
0
 62
     0
 10
61.8201
 20
104.781
 30
0.0
 11
42.7687
 21
104.781
 31
0.0
  0
LINE
  8
0
 62
     0
 10
42.7687
 20
104.781
 30
0.0
 11
42.7687
 21
100.018
 31
0.0
  0
LINE
  8
0
 62
     0
 10
42.7687
 20
100.018
 30
0.0
 11
4.67018
 21
100.018
 31
0.0
  0
LINE
  8
0
 62
     0
 10
4.67018
 20
100.018
 30
0.0
 11
4.67018
 21
4.76663
 31
0.0
  0
LINE
  8
0
 62
     0
 10
4.67018
 20
4.76663
 30
0.0
 11
42.7715
 21
4.76663
 31
0.0
  0
LINE
  8
0
 62
     0
 10
42.7715
 20
4.76663
 30
0.0
 11
42.7715
 21
9.52775
 31
0.0
  0
LINE
  8
0
 62
     0
 10
42.7715
 20
9.52775
 30
0.0
 11
61.8215
 21
9.52775
 31
0.0
  0
LINE
  8
0
 62
     0
 10
61.8215
 20
9.52775
 30
0.0
 11
61.8215
 21
11.909
 31
0.0
  0
LINE
  8
0
 62
     0
 10
61.8215
 20
11.909
 30
0.0
 11
80.8701
 21
11.909
 31
0.0
  0
LINE
  8
0
 62
     0
 10
80.8701
 20
11.909
 30
0.0
 11
80.8701
 21
9.52775
 31
0.0
  0
LINE
  8
0
 62
     0
 10
80.8701
 20
9.52775
 30
0.0
 11
99.9215
 21
9.52775
 31
0.0
  0
LINE
  8
0
 62
     0
 10
99.9215
 20
9.52775
 30
0.0
 11
99.9215
 21
26.1965
 31
0.0
  0
LINE
  8
0
 62
     0
 10
99.9215
 20
26.1965
 30
0.0
 11
118.971
 21
26.1965
 31
0.0
  0
LINE
  8
0
 62
     0
 10
118.971
 20
26.1965
 30
0.0
 11
118.971
 21
40.4841
 31
0.0
  0
LINE
  8
0
 62
     0
 10
118.971
 20
40.4841
 30
0.0
 11
138.021
 21
40.4841
 31
0.0
  0
LINE
  8
0
 62
     0
 10
138.021
 20
40.4841
 30
0.0
 11
138.021
 21
97.6355
 31
0.0
  0
LINE
  8
0
 62
     0
 10
138.021
 20
97.6355
 30
0.0
 11
118.971
 21
97.6355
 31
0.0
  0
LINE
  8
0
 62
     0
 10
118.971
 20
97.6355
 30
0.0
 11
118.971
 21
102.399
 31
0.0
  0
LINE
  8
0
 62
     0
 10
118.971
 20
102.399
 30
0.0
 11
99.9215
 21
102.399
 31
0.0
  0
LINE
  8
0
 62
     0
 10
99.9215
 20
102.399
 30
0.0
 11
99.9215
 21
104.781
 31
0.0
  0
LINE
  8
0
 62
     0
 10
99.9215
 20
104.781
 30
0.0
 11
80.8715
 21
104.781
 31
0.0
  0
LINE
  8
0
 62
     0
 10
80.8715
 20
104.781
 30
0.0
 11
80.8715
 21
107.16
 31
0.0
  0
LINE
  8
0
 62
     0
 10
80.8715
 20
107.16
 30
0.0
 11
61.8201
 21
107.16
 31
0.0
  0
ENDSEC
  0
EOF
