  0
SECTION
  2
HEADER
  9
$ACADVER
  1
AC1009
  9
$FILLMODE
 70
 0
  9
$SPLFRAME
 70
 1
  9
$EXTMIN
 10
0
 20
0
 30
0.0
  9
$EXTMAX
 10
1058.33
 20
1058.33
 30
0.0
  0
ENDSEC
  0
SECTION
  2
TABLES
  0
TABLE
  2
LAYER
 70
1
  0
LAYER
  2
0
 70
     0
 62
     7
  6
CONTINUOUS
  0
ENDTAB
  0
ENDSEC
  0
SECTION
  2
ENTITIES
  0
LINE
  8
0
 62
     0
 10
70.9581
 20
80.3381
 30
0.0
 11
71.1151
 21
80.3314
 31
0.0
  0
LINE
  8
0
 62
     0
 10
71.1151
 20
80.3314
 30
0.0
 11
71.2706
 21
80.3134
 31
0.0
  0
LINE
  8
0
 62
     0
 10
71.2706
 20
80.3134
 30
0.0
 11
71.4252
 21
80.2831
 31
0.0
  0
LINE
  8
0
 62
     0
 10
71.4252
 20
80.2831
 30
0.0
 11
71.5754
 21
80.2404
 31
0.0
  0
LINE
  8
0
 62
     0
 10
71.5754
 20
80.2404
 30
0.0
 11
71.7229
 21
80.1853
 31
0.0
  0
LINE
  8
0
 62
     0
 10
71.7229
 20
80.1853
 30
0.0
 11
71.8661
 21
80.1204
 31
0.0
  0
LINE
  8
0
 62
     0
 10
71.8661
 20
80.1204
 30
0.0
 11
72.0027
 21
80.0435
 31
0.0
  0
LINE
  8
0
 62
     0
 10
72.0027
 20
80.0435
 30
0.0
 11
72.1335
 21
79.9564
 31
0.0
  0
LINE
  8
0
 62
     0
 10
72.1335
 20
79.9564
 30
0.0
 11
72.2559
 21
79.8587
 31
0.0
  0
LINE
  8
0
 62
     0
 10
72.2559
 20
79.8587
 30
0.0
 11
72.3717
 21
79.7525
 31
0.0
  0
LINE
  8
0
 62
     0
 10
72.3717
 20
79.7525
 30
0.0
 11
72.4778
 21
79.6368
 31
0.0
  0
LINE
  8
0
 62
     0
 10
72.4778
 20
79.6368
 30
0.0
 11
72.5759
 21
79.5143
 31
0.0
  0
LINE
  8
0
 62
     0
 10
72.5759
 20
79.5143
 30
0.0
 11
72.6627
 21
79.3831
 31
0.0
  0
LINE
  8
0
 62
     0
 10
72.6627
 20
79.3831
 30
0.0
 11
72.7396
 21
79.2455
 31
0.0
  0
LINE
  8
0
 62
     0
 10
72.7396
 20
79.2455
 30
0.0
 11
72.8059
 21
79.1034
 31
0.0
  0
LINE
  8
0
 62
     0
 10
72.8059
 20
79.1034
 30
0.0
 11
72.8595
 21
78.9573
 31
0.0
  0
LINE
  8
0
 62
     0
 10
72.8595
 20
78.9573
 30
0.0
 11
72.9022
 21
78.8046
 31
0.0
  0
LINE
  8
0
 62
     0
 10
72.9022
 20
78.8046
 30
0.0
 11
72.9326
 21
78.6515
 31
0.0
  0
LINE
  8
0
 62
     0
 10
72.9326
 20
78.6515
 30
0.0
 11
72.952
 21
78.4945
 31
0.0
  0
LINE
  8
0
 62
     0
 10
72.952
 20
78.4945
 30
0.0
 11
72.9576
 21
78.3375
 31
0.0
  0
LINE
  8
0
 62
     0
 10
72.9576
 20
78.3375
 30
0.0
 11
72.9576
 21
2.29581
 31
0.0
  0
LINE
  8
0
 62
     0
 10
72.9576
 20
2.29581
 30
0.0
 11
72.952
 21
2.13872
 31
0.0
  0
LINE
  8
0
 62
     0
 10
72.952
 20
2.13872
 30
0.0
 11
72.9326
 21
1.983
 31
0.0
  0
LINE
  8
0
 62
     0
 10
72.9326
 20
1.983
 30
0.0
 11
72.9022
 21
1.82866
 31
0.0
  0
LINE
  8
0
 62
     0
 10
72.9022
 20
1.82866
 30
0.0
 11
72.8595
 21
1.67845
 31
0.0
  0
LINE
  8
0
 62
     0
 10
72.8595
 20
1.67845
 30
0.0
 11
72.8059
 21
1.531
 31
0.0
  0
LINE
  8
0
 62
     0
 10
72.8059
 20
1.531
 30
0.0
 11
72.7396
 21
1.38768
 31
0.0
  0
LINE
  8
0
 62
     0
 10
72.7396
 20
1.38768
 30
0.0
 11
72.6627
 21
1.25126
 31
0.0
  0
LINE
  8
0
 62
     0
 10
72.6627
 20
1.25126
 30
0.0
 11
72.5759
 21
1.12034
 31
0.0
  0
LINE
  8
0
 62
     0
 10
72.5759
 20
1.12034
 30
0.0
 11
72.4778
 21
0.996322
 31
0.0
  0
LINE
  8
0
 62
     0
 10
72.4778
 20
0.996322
 30
0.0
 11
72.3717
 21
0.881944
 31
0.0
  0
LINE
  8
0
 62
     0
 10
72.3717
 20
0.881944
 30
0.0
 11
72.2559
 21
0.774457
 31
0.0
  0
LINE
  8
0
 62
     0
 10
72.2559
 20
0.774457
 30
0.0
 11
72.1335
 21
0.677997
 31
0.0
  0
LINE
  8
0
 62
     0
 10
72.1335
 20
0.677997
 30
0.0
 11
72.0027
 21
0.591178
 31
0.0
  0
LINE
  8
0
 62
     0
 10
72.0027
 20
0.591178
 30
0.0
 11
71.8661
 21
0.514008
 31
0.0
  0
LINE
  8
0
 62
     0
 10
71.8661
 20
0.514008
 30
0.0
 11
71.7229
 21
0.449241
 31
0.0
  0
LINE
  8
0
 62
     0
 10
71.7229
 20
0.449241
 30
0.0
 11
71.5754
 21
0.39412
 31
0.0
  0
LINE
  8
0
 62
     0
 10
71.5754
 20
0.39412
 30
0.0
 11
71.4252
 21
0.3514
 31
0.0
  0
LINE
  8
0
 62
     0
 10
71.4252
 20
0.3514
 30
0.0
 11
71.2706
 21
0.321083
 31
0.0
  0
LINE
  8
0
 62
     0
 10
71.2706
 20
0.321083
 30
0.0
 11
71.1151
 21
0.30179
 31
0.0
  0
LINE
  8
0
 62
     0
 10
71.1151
 20
0.30179
 30
0.0
 11
70.9581
 21
0.296278
 31
0.0
  0
LINE
  8
0
 62
     0
 10
70.9581
 20
0.296278
 30
0.0
 11
2.096
 21
0.296278
 31
0.0
  0
LINE
  8
0
 62
     0
 10
2.096
 20
0.296278
 30
0.0
 11
1.9389
 21
0.30179
 31
0.0
  0
LINE
  8
0
 62
     0
 10
1.9389
 20
0.30179
 30
0.0
 11
1.7818
 21
0.321083
 31
0.0
  0
LINE
  8
0
 62
     0
 10
1.7818
 20
0.321083
 30
0.0
 11
1.62884
 21
0.3514
 31
0.0
  0
LINE
  8
0
 62
     0
 10
1.62884
 20
0.3514
 30
0.0
 11
1.47588
 21
0.39412
 31
0.0
  0
LINE
  8
0
 62
     0
 10
1.47588
 20
0.39412
 30
0.0
 11
1.32981
 21
0.449241
 31
0.0
  0
LINE
  8
0
 62
     0
 10
1.32981
 20
0.449241
 30
0.0
 11
1.18787
 21
0.514008
 31
0.0
  0
LINE
  8
0
 62
     0
 10
1.18787
 20
0.514008
 30
0.0
 11
1.05006
 21
0.591178
 31
0.0
  0
LINE
  8
0
 62
     0
 10
1.05006
 20
0.591178
 30
0.0
 11
0.919152
 21
0.677997
 31
0.0
  0
LINE
  8
0
 62
     0
 10
0.919152
 20
0.677997
 30
0.0
 11
0.796505
 21
0.774457
 31
0.0
  0
LINE
  8
0
 62
     0
 10
0.796505
 20
0.774457
 30
0.0
 11
0.680752
 21
0.881944
 31
0.0
  0
LINE
  8
0
 62
     0
 10
0.680752
 20
0.881944
 30
0.0
 11
0.574643
 21
0.996322
 31
0.0
  0
LINE
  8
0
 62
     0
 10
0.574643
 20
0.996322
 30
0.0
 11
0.4768
 21
1.12034
 31
0.0
  0
LINE
  8
0
 62
     0
 10
0.4768
 20
1.12034
 30
0.0
 11
0.389985
 21
1.25126
 31
0.0
  0
LINE
  8
0
 62
     0
 10
0.389985
 20
1.25126
 30
0.0
 11
0.312815
 21
1.38768
 31
0.0
  0
LINE
  8
0
 62
     0
 10
0.312815
 20
1.38768
 30
0.0
 11
0.248047
 21
1.531
 31
0.0
  0
LINE
  8
0
 62
     0
 10
0.248047
 20
1.531
 30
0.0
 11
0.192925
 21
1.67845
 31
0.0
  0
LINE
  8
0
 62
     0
 10
0.192925
 20
1.67845
 30
0.0
 11
0.150206
 21
1.82866
 31
0.0
  0
LINE
  8
0
 62
     0
 10
0.150206
 20
1.82866
 30
0.0
 11
0.119889
 21
1.983
 31
0.0
  0
LINE
  8
0
 62
     0
 10
0.119889
 20
1.983
 30
0.0
 11
0.101975
 21
2.13872
 31
0.0
  0
LINE
  8
0
 62
     0
 10
0.101975
 20
2.13872
 30
0.0
 11
0.0950846
 21
2.29581
 31
0.0
  0
LINE
  8
0
 62
     0
 10
0.0950846
 20
2.29581
 30
0.0
 11
0.0950846
 21
78.3375
 31
0.0
  0
LINE
  8
0
 62
     0
 10
0.0950846
 20
78.3375
 30
0.0
 11
0.101975
 21
78.4945
 31
0.0
  0
LINE
  8
0
 62
     0
 10
0.101975
 20
78.4945
 30
0.0
 11
0.119889
 21
78.6515
 31
0.0
  0
LINE
  8
0
 62
     0
 10
0.119889
 20
78.6515
 30
0.0
 11
0.150206
 21
78.8046
 31
0.0
  0
LINE
  8
0
 62
     0
 10
0.150206
 20
78.8046
 30
0.0
 11
0.192925
 21
78.9573
 31
0.0
  0
LINE
  8
0
 62
     0
 10
0.192925
 20
78.9573
 30
0.0
 11
0.248047
 21
79.1034
 31
0.0
  0
LINE
  8
0
 62
     0
 10
0.248047
 20
79.1034
 30
0.0
 11
0.312815
 21
79.2455
 31
0.0
  0
LINE
  8
0
 62
     0
 10
0.312815
 20
79.2455
 30
0.0
 11
0.389985
 21
79.3831
 31
0.0
  0
LINE
  8
0
 62
     0
 10
0.389985
 20
79.3831
 30
0.0
 11
0.4768
 21
79.5143
 31
0.0
  0
LINE
  8
0
 62
     0
 10
0.4768
 20
79.5143
 30
0.0
 11
0.574643
 21
79.6368
 31
0.0
  0
LINE
  8
0
 62
     0
 10
0.574643
 20
79.6368
 30
0.0
 11
0.680752
 21
79.7525
 31
0.0
  0
LINE
  8
0
 62
     0
 10
0.680752
 20
79.7525
 30
0.0
 11
0.796505
 21
79.8587
 31
0.0
  0
LINE
  8
0
 62
     0
 10
0.796505
 20
79.8587
 30
0.0
 11
0.919152
 21
79.9564
 31
0.0
  0
LINE
  8
0
 62
     0
 10
0.919152
 20
79.9564
 30
0.0
 11
1.05006
 21
80.0435
 31
0.0
  0
LINE
  8
0
 62
     0
 10
1.05006
 20
80.0435
 30
0.0
 11
1.18787
 21
80.1204
 31
0.0
  0
LINE
  8
0
 62
     0
 10
1.18787
 20
80.1204
 30
0.0
 11
1.32981
 21
80.1853
 31
0.0
  0
LINE
  8
0
 62
     0
 10
1.32981
 20
80.1853
 30
0.0
 11
1.47588
 21
80.2404
 31
0.0
  0
LINE
  8
0
 62
     0
 10
1.47588
 20
80.2404
 30
0.0
 11
1.62884
 21
80.2831
 31
0.0
  0
LINE
  8
0
 62
     0
 10
1.62884
 20
80.2831
 30
0.0
 11
1.7818
 21
80.3134
 31
0.0
  0
LINE
  8
0
 62
     0
 10
1.7818
 20
80.3134
 30
0.0
 11
1.9389
 21
80.3314
 31
0.0
  0
LINE
  8
0
 62
     0
 10
1.9389
 20
80.3314
 30
0.0
 11
2.096
 21
80.3381
 31
0.0
  0
LINE
  8
0
 62
     0
 10
2.096
 20
80.3381
 30
0.0
 11
70.9581
 21
80.3381
 31
0.0
  0
LINE
  8
0
 62
     0
 10
27.9701
 20
65.49
 30
0.0
 11
27.9701
 21
65.4914
 31
0.0
  0
LINE
  8
0
 62
     0
 10
27.9701
 20
65.4914
 30
0.0
 11
7.76249
 21
45.2836
 31
0.0
  0
LINE
  8
0
 62
     0
 10
7.76249
 20
45.2836
 30
0.0
 11
48.175
 21
4.87137
 31
0.0
  0
LINE
  8
0
 62
     0
 10
48.175
 20
4.87137
 30
0.0
 11
68.3824
 21
25.0775
 31
0.0
  0
LINE
  8
0
 62
     0
 10
68.3824
 20
25.0775
 30
0.0
 11
54.912
 21
38.548
 31
0.0
  0
LINE
  8
0
 62
     0
 10
54.912
 20
38.548
 30
0.0
 11
68.3824
 21
52.0181
 31
0.0
  0
LINE
  8
0
 62
     0
 10
68.3824
 20
52.0181
 30
0.0
 11
41.4405
 21
78.9601
 31
0.0
  0
LINE
  8
0
 62
     0
 10
41.4405
 20
78.9601
 30
0.0
 11
27.9701
 21
65.49
 31
0.0
  0
ENDSEC
  0
EOF
