  0
SECTION
  2
HEADER
  9
$ACADVER
  1
AC1009
  9
$FILLMODE
 70
 0
  9
$SPLFRAME
 70
 1
  9
$EXTMIN
 10
0
 20
0
 30
0.0
  9
$EXTMAX
 10
1058.33
 20
1058.33
 30
0.0
  0
ENDSEC
  0
SECTION
  2
TABLES
  0
TABLE
  2
LAYER
 70
1
  0
LAYER
  2
0
 70
     0
 62
     7
  6
CONTINUOUS
  0
ENDTAB
  0
ENDSEC
  0
SECTION
  2
ENTITIES
  0
LINE
  8
0
 62
     0
 10
70.9581
 20
80.3381
 30
0.0
 11
71.1151
 21
80.3314
 31
0.0
  0
LINE
  8
0
 62
     0
 10
71.1151
 20
80.3314
 30
0.0
 11
71.2706
 21
80.3134
 31
0.0
  0
LINE
  8
0
 62
     0
 10
71.2706
 20
80.3134
 30
0.0
 11
71.4252
 21
80.2831
 31
0.0
  0
LINE
  8
0
 62
     0
 10
71.4252
 20
80.2831
 30
0.0
 11
71.5754
 21
80.2404
 31
0.0
  0
LINE
  8
0
 62
     0
 10
71.5754
 20
80.2404
 30
0.0
 11
71.7229
 21
80.1853
 31
0.0
  0
LINE
  8
0
 62
     0
 10
71.7229
 20
80.1853
 30
0.0
 11
71.8661
 21
80.1204
 31
0.0
  0
LINE
  8
0
 62
     0
 10
71.8661
 20
80.1204
 30
0.0
 11
72.0027
 21
80.0435
 31
0.0
  0
LINE
  8
0
 62
     0
 10
72.0027
 20
80.0435
 30
0.0
 11
72.1335
 21
79.9564
 31
0.0
  0
LINE
  8
0
 62
     0
 10
72.1335
 20
79.9564
 30
0.0
 11
72.2559
 21
79.8587
 31
0.0
  0
LINE
  8
0
 62
     0
 10
72.2559
 20
79.8587
 30
0.0
 11
72.3717
 21
79.7525
 31
0.0
  0
LINE
  8
0
 62
     0
 10
72.3717
 20
79.7525
 30
0.0
 11
72.4778
 21
79.6368
 31
0.0
  0
LINE
  8
0
 62
     0
 10
72.4778
 20
79.6368
 30
0.0
 11
72.5759
 21
79.5143
 31
0.0
  0
LINE
  8
0
 62
     0
 10
72.5759
 20
79.5143
 30
0.0
 11
72.6627
 21
79.3831
 31
0.0
  0
LINE
  8
0
 62
     0
 10
72.6627
 20
79.3831
 30
0.0
 11
72.7396
 21
79.2455
 31
0.0
  0
LINE
  8
0
 62
     0
 10
72.7396
 20
79.2455
 30
0.0
 11
72.8059
 21
79.1034
 31
0.0
  0
LINE
  8
0
 62
     0
 10
72.8059
 20
79.1034
 30
0.0
 11
72.8595
 21
78.9573
 31
0.0
  0
LINE
  8
0
 62
     0
 10
72.8595
 20
78.9573
 30
0.0
 11
72.9022
 21
78.8046
 31
0.0
  0
LINE
  8
0
 62
     0
 10
72.9022
 20
78.8046
 30
0.0
 11
72.9326
 21
78.6515
 31
0.0
  0
LINE
  8
0
 62
     0
 10
72.9326
 20
78.6515
 30
0.0
 11
72.952
 21
78.4945
 31
0.0
  0
LINE
  8
0
 62
     0
 10
72.952
 20
78.4945
 30
0.0
 11
72.9576
 21
78.3375
 31
0.0
  0
LINE
  8
0
 62
     0
 10
72.9576
 20
78.3375
 30
0.0
 11
72.9576
 21
2.29581
 31
0.0
  0
LINE
  8
0
 62
     0
 10
72.9576
 20
2.29581
 30
0.0
 11
72.952
 21
2.13872
 31
0.0
  0
LINE
  8
0
 62
     0
 10
72.952
 20
2.13872
 30
0.0
 11
72.9326
 21
1.983
 31
0.0
  0
LINE
  8
0
 62
     0
 10
72.9326
 20
1.983
 30
0.0
 11
72.9022
 21
1.82866
 31
0.0
  0
LINE
  8
0
 62
     0
 10
72.9022
 20
1.82866
 30
0.0
 11
72.8595
 21
1.67845
 31
0.0
  0
LINE
  8
0
 62
     0
 10
72.8595
 20
1.67845
 30
0.0
 11
72.8059
 21
1.531
 31
0.0
  0
LINE
  8
0
 62
     0
 10
72.8059
 20
1.531
 30
0.0
 11
72.7396
 21
1.38768
 31
0.0
  0
LINE
  8
0
 62
     0
 10
72.7396
 20
1.38768
 30
0.0
 11
72.6627
 21
1.25126
 31
0.0
  0
LINE
  8
0
 62
     0
 10
72.6627
 20
1.25126
 30
0.0
 11
72.5759
 21
1.12034
 31
0.0
  0
LINE
  8
0
 62
     0
 10
72.5759
 20
1.12034
 30
0.0
 11
72.4778
 21
0.996322
 31
0.0
  0
LINE
  8
0
 62
     0
 10
72.4778
 20
0.996322
 30
0.0
 11
72.3717
 21
0.881944
 31
0.0
  0
LINE
  8
0
 62
     0
 10
72.3717
 20
0.881944
 30
0.0
 11
72.2559
 21
0.774457
 31
0.0
  0
LINE
  8
0
 62
     0
 10
72.2559
 20
0.774457
 30
0.0
 11
72.1335
 21
0.677997
 31
0.0
  0
LINE
  8
0
 62
     0
 10
72.1335
 20
0.677997
 30
0.0
 11
72.0027
 21
0.591178
 31
0.0
  0
LINE
  8
0
 62
     0
 10
72.0027
 20
0.591178
 30
0.0
 11
71.8661
 21
0.514008
 31
0.0
  0
LINE
  8
0
 62
     0
 10
71.8661
 20
0.514008
 30
0.0
 11
71.7229
 21
0.449241
 31
0.0
  0
LINE
  8
0
 62
     0
 10
71.7229
 20
0.449241
 30
0.0
 11
71.5754
 21
0.39412
 31
0.0
  0
LINE
  8
0
 62
     0
 10
71.5754
 20
0.39412
 30
0.0
 11
71.4252
 21
0.3514
 31
0.0
  0
LINE
  8
0
 62
     0
 10
71.4252
 20
0.3514
 30
0.0
 11
71.2706
 21
0.321083
 31
0.0
  0
LINE
  8
0
 62
     0
 10
71.2706
 20
0.321083
 30
0.0
 11
71.1151
 21
0.30179
 31
0.0
  0
LINE
  8
0
 62
     0
 10
71.1151
 20
0.30179
 30
0.0
 11
70.9581
 21
0.296278
 31
0.0
  0
LINE
  8
0
 62
     0
 10
70.9581
 20
0.296278
 30
0.0
 11
2.096
 21
0.296278
 31
0.0
  0
LINE
  8
0
 62
     0
 10
2.096
 20
0.296278
 30
0.0
 11
1.9389
 21
0.30179
 31
0.0
  0
LINE
  8
0
 62
     0
 10
1.9389
 20
0.30179
 30
0.0
 11
1.7818
 21
0.321083
 31
0.0
  0
LINE
  8
0
 62
     0
 10
1.7818
 20
0.321083
 30
0.0
 11
1.62884
 21
0.3514
 31
0.0
  0
LINE
  8
0
 62
     0
 10
1.62884
 20
0.3514
 30
0.0
 11
1.47588
 21
0.39412
 31
0.0
  0
LINE
  8
0
 62
     0
 10
1.47588
 20
0.39412
 30
0.0
 11
1.32981
 21
0.449241
 31
0.0
  0
LINE
  8
0
 62
     0
 10
1.32981
 20
0.449241
 30
0.0
 11
1.18787
 21
0.514008
 31
0.0
  0
LINE
  8
0
 62
     0
 10
1.18787
 20
0.514008
 30
0.0
 11
1.05006
 21
0.591178
 31
0.0
  0
LINE
  8
0
 62
     0
 10
1.05006
 20
0.591178
 30
0.0
 11
0.919152
 21
0.677997
 31
0.0
  0
LINE
  8
0
 62
     0
 10
0.919152
 20
0.677997
 30
0.0
 11
0.796505
 21
0.774457
 31
0.0
  0
LINE
  8
0
 62
     0
 10
0.796505
 20
0.774457
 30
0.0
 11
0.680752
 21
0.881944
 31
0.0
  0
LINE
  8
0
 62
     0
 10
0.680752
 20
0.881944
 30
0.0
 11
0.574643
 21
0.996322
 31
0.0
  0
LINE
  8
0
 62
     0
 10
0.574643
 20
0.996322
 30
0.0
 11
0.4768
 21
1.12034
 31
0.0
  0
LINE
  8
0
 62
     0
 10
0.4768
 20
1.12034
 30
0.0
 11
0.389985
 21
1.25126
 31
0.0
  0
LINE
  8
0
 62
     0
 10
0.389985
 20
1.25126
 30
0.0
 11
0.312815
 21
1.38768
 31
0.0
  0
LINE
  8
0
 62
     0
 10
0.312815
 20
1.38768
 30
0.0
 11
0.248047
 21
1.531
 31
0.0
  0
LINE
  8
0
 62
     0
 10
0.248047
 20
1.531
 30
0.0
 11
0.192925
 21
1.67845
 31
0.0
  0
LINE
  8
0
 62
     0
 10
0.192925
 20
1.67845
 30
0.0
 11
0.150206
 21
1.82866
 31
0.0
  0
LINE
  8
0
 62
     0
 10
0.150206
 20
1.82866
 30
0.0
 11
0.119889
 21
1.983
 31
0.0
  0
LINE
  8
0
 62
     0
 10
0.119889
 20
1.983
 30
0.0
 11
0.101975
 21
2.13872
 31
0.0
  0
LINE
  8
0
 62
     0
 10
0.101975
 20
2.13872
 30
0.0
 11
0.0950846
 21
2.29581
 31
0.0
  0
LINE
  8
0
 62
     0
 10
0.0950846
 20
2.29581
 30
0.0
 11
0.0950846
 21
78.3375
 31
0.0
  0
LINE
  8
0
 62
     0
 10
0.0950846
 20
78.3375
 30
0.0
 11
0.101975
 21
78.4945
 31
0.0
  0
LINE
  8
0
 62
     0
 10
0.101975
 20
78.4945
 30
0.0
 11
0.119889
 21
78.6515
 31
0.0
  0
LINE
  8
0
 62
     0
 10
0.119889
 20
78.6515
 30
0.0
 11
0.150206
 21
78.8046
 31
0.0
  0
LINE
  8
0
 62
     0
 10
0.150206
 20
78.8046
 30
0.0
 11
0.192925
 21
78.9573
 31
0.0
  0
LINE
  8
0
 62
     0
 10
0.192925
 20
78.9573
 30
0.0
 11
0.248047
 21
79.1034
 31
0.0
  0
LINE
  8
0
 62
     0
 10
0.248047
 20
79.1034
 30
0.0
 11
0.312815
 21
79.2455
 31
0.0
  0
LINE
  8
0
 62
     0
 10
0.312815
 20
79.2455
 30
0.0
 11
0.389985
 21
79.3831
 31
0.0
  0
LINE
  8
0
 62
     0
 10
0.389985
 20
79.3831
 30
0.0
 11
0.4768
 21
79.5143
 31
0.0
  0
LINE
  8
0
 62
     0
 10
0.4768
 20
79.5143
 30
0.0
 11
0.574643
 21
79.6368
 31
0.0
  0
LINE
  8
0
 62
     0
 10
0.574643
 20
79.6368
 30
0.0
 11
0.680752
 21
79.7525
 31
0.0
  0
LINE
  8
0
 62
     0
 10
0.680752
 20
79.7525
 30
0.0
 11
0.796505
 21
79.8587
 31
0.0
  0
LINE
  8
0
 62
     0
 10
0.796505
 20
79.8587
 30
0.0
 11
0.919152
 21
79.9564
 31
0.0
  0
LINE
  8
0
 62
     0
 10
0.919152
 20
79.9564
 30
0.0
 11
1.05006
 21
80.0435
 31
0.0
  0
LINE
  8
0
 62
     0
 10
1.05006
 20
80.0435
 30
0.0
 11
1.18787
 21
80.1204
 31
0.0
  0
LINE
  8
0
 62
     0
 10
1.18787
 20
80.1204
 30
0.0
 11
1.32981
 21
80.1853
 31
0.0
  0
LINE
  8
0
 62
     0
 10
1.32981
 20
80.1853
 30
0.0
 11
1.47588
 21
80.2404
 31
0.0
  0
LINE
  8
0
 62
     0
 10
1.47588
 20
80.2404
 30
0.0
 11
1.62884
 21
80.2831
 31
0.0
  0
LINE
  8
0
 62
     0
 10
1.62884
 20
80.2831
 30
0.0
 11
1.7818
 21
80.3134
 31
0.0
  0
LINE
  8
0
 62
     0
 10
1.7818
 20
80.3134
 30
0.0
 11
1.9389
 21
80.3314
 31
0.0
  0
LINE
  8
0
 62
     0
 10
1.9389
 20
80.3314
 30
0.0
 11
2.096
 21
80.3381
 31
0.0
  0
LINE
  8
0
 62
     0
 10
2.096
 20
80.3381
 30
0.0
 11
70.9581
 21
80.3381
 31
0.0
  0
LINE
  8
0
 62
     0
 10
41.7491
 20
21.711
 30
0.0
 11
42.4561
 21
21.0041
 31
0.0
  0
LINE
  8
0
 62
     0
 10
42.4561
 20
21.0041
 30
0.0
 11
41.891
 21
20.4377
 31
0.0
  0
LINE
  8
0
 62
     0
 10
41.891
 20
20.4377
 30
0.0
 11
43.9773
 21
18.3513
 31
0.0
  0
LINE
  8
0
 62
     0
 10
43.9773
 20
18.3513
 30
0.0
 11
44.5424
 21
18.9177
 31
0.0
  0
LINE
  8
0
 62
     0
 10
44.5424
 20
18.9177
 30
0.0
 11
48.7507
 21
14.7092
 31
0.0
  0
LINE
  8
0
 62
     0
 10
48.7507
 20
14.7092
 30
0.0
 11
48.1845
 21
14.1442
 31
0.0
  0
LINE
  8
0
 62
     0
 10
48.1845
 20
14.1442
 30
0.0
 11
50.2708
 21
12.0592
 31
0.0
  0
LINE
  8
0
 62
     0
 10
50.2708
 20
12.0592
 30
0.0
 11
50.836
 21
12.6242
 31
0.0
  0
LINE
  8
0
 62
     0
 10
50.836
 20
12.6242
 30
0.0
 11
51.544
 21
11.9173
 31
0.0
  0
LINE
  8
0
 62
     0
 10
51.544
 20
11.9173
 30
0.0
 11
61.3364
 21
21.711
 31
0.0
  0
LINE
  8
0
 62
     0
 10
61.3364
 20
21.711
 30
0.0
 11
60.6294
 21
22.4179
 31
0.0
  0
LINE
  8
0
 62
     0
 10
60.6294
 20
22.4179
 30
0.0
 11
61.196
 21
22.9829
 31
0.0
  0
LINE
  8
0
 62
     0
 10
61.196
 20
22.9829
 30
0.0
 11
59.1083
 21
25.0693
 31
0.0
  0
LINE
  8
0
 62
     0
 10
59.1083
 20
25.0693
 30
0.0
 11
58.5431
 21
24.5043
 31
0.0
  0
LINE
  8
0
 62
     0
 10
58.5431
 20
24.5043
 30
0.0
 11
54.3359
 21
28.7114
 31
0.0
  0
LINE
  8
0
 62
     0
 10
54.3359
 20
28.7114
 30
0.0
 11
54.901
 21
29.2764
 31
0.0
  0
LINE
  8
0
 62
     0
 10
54.901
 20
29.2764
 30
0.0
 11
52.8161
 21
31.3628
 31
0.0
  0
LINE
  8
0
 62
     0
 10
52.8161
 20
31.3628
 30
0.0
 11
52.251
 21
30.7964
 31
0.0
  0
LINE
  8
0
 62
     0
 10
52.251
 20
30.7964
 30
0.0
 11
51.544
 21
31.5033
 31
0.0
  0
LINE
  8
0
 62
     0
 10
51.544
 20
31.5033
 30
0.0
 11
41.7491
 21
21.711
 31
0.0
  0
LINE
  8
0
 62
     0
 10
28.2801
 20
35.1813
 30
0.0
 11
28.987
 21
34.4744
 31
0.0
  0
LINE
  8
0
 62
     0
 10
28.987
 20
34.4744
 30
0.0
 11
28.4207
 21
33.908
 31
0.0
  0
LINE
  8
0
 62
     0
 10
28.4207
 20
33.908
 30
0.0
 11
30.507
 21
31.8217
 31
0.0
  0
LINE
  8
0
 62
     0
 10
30.507
 20
31.8217
 30
0.0
 11
31.072
 21
32.388
 31
0.0
  0
LINE
  8
0
 62
     0
 10
31.072
 20
32.388
 30
0.0
 11
35.2792
 21
28.1809
 31
0.0
  0
LINE
  8
0
 62
     0
 10
35.2792
 20
28.1809
 30
0.0
 11
34.7141
 21
27.6145
 31
0.0
  0
LINE
  8
0
 62
     0
 10
34.7141
 20
27.6145
 30
0.0
 11
36.7993
 21
25.5282
 31
0.0
  0
LINE
  8
0
 62
     0
 10
36.7993
 20
25.5282
 30
0.0
 11
37.3655
 21
26.0946
 31
0.0
  0
LINE
  8
0
 62
     0
 10
37.3655
 20
26.0946
 30
0.0
 11
38.0725
 21
25.3876
 31
0.0
  0
LINE
  8
0
 62
     0
 10
38.0725
 20
25.3876
 30
0.0
 11
47.8663
 21
35.1813
 31
0.0
  0
LINE
  8
0
 62
     0
 10
47.8663
 20
35.1813
 30
0.0
 11
47.1593
 21
35.8881
 31
0.0
  0
LINE
  8
0
 62
     0
 10
47.1593
 20
35.8881
 30
0.0
 11
47.7241
 21
36.4532
 31
0.0
  0
LINE
  8
0
 62
     0
 10
47.7241
 20
36.4532
 30
0.0
 11
45.6378
 21
38.5396
 31
0.0
  0
LINE
  8
0
 62
     0
 10
45.6378
 20
38.5396
 30
0.0
 11
45.073
 21
37.9734
 31
0.0
  0
LINE
  8
0
 62
     0
 10
45.073
 20
37.9734
 30
0.0
 11
40.8658
 21
42.1802
 31
0.0
  0
LINE
  8
0
 62
     0
 10
40.8658
 20
42.1802
 30
0.0
 11
41.432
 21
42.7468
 31
0.0
  0
LINE
  8
0
 62
     0
 10
41.432
 20
42.7468
 30
0.0
 11
39.3457
 21
44.8331
 31
0.0
  0
LINE
  8
0
 62
     0
 10
39.3457
 20
44.8331
 30
0.0
 11
38.7795
 21
44.2666
 31
0.0
  0
LINE
  8
0
 62
     0
 10
38.7795
 20
44.2666
 30
0.0
 11
38.0725
 21
44.9749
 31
0.0
  0
LINE
  8
0
 62
     0
 10
38.0725
 20
44.9749
 30
0.0
 11
28.2801
 21
35.1813
 31
0.0
  0
LINE
  8
0
 62
     0
 10
14.8084
 20
48.6502
 30
0.0
 11
15.5153
 21
47.9432
 31
0.0
  0
LINE
  8
0
 62
     0
 10
15.5153
 20
47.9432
 30
0.0
 11
14.9503
 21
47.3784
 31
0.0
  0
LINE
  8
0
 62
     0
 10
14.9503
 20
47.3784
 30
0.0
 11
17.0367
 21
45.2935
 31
0.0
  0
LINE
  8
0
 62
     0
 10
17.0367
 20
45.2935
 30
0.0
 11
17.6017
 21
45.8583
 31
0.0
  0
LINE
  8
0
 62
     0
 10
17.6017
 20
45.8583
 30
0.0
 11
21.8088
 21
41.6511
 31
0.0
  0
LINE
  8
0
 62
     0
 10
21.8088
 20
41.6511
 30
0.0
 11
21.2439
 21
41.0849
 31
0.0
  0
LINE
  8
0
 62
     0
 10
21.2439
 20
41.0849
 30
0.0
 11
23.3288
 21
38.9985
 31
0.0
  0
LINE
  8
0
 62
     0
 10
23.3288
 20
38.9985
 30
0.0
 11
23.8952
 21
39.5647
 31
0.0
  0
LINE
  8
0
 62
     0
 10
23.8952
 20
39.5647
 30
0.0
 11
24.6021
 21
38.8578
 31
0.0
  0
LINE
  8
0
 62
     0
 10
24.6021
 20
38.8578
 30
0.0
 11
34.3958
 21
48.6502
 31
0.0
  0
LINE
  8
0
 62
     0
 10
34.3958
 20
48.6502
 30
0.0
 11
33.6889
 21
49.3586
 31
0.0
  0
LINE
  8
0
 62
     0
 10
33.6889
 20
49.3586
 30
0.0
 11
34.2539
 21
49.9237
 31
0.0
  0
LINE
  8
0
 62
     0
 10
34.2539
 20
49.9237
 30
0.0
 11
32.1689
 21
52.01
 31
0.0
  0
LINE
  8
0
 62
     0
 10
32.1689
 20
52.01
 30
0.0
 11
31.6025
 21
51.4449
 31
0.0
  0
LINE
  8
0
 62
     0
 10
31.6025
 20
51.4449
 30
0.0
 11
27.394
 21
55.6521
 31
0.0
  0
LINE
  8
0
 62
     0
 10
27.394
 20
55.6521
 30
0.0
 11
27.9618
 21
56.2183
 31
0.0
  0
LINE
  8
0
 62
     0
 10
27.9618
 20
56.2183
 30
0.0
 11
25.8754
 21
58.3036
 31
0.0
  0
LINE
  8
0
 62
     0
 10
25.8754
 20
58.3036
 30
0.0
 11
25.3091
 21
57.7384
 31
0.0
  0
LINE
  8
0
 62
     0
 10
25.3091
 20
57.7384
 30
0.0
 11
24.6021
 21
58.4454
 31
0.0
  0
LINE
  8
0
 62
     0
 10
24.6021
 20
58.4454
 30
0.0
 11
14.8084
 21
48.6502
 31
0.0
  0
LINE
  8
0
 62
     0
 10
37.7278
 20
69.8031
 30
0.0
 11
37.145
 21
70.3862
 31
0.0
  0
LINE
  8
0
 62
     0
 10
37.145
 20
70.3862
 30
0.0
 11
35.2709
 21
68.5119
 31
0.0
  0
LINE
  8
0
 62
     0
 10
35.2709
 20
68.5119
 30
0.0
 11
35.8553
 21
67.9291
 31
0.0
  0
LINE
  8
0
 62
     0
 10
35.8553
 20
67.9291
 30
0.0
 11
33.5704
 21
65.6442
 31
0.0
  0
LINE
  8
0
 62
     0
 10
33.5704
 20
65.6442
 30
0.0
 11
38.2379
 21
60.9783
 31
0.0
  0
LINE
  8
0
 62
     0
 10
38.2379
 20
60.9783
 30
0.0
 11
40.5211
 21
63.2615
 31
0.0
  0
LINE
  8
0
 62
     0
 10
40.5211
 20
63.2615
 30
0.0
 11
41.705
 21
62.078
 31
0.0
  0
LINE
  8
0
 62
     0
 10
41.705
 20
62.078
 30
0.0
 11
41.1759
 21
61.5474
 31
0.0
  0
LINE
  8
0
 62
     0
 10
41.1759
 20
61.5474
 30
0.0
 11
40.6093
 21
62.1122
 31
0.0
  0
LINE
  8
0
 62
     0
 10
40.6093
 20
62.1122
 30
0.0
 11
38.523
 21
60.0273
 31
0.0
  0
LINE
  8
0
 62
     0
 10
38.523
 20
60.0273
 30
0.0
 11
39.0895
 21
59.461
 31
0.0
  0
LINE
  8
0
 62
     0
 10
39.0895
 20
59.461
 30
0.0
 11
38.3826
 21
58.7541
 31
0.0
  0
LINE
  8
0
 62
     0
 10
38.3826
 20
58.7541
 30
0.0
 11
48.175
 21
48.9603
 31
0.0
  0
LINE
  8
0
 62
     0
 10
48.175
 20
48.9603
 30
0.0
 11
48.883
 21
49.6672
 31
0.0
  0
LINE
  8
0
 62
     0
 10
48.883
 20
49.6672
 30
0.0
 11
49.4482
 21
49.1024
 31
0.0
  0
LINE
  8
0
 62
     0
 10
49.4482
 20
49.1024
 30
0.0
 11
51.5345
 21
51.1874
 31
0.0
  0
LINE
  8
0
 62
     0
 10
51.5345
 20
51.1874
 30
0.0
 11
50.9683
 21
51.7536
 31
0.0
  0
LINE
  8
0
 62
     0
 10
50.9683
 20
51.7536
 30
0.0
 11
51.4999
 21
52.2841
 31
0.0
  0
LINE
  8
0
 62
     0
 10
51.4999
 20
52.2841
 30
0.0
 11
52.6838
 21
51.1006
 31
0.0
  0
LINE
  8
0
 62
     0
 10
52.6838
 20
51.1006
 30
0.0
 11
50.3989
 21
48.8156
 31
0.0
  0
LINE
  8
0
 62
     0
 10
50.3989
 20
48.8156
 30
0.0
 11
55.0665
 21
44.1484
 31
0.0
  0
LINE
  8
0
 62
     0
 10
55.0665
 20
44.1484
 30
0.0
 11
57.3497
 21
46.433
 31
0.0
  0
LINE
  8
0
 62
     0
 10
57.3497
 20
46.433
 30
0.0
 11
57.9342
 21
45.8502
 31
0.0
  0
LINE
  8
0
 62
     0
 10
57.9342
 20
45.8502
 30
0.0
 11
59.8068
 21
47.7227
 31
0.0
  0
LINE
  8
0
 62
     0
 10
59.8068
 20
47.7227
 30
0.0
 11
59.224
 21
48.3073
 31
0.0
  0
LINE
  8
0
 62
     0
 10
59.224
 20
48.3073
 30
0.0
 11
63.657
 21
52.7403
 31
0.0
  0
LINE
  8
0
 62
     0
 10
63.657
 20
52.7403
 30
0.0
 11
62.4374
 21
53.9598
 31
0.0
  0
LINE
  8
0
 62
     0
 10
62.4374
 20
53.9598
 30
0.0
 11
63.2866
 21
54.8086
 31
0.0
  0
LINE
  8
0
 62
     0
 10
63.2866
 20
54.8086
 30
0.0
 11
61.0581
 21
57.0357
 31
0.0
  0
LINE
  8
0
 62
     0
 10
61.0581
 20
57.0357
 30
0.0
 11
60.2093
 21
56.1869
 31
0.0
  0
LINE
  8
0
 62
     0
 10
60.2093
 20
56.1869
 30
0.0
 11
58.9911
 21
57.4065
 31
0.0
  0
LINE
  8
0
 62
     0
 10
58.9911
 20
57.4065
 30
0.0
 11
55.8299
 21
54.2466
 31
0.0
  0
LINE
  8
0
 62
     0
 10
55.8299
 20
54.2466
 30
0.0
 11
54.646
 21
55.4302
 31
0.0
  0
LINE
  8
0
 62
     0
 10
54.646
 20
55.4302
 30
0.0
 11
55.1751
 21
55.9608
 31
0.0
  0
LINE
  8
0
 62
     0
 10
55.1751
 20
55.9608
 30
0.0
 11
55.7417
 21
55.3956
 31
0.0
  0
LINE
  8
0
 62
     0
 10
55.7417
 20
55.3956
 30
0.0
 11
57.828
 21
57.4809
 31
0.0
  0
LINE
  8
0
 62
     0
 10
57.828
 20
57.4809
 30
0.0
 11
57.2615
 21
58.0471
 31
0.0
  0
LINE
  8
0
 62
     0
 10
57.2615
 20
58.0471
 30
0.0
 11
57.9684
 21
58.7541
 31
0.0
  0
LINE
  8
0
 62
     0
 10
57.9684
 20
58.7541
 30
0.0
 11
48.175
 21
68.5479
 31
0.0
  0
LINE
  8
0
 62
     0
 10
48.175
 20
68.5479
 30
0.0
 11
47.468
 21
67.8409
 31
0.0
  0
LINE
  8
0
 62
     0
 10
47.468
 20
67.8409
 30
0.0
 11
46.9029
 21
68.4057
 31
0.0
  0
LINE
  8
0
 62
     0
 10
46.9029
 20
68.4057
 30
0.0
 11
44.8165
 21
66.3194
 31
0.0
  0
LINE
  8
0
 62
     0
 10
44.8165
 20
66.3194
 30
0.0
 11
45.3831
 21
65.7546
 31
0.0
  0
LINE
  8
0
 62
     0
 10
45.3831
 20
65.7546
 30
0.0
 11
44.8525
 21
65.224
 31
0.0
  0
LINE
  8
0
 62
     0
 10
44.8525
 20
65.224
 30
0.0
 11
43.6672
 21
66.409
 31
0.0
  0
LINE
  8
0
 62
     0
 10
43.6672
 20
66.409
 30
0.0
 11
46.8284
 21
69.5688
 31
0.0
  0
LINE
  8
0
 62
     0
 10
46.8284
 20
69.5688
 30
0.0
 11
45.6089
 21
70.7884
 31
0.0
  0
LINE
  8
0
 62
     0
 10
45.6089
 20
70.7884
 30
0.0
 11
46.4577
 21
71.6372
 31
0.0
  0
LINE
  8
0
 62
     0
 10
46.4577
 20
71.6372
 30
0.0
 11
44.2295
 21
73.8643
 31
0.0
  0
LINE
  8
0
 62
     0
 10
44.2295
 20
73.8643
 30
0.0
 11
43.3821
 21
73.0169
 31
0.0
  0
LINE
  8
0
 62
     0
 10
43.3821
 20
73.0169
 30
0.0
 11
42.1612
 21
74.2364
 31
0.0
  0
LINE
  8
0
 62
     0
 10
42.1612
 20
74.2364
 30
0.0
 11
37.7278
 21
69.8031
 31
0.0
  0
ENDSEC
  0
EOF
