  0
SECTION
  2
HEADER
  9
$ACADVER
  1
AC1009
  9
$FILLMODE
 70
 0
  9
$SPLFRAME
 70
 1
  9
$EXTMIN
 10
0
 20
0
 30
0.0
  9
$EXTMAX
 10
1058.33
 20
1058.33
 30
0.0
  0
ENDSEC
  0
SECTION
  2
TABLES
  0
TABLE
  2
LAYER
 70
1
  0
LAYER
  2
0
 70
     0
 62
     7
  6
CONTINUOUS
  0
ENDTAB
  0
ENDSEC
  0
SECTION
  2
ENTITIES
  0
LINE
  8
0
 62
     0
 10
155.148
 20
157.596
 30
0.0
 11
155.305
 21
157.59
 31
0.0
  0
LINE
  8
0
 62
     0
 10
155.305
 20
157.59
 30
0.0
 11
155.461
 21
157.572
 31
0.0
  0
LINE
  8
0
 62
     0
 10
155.461
 20
157.572
 30
0.0
 11
155.615
 21
157.541
 31
0.0
  0
LINE
  8
0
 62
     0
 10
155.615
 20
157.541
 30
0.0
 11
155.765
 21
157.499
 31
0.0
  0
LINE
  8
0
 62
     0
 10
155.765
 20
157.499
 30
0.0
 11
155.913
 21
157.444
 31
0.0
  0
LINE
  8
0
 62
     0
 10
155.913
 20
157.444
 30
0.0
 11
156.056
 21
157.379
 31
0.0
  0
LINE
  8
0
 62
     0
 10
156.056
 20
157.379
 30
0.0
 11
156.192
 21
157.302
 31
0.0
  0
LINE
  8
0
 62
     0
 10
156.192
 20
157.302
 30
0.0
 11
156.322
 21
157.215
 31
0.0
  0
LINE
  8
0
 62
     0
 10
156.322
 20
157.215
 30
0.0
 11
156.446
 21
157.117
 31
0.0
  0
LINE
  8
0
 62
     0
 10
156.446
 20
157.117
 30
0.0
 11
156.562
 21
157.011
 31
0.0
  0
LINE
  8
0
 62
     0
 10
156.562
 20
157.011
 30
0.0
 11
156.669
 21
156.895
 31
0.0
  0
LINE
  8
0
 62
     0
 10
156.669
 20
156.895
 30
0.0
 11
156.766
 21
156.773
 31
0.0
  0
LINE
  8
0
 62
     0
 10
156.766
 20
156.773
 30
0.0
 11
156.852
 21
156.641
 31
0.0
  0
LINE
  8
0
 62
     0
 10
156.852
 20
156.641
 30
0.0
 11
156.93
 21
156.504
 31
0.0
  0
LINE
  8
0
 62
     0
 10
156.93
 20
156.504
 30
0.0
 11
156.996
 21
156.362
 31
0.0
  0
LINE
  8
0
 62
     0
 10
156.996
 20
156.362
 30
0.0
 11
157.05
 21
156.216
 31
0.0
  0
LINE
  8
0
 62
     0
 10
157.05
 20
156.216
 30
0.0
 11
157.092
 21
156.063
 31
0.0
  0
LINE
  8
0
 62
     0
 10
157.092
 20
156.063
 30
0.0
 11
157.123
 21
155.91
 31
0.0
  0
LINE
  8
0
 62
     0
 10
157.123
 20
155.91
 30
0.0
 11
157.142
 21
155.753
 31
0.0
  0
LINE
  8
0
 62
     0
 10
157.142
 20
155.753
 30
0.0
 11
157.147
 21
155.596
 31
0.0
  0
LINE
  8
0
 62
     0
 10
157.147
 20
155.596
 30
0.0
 11
157.147
 21
2.10013
 31
0.0
  0
LINE
  8
0
 62
     0
 10
157.147
 20
2.10013
 30
0.0
 11
157.142
 21
1.94303
 31
0.0
  0
LINE
  8
0
 62
     0
 10
157.142
 20
1.94303
 30
0.0
 11
157.123
 21
1.78732
 31
0.0
  0
LINE
  8
0
 62
     0
 10
157.123
 20
1.78732
 30
0.0
 11
157.092
 21
1.63298
 31
0.0
  0
LINE
  8
0
 62
     0
 10
157.092
 20
1.63298
 30
0.0
 11
157.05
 21
1.48277
 31
0.0
  0
LINE
  8
0
 62
     0
 10
157.05
 20
1.48277
 30
0.0
 11
156.996
 21
1.33394
 31
0.0
  0
LINE
  8
0
 62
     0
 10
156.996
 20
1.33394
 30
0.0
 11
156.93
 21
1.192
 31
0.0
  0
LINE
  8
0
 62
     0
 10
156.93
 20
1.192
 30
0.0
 11
156.852
 21
1.05558
 31
0.0
  0
LINE
  8
0
 62
     0
 10
156.852
 20
1.05558
 30
0.0
 11
156.766
 21
0.924662
 31
0.0
  0
LINE
  8
0
 62
     0
 10
156.766
 20
0.924662
 30
0.0
 11
156.669
 21
0.80064
 31
0.0
  0
LINE
  8
0
 62
     0
 10
156.669
 20
0.80064
 30
0.0
 11
156.562
 21
0.684886
 31
0.0
  0
LINE
  8
0
 62
     0
 10
156.562
 20
0.684886
 30
0.0
 11
156.446
 21
0.578778
 31
0.0
  0
LINE
  8
0
 62
     0
 10
156.446
 20
0.578778
 30
0.0
 11
156.322
 21
0.482314
 31
0.0
  0
LINE
  8
0
 62
     0
 10
156.322
 20
0.482314
 30
0.0
 11
156.192
 21
0.39412
 31
0.0
  0
LINE
  8
0
 62
     0
 10
156.192
 20
0.39412
 30
0.0
 11
156.056
 21
0.318327
 31
0.0
  0
LINE
  8
0
 62
     0
 10
156.056
 20
0.318327
 30
0.0
 11
155.913
 21
0.252181
 31
0.0
  0
LINE
  8
0
 62
     0
 10
155.913
 20
0.252181
 30
0.0
 11
155.765
 21
0.19706
 31
0.0
  0
LINE
  8
0
 62
     0
 10
155.765
 20
0.19706
 30
0.0
 11
155.615
 21
0.155718
 31
0.0
  0
LINE
  8
0
 62
     0
 10
155.615
 20
0.155718
 30
0.0
 11
155.461
 21
0.124024
 31
0.0
  0
LINE
  8
0
 62
     0
 10
155.461
 20
0.124024
 30
0.0
 11
155.305
 21
0.106109
 31
0.0
  0
LINE
  8
0
 62
     0
 10
155.305
 20
0.106109
 30
0.0
 11
155.148
 21
0.100597
 31
0.0
  0
LINE
  8
0
 62
     0
 10
155.148
 20
0.100597
 30
0.0
 11
2.096
 21
0.100597
 31
0.0
  0
LINE
  8
0
 62
     0
 10
2.096
 20
0.100597
 30
0.0
 11
1.9389
 21
0.106109
 31
0.0
  0
LINE
  8
0
 62
     0
 10
1.9389
 20
0.106109
 30
0.0
 11
1.7818
 21
0.124024
 31
0.0
  0
LINE
  8
0
 62
     0
 10
1.7818
 20
0.124024
 30
0.0
 11
1.62884
 21
0.155718
 31
0.0
  0
LINE
  8
0
 62
     0
 10
1.62884
 20
0.155718
 30
0.0
 11
1.47588
 21
0.19706
 31
0.0
  0
LINE
  8
0
 62
     0
 10
1.47588
 20
0.19706
 30
0.0
 11
1.32981
 21
0.252181
 31
0.0
  0
LINE
  8
0
 62
     0
 10
1.32981
 20
0.252181
 30
0.0
 11
1.18787
 21
0.318327
 31
0.0
  0
LINE
  8
0
 62
     0
 10
1.18787
 20
0.318327
 30
0.0
 11
1.05006
 21
0.39412
 31
0.0
  0
LINE
  8
0
 62
     0
 10
1.05006
 20
0.39412
 30
0.0
 11
0.919152
 21
0.482314
 31
0.0
  0
LINE
  8
0
 62
     0
 10
0.919152
 20
0.482314
 30
0.0
 11
0.796505
 21
0.578778
 31
0.0
  0
LINE
  8
0
 62
     0
 10
0.796505
 20
0.578778
 30
0.0
 11
0.680752
 21
0.684886
 31
0.0
  0
LINE
  8
0
 62
     0
 10
0.680752
 20
0.684886
 30
0.0
 11
0.574643
 21
0.80064
 31
0.0
  0
LINE
  8
0
 62
     0
 10
0.574643
 20
0.80064
 30
0.0
 11
0.4768
 21
0.924662
 31
0.0
  0
LINE
  8
0
 62
     0
 10
0.4768
 20
0.924662
 30
0.0
 11
0.389985
 21
1.05558
 31
0.0
  0
LINE
  8
0
 62
     0
 10
0.389985
 20
1.05558
 30
0.0
 11
0.312815
 21
1.192
 31
0.0
  0
LINE
  8
0
 62
     0
 10
0.312815
 20
1.192
 30
0.0
 11
0.248047
 21
1.33394
 31
0.0
  0
LINE
  8
0
 62
     0
 10
0.248047
 20
1.33394
 30
0.0
 11
0.192925
 21
1.48277
 31
0.0
  0
LINE
  8
0
 62
     0
 10
0.192925
 20
1.48277
 30
0.0
 11
0.150206
 21
1.63298
 31
0.0
  0
LINE
  8
0
 62
     0
 10
0.150206
 20
1.63298
 30
0.0
 11
0.119889
 21
1.78732
 31
0.0
  0
LINE
  8
0
 62
     0
 10
0.119889
 20
1.78732
 30
0.0
 11
0.101975
 21
1.94303
 31
0.0
  0
LINE
  8
0
 62
     0
 10
0.101975
 20
1.94303
 30
0.0
 11
0.0950846
 21
2.10013
 31
0.0
  0
LINE
  8
0
 62
     0
 10
0.0950846
 20
2.10013
 30
0.0
 11
0.0950846
 21
155.596
 31
0.0
  0
LINE
  8
0
 62
     0
 10
0.0950846
 20
155.596
 30
0.0
 11
0.101975
 21
155.753
 31
0.0
  0
LINE
  8
0
 62
     0
 10
0.101975
 20
155.753
 30
0.0
 11
0.119889
 21
155.91
 31
0.0
  0
LINE
  8
0
 62
     0
 10
0.119889
 20
155.91
 30
0.0
 11
0.150206
 21
156.063
 31
0.0
  0
LINE
  8
0
 62
     0
 10
0.150206
 20
156.063
 30
0.0
 11
0.192925
 21
156.216
 31
0.0
  0
LINE
  8
0
 62
     0
 10
0.192925
 20
156.216
 30
0.0
 11
0.248047
 21
156.362
 31
0.0
  0
LINE
  8
0
 62
     0
 10
0.248047
 20
156.362
 30
0.0
 11
0.312815
 21
156.504
 31
0.0
  0
LINE
  8
0
 62
     0
 10
0.312815
 20
156.504
 30
0.0
 11
0.389985
 21
156.641
 31
0.0
  0
LINE
  8
0
 62
     0
 10
0.389985
 20
156.641
 30
0.0
 11
0.4768
 21
156.773
 31
0.0
  0
LINE
  8
0
 62
     0
 10
0.4768
 20
156.773
 30
0.0
 11
0.574643
 21
156.895
 31
0.0
  0
LINE
  8
0
 62
     0
 10
0.574643
 20
156.895
 30
0.0
 11
0.680752
 21
157.011
 31
0.0
  0
LINE
  8
0
 62
     0
 10
0.680752
 20
157.011
 30
0.0
 11
0.796505
 21
157.117
 31
0.0
  0
LINE
  8
0
 62
     0
 10
0.796505
 20
157.117
 30
0.0
 11
0.919152
 21
157.215
 31
0.0
  0
LINE
  8
0
 62
     0
 10
0.919152
 20
157.215
 30
0.0
 11
1.05006
 21
157.302
 31
0.0
  0
LINE
  8
0
 62
     0
 10
1.05006
 20
157.302
 30
0.0
 11
1.18787
 21
157.379
 31
0.0
  0
LINE
  8
0
 62
     0
 10
1.18787
 20
157.379
 30
0.0
 11
1.32981
 21
157.444
 31
0.0
  0
LINE
  8
0
 62
     0
 10
1.32981
 20
157.444
 30
0.0
 11
1.47588
 21
157.499
 31
0.0
  0
LINE
  8
0
 62
     0
 10
1.47588
 20
157.499
 30
0.0
 11
1.62884
 21
157.541
 31
0.0
  0
LINE
  8
0
 62
     0
 10
1.62884
 20
157.541
 30
0.0
 11
1.7818
 21
157.572
 31
0.0
  0
LINE
  8
0
 62
     0
 10
1.7818
 20
157.572
 30
0.0
 11
1.9389
 21
157.59
 31
0.0
  0
LINE
  8
0
 62
     0
 10
1.9389
 20
157.59
 30
0.0
 11
2.096
 21
157.596
 31
0.0
  0
LINE
  8
0
 62
     0
 10
2.096
 20
157.596
 30
0.0
 11
155.148
 21
157.596
 31
0.0
  0
LINE
  8
0
 62
     0
 10
125.939
 20
21.5139
 30
0.0
 11
126.646
 21
20.807
 31
0.0
  0
LINE
  8
0
 62
     0
 10
126.646
 20
20.807
 30
0.0
 11
126.081
 21
20.2406
 31
0.0
  0
LINE
  8
0
 62
     0
 10
126.081
 20
20.2406
 30
0.0
 11
128.166
 21
18.1556
 31
0.0
  0
LINE
  8
0
 62
     0
 10
128.166
 20
18.1556
 30
0.0
 11
128.732
 21
18.7206
 31
0.0
  0
LINE
  8
0
 62
     0
 10
128.732
 20
18.7206
 30
0.0
 11
132.939
 21
14.5135
 31
0.0
  0
LINE
  8
0
 62
     0
 10
132.939
 20
14.5135
 30
0.0
 11
132.374
 21
13.9485
 31
0.0
  0
LINE
  8
0
 62
     0
 10
132.374
 20
13.9485
 30
0.0
 11
134.461
 21
11.8622
 31
0.0
  0
LINE
  8
0
 62
     0
 10
134.461
 20
11.8622
 30
0.0
 11
135.026
 21
12.4285
 31
0.0
  0
LINE
  8
0
 62
     0
 10
135.026
 20
12.4285
 30
0.0
 11
135.733
 21
11.7216
 31
0.0
  0
LINE
  8
0
 62
     0
 10
135.733
 20
11.7216
 30
0.0
 11
145.526
 21
21.5139
 31
0.0
  0
LINE
  8
0
 62
     0
 10
145.526
 20
21.5139
 30
0.0
 11
144.82
 21
22.2209
 31
0.0
  0
LINE
  8
0
 62
     0
 10
144.82
 20
22.2209
 30
0.0
 11
145.384
 21
22.7873
 31
0.0
  0
LINE
  8
0
 62
     0
 10
145.384
 20
22.7873
 30
0.0
 11
143.299
 21
24.8736
 31
0.0
  0
LINE
  8
0
 62
     0
 10
143.299
 20
24.8736
 30
0.0
 11
142.733
 21
24.3072
 31
0.0
  0
LINE
  8
0
 62
     0
 10
142.733
 20
24.3072
 30
0.0
 11
138.526
 21
28.5144
 31
0.0
  0
LINE
  8
0
 62
     0
 10
138.526
 20
28.5144
 30
0.0
 11
139.091
 21
29.0807
 31
0.0
  0
LINE
  8
0
 62
     0
 10
139.091
 20
29.0807
 30
0.0
 11
137.006
 21
31.1657
 31
0.0
  0
LINE
  8
0
 62
     0
 10
137.006
 20
31.1657
 30
0.0
 11
136.441
 21
30.6007
 31
0.0
  0
LINE
  8
0
 62
     0
 10
136.441
 20
30.6007
 30
0.0
 11
135.733
 21
31.3077
 31
0.0
  0
LINE
  8
0
 62
     0
 10
135.733
 20
31.3077
 30
0.0
 11
125.939
 21
21.5139
 31
0.0
  0
LINE
  8
0
 62
     0
 10
112.47
 20
34.9843
 30
0.0
 11
113.177
 21
34.2787
 31
0.0
  0
LINE
  8
0
 62
     0
 10
113.177
 20
34.2787
 30
0.0
 11
112.611
 21
33.7137
 31
0.0
  0
LINE
  8
0
 62
     0
 10
112.611
 20
33.7137
 30
0.0
 11
114.697
 21
31.626
 31
0.0
  0
LINE
  8
0
 62
     0
 10
114.697
 20
31.626
 30
0.0
 11
115.262
 21
32.191
 31
0.0
  0
LINE
  8
0
 62
     0
 10
115.262
 20
32.191
 30
0.0
 11
119.469
 21
27.9838
 31
0.0
  0
LINE
  8
0
 62
     0
 10
119.469
 20
27.9838
 30
0.0
 11
118.904
 21
27.4188
 31
0.0
  0
LINE
  8
0
 62
     0
 10
118.904
 20
27.4188
 30
0.0
 11
120.989
 21
25.3325
 31
0.0
  0
LINE
  8
0
 62
     0
 10
120.989
 20
25.3325
 30
0.0
 11
121.555
 21
25.8989
 31
0.0
  0
LINE
  8
0
 62
     0
 10
121.555
 20
25.8989
 30
0.0
 11
122.262
 21
25.1906
 31
0.0
  0
LINE
  8
0
 62
     0
 10
122.262
 20
25.1906
 30
0.0
 11
132.056
 21
34.9843
 31
0.0
  0
LINE
  8
0
 62
     0
 10
132.056
 20
34.9843
 30
0.0
 11
131.349
 21
35.6912
 31
0.0
  0
LINE
  8
0
 62
     0
 10
131.349
 20
35.6912
 30
0.0
 11
131.914
 21
36.2574
 31
0.0
  0
LINE
  8
0
 62
     0
 10
131.914
 20
36.2574
 30
0.0
 11
129.829
 21
38.3427
 31
0.0
  0
LINE
  8
0
 62
     0
 10
129.829
 20
38.3427
 30
0.0
 11
129.263
 21
37.7776
 31
0.0
  0
LINE
  8
0
 62
     0
 10
129.263
 20
37.7776
 30
0.0
 11
125.055
 21
41.9848
 31
0.0
  0
LINE
  8
0
 62
     0
 10
125.055
 20
41.9848
 30
0.0
 11
125.622
 21
42.5496
 31
0.0
  0
LINE
  8
0
 62
     0
 10
125.622
 20
42.5496
 30
0.0
 11
123.536
 21
44.6359
 31
0.0
  0
LINE
  8
0
 62
     0
 10
123.536
 20
44.6359
 30
0.0
 11
122.969
 21
44.0711
 31
0.0
  0
LINE
  8
0
 62
     0
 10
122.969
 20
44.0711
 30
0.0
 11
122.262
 21
44.7781
 31
0.0
  0
LINE
  8
0
 62
     0
 10
122.262
 20
44.7781
 30
0.0
 11
112.47
 21
34.9843
 31
0.0
  0
LINE
  8
0
 62
     0
 10
98.9983
 20
48.4547
 30
0.0
 11
99.7052
 21
47.7478
 31
0.0
  0
LINE
  8
0
 62
     0
 10
99.7052
 20
47.7478
 30
0.0
 11
99.1401
 21
47.1826
 31
0.0
  0
LINE
  8
0
 62
     0
 10
99.1401
 20
47.1826
 30
0.0
 11
101.226
 21
45.0963
 31
0.0
  0
LINE
  8
0
 62
     0
 10
101.226
 20
45.0963
 30
0.0
 11
101.792
 21
45.6629
 31
0.0
  0
LINE
  8
0
 62
     0
 10
101.792
 20
45.6629
 30
0.0
 11
106
 21
41.4542
 31
0.0
  0
LINE
  8
0
 62
     0
 10
106
 20
41.4542
 30
0.0
 11
105.434
 21
40.8891
 31
0.0
  0
LINE
  8
0
 62
     0
 10
105.434
 20
40.8891
 30
0.0
 11
107.52
 21
38.8027
 31
0.0
  0
LINE
  8
0
 62
     0
 10
107.52
 20
38.8027
 30
0.0
 11
108.085
 21
39.3679
 31
0.0
  0
LINE
  8
0
 62
     0
 10
108.085
 20
39.3679
 30
0.0
 11
108.792
 21
38.6609
 31
0.0
  0
LINE
  8
0
 62
     0
 10
108.792
 20
38.6609
 30
0.0
 11
118.586
 21
48.4547
 31
0.0
  0
LINE
  8
0
 62
     0
 10
118.586
 20
48.4547
 30
0.0
 11
117.879
 21
49.1613
 31
0.0
  0
LINE
  8
0
 62
     0
 10
117.879
 20
49.1613
 30
0.0
 11
118.445
 21
49.7279
 31
0.0
  0
LINE
  8
0
 62
     0
 10
118.445
 20
49.7279
 30
0.0
 11
116.359
 21
51.8142
 31
0.0
  0
LINE
  8
0
 62
     0
 10
116.359
 20
51.8142
 30
0.0
 11
115.792
 21
51.248
 31
0.0
  0
LINE
  8
0
 62
     0
 10
115.792
 20
51.248
 30
0.0
 11
111.585
 21
55.4549
 31
0.0
  0
LINE
  8
0
 62
     0
 10
111.585
 20
55.4549
 30
0.0
 11
112.15
 21
56.0215
 31
0.0
  0
LINE
  8
0
 62
     0
 10
112.15
 20
56.0215
 30
0.0
 11
110.065
 21
58.1078
 31
0.0
  0
LINE
  8
0
 62
     0
 10
110.065
 20
58.1078
 30
0.0
 11
109.499
 21
57.5412
 31
0.0
  0
LINE
  8
0
 62
     0
 10
109.499
 20
57.5412
 30
0.0
 11
108.792
 21
58.2482
 31
0.0
  0
LINE
  8
0
 62
     0
 10
108.792
 20
58.2482
 30
0.0
 11
98.9983
 21
48.4547
 31
0.0
  0
LINE
  8
0
 62
     0
 10
121.918
 20
69.6062
 30
0.0
 11
121.335
 21
70.189
 31
0.0
  0
LINE
  8
0
 62
     0
 10
121.335
 20
70.189
 30
0.0
 11
119.461
 21
68.3161
 31
0.0
  0
LINE
  8
0
 62
     0
 10
119.461
 20
68.3161
 30
0.0
 11
120.045
 21
67.7319
 31
0.0
  0
LINE
  8
0
 62
     0
 10
120.045
 20
67.7319
 30
0.0
 11
117.76
 21
65.4484
 31
0.0
  0
LINE
  8
0
 62
     0
 10
117.76
 20
65.4484
 30
0.0
 11
118.98
 21
64.2288
 31
0.0
  0
LINE
  8
0
 62
     0
 10
118.98
 20
64.2288
 30
0.0
 11
118.329
 21
63.5787
 31
0.0
  0
LINE
  8
0
 62
     0
 10
118.329
 20
63.5787
 30
0.0
 11
120.556
 21
61.3516
 31
0.0
  0
LINE
  8
0
 62
     0
 10
120.556
 20
61.3516
 30
0.0
 11
121.208
 21
62.0007
 31
0.0
  0
LINE
  8
0
 62
     0
 10
121.208
 20
62.0007
 30
0.0
 11
122.426
 21
60.7811
 31
0.0
  0
LINE
  8
0
 62
     0
 10
122.426
 20
60.7811
 30
0.0
 11
124.711
 21
63.0647
 31
0.0
  0
LINE
  8
0
 62
     0
 10
124.711
 20
63.0647
 30
0.0
 11
125.895
 21
61.8808
 31
0.0
  0
LINE
  8
0
 62
     0
 10
125.895
 20
61.8808
 30
0.0
 11
125.366
 21
61.3516
 31
0.0
  0
LINE
  8
0
 62
     0
 10
125.366
 20
61.3516
 30
0.0
 11
124.799
 21
61.9167
 31
0.0
  0
LINE
  8
0
 62
     0
 10
124.799
 20
61.9167
 30
0.0
 11
122.713
 21
59.8304
 31
0.0
  0
LINE
  8
0
 62
     0
 10
122.713
 20
59.8304
 30
0.0
 11
123.279
 21
59.2653
 31
0.0
  0
LINE
  8
0
 62
     0
 10
123.279
 20
59.2653
 30
0.0
 11
122.571
 21
58.5583
 31
0.0
  0
LINE
  8
0
 62
     0
 10
122.571
 20
58.5583
 30
0.0
 11
132.366
 21
48.7645
 31
0.0
  0
LINE
  8
0
 62
     0
 10
132.366
 20
48.7645
 30
0.0
 11
133.073
 21
49.4714
 31
0.0
  0
LINE
  8
0
 62
     0
 10
133.073
 20
49.4714
 30
0.0
 11
133.638
 21
48.9066
 31
0.0
  0
LINE
  8
0
 62
     0
 10
133.638
 20
48.9066
 30
0.0
 11
135.724
 21
50.9916
 31
0.0
  0
LINE
  8
0
 62
     0
 10
135.724
 20
50.9916
 30
0.0
 11
135.158
 21
51.5567
 31
0.0
  0
LINE
  8
0
 62
     0
 10
135.158
 20
51.5567
 30
0.0
 11
135.689
 21
52.0869
 31
0.0
  0
LINE
  8
0
 62
     0
 10
135.689
 20
52.0869
 30
0.0
 11
136.874
 21
50.9034
 31
0.0
  0
LINE
  8
0
 62
     0
 10
136.874
 20
50.9034
 30
0.0
 11
134.589
 21
48.6184
 31
0.0
  0
LINE
  8
0
 62
     0
 10
134.589
 20
48.6184
 30
0.0
 11
135.809
 21
47.3989
 31
0.0
  0
LINE
  8
0
 62
     0
 10
135.809
 20
47.3989
 30
0.0
 11
135.158
 21
46.7487
 31
0.0
  0
LINE
  8
0
 62
     0
 10
135.158
 20
46.7487
 30
0.0
 11
137.385
 21
44.5216
 31
0.0
  0
LINE
  8
0
 62
     0
 10
137.385
 20
44.5216
 30
0.0
 11
138.037
 21
45.1721
 31
0.0
  0
LINE
  8
0
 62
     0
 10
138.037
 20
45.1721
 30
0.0
 11
139.256
 21
43.9526
 31
0.0
  0
LINE
  8
0
 62
     0
 10
139.256
 20
43.9526
 30
0.0
 11
141.541
 21
46.2361
 31
0.0
  0
LINE
  8
0
 62
     0
 10
141.541
 20
46.2361
 30
0.0
 11
142.124
 21
45.653
 31
0.0
  0
LINE
  8
0
 62
     0
 10
142.124
 20
45.653
 30
0.0
 11
143.998
 21
47.5273
 31
0.0
  0
LINE
  8
0
 62
     0
 10
143.998
 20
47.5273
 30
0.0
 11
143.414
 21
48.1101
 31
0.0
  0
LINE
  8
0
 62
     0
 10
143.414
 20
48.1101
 30
0.0
 11
147.847
 21
52.5445
 31
0.0
  0
LINE
  8
0
 62
     0
 10
147.847
 20
52.5445
 30
0.0
 11
146.627
 21
53.7626
 31
0.0
  0
LINE
  8
0
 62
     0
 10
146.627
 20
53.7626
 30
0.0
 11
147.321
 21
54.4558
 31
0.0
  0
LINE
  8
0
 62
     0
 10
147.321
 20
54.4558
 30
0.0
 11
145.094
 21
56.6843
 31
0.0
  0
LINE
  8
0
 62
     0
 10
145.094
 20
56.6843
 30
0.0
 11
144.4
 21
55.9911
 31
0.0
  0
LINE
  8
0
 62
     0
 10
144.4
 20
55.9911
 30
0.0
 11
143.181
 21
57.2107
 31
0.0
  0
LINE
  8
0
 62
     0
 10
143.181
 20
57.2107
 30
0.0
 11
140.02
 21
54.0508
 31
0.0
  0
LINE
  8
0
 62
     0
 10
140.02
 20
54.0508
 30
0.0
 11
138.836
 21
55.2344
 31
0.0
  0
LINE
  8
0
 62
     0
 10
138.836
 20
55.2344
 30
0.0
 11
139.365
 21
55.7636
 31
0.0
  0
LINE
  8
0
 62
     0
 10
139.365
 20
55.7636
 30
0.0
 11
139.931
 21
55.1988
 31
0.0
  0
LINE
  8
0
 62
     0
 10
139.931
 20
55.1988
 30
0.0
 11
142.018
 21
57.2851
 31
0.0
  0
LINE
  8
0
 62
     0
 10
142.018
 20
57.2851
 30
0.0
 11
141.452
 21
57.8499
 31
0.0
  0
LINE
  8
0
 62
     0
 10
141.452
 20
57.8499
 30
0.0
 11
142.159
 21
58.5583
 31
0.0
  0
LINE
  8
0
 62
     0
 10
142.159
 20
58.5583
 30
0.0
 11
132.366
 21
68.3507
 31
0.0
  0
LINE
  8
0
 62
     0
 10
132.366
 20
68.3507
 30
0.0
 11
131.659
 21
67.6437
 31
0.0
  0
LINE
  8
0
 62
     0
 10
131.659
 20
67.6437
 30
0.0
 11
131.093
 21
68.2103
 31
0.0
  0
LINE
  8
0
 62
     0
 10
131.093
 20
68.2103
 30
0.0
 11
129.007
 21
66.124
 31
0.0
  0
LINE
  8
0
 62
     0
 10
129.007
 20
66.124
 30
0.0
 11
129.573
 21
65.5588
 31
0.0
  0
LINE
  8
0
 62
     0
 10
129.573
 20
65.5588
 30
0.0
 11
129.042
 21
65.0268
 31
0.0
  0
LINE
  8
0
 62
     0
 10
129.042
 20
65.0268
 30
0.0
 11
127.857
 21
66.2122
 31
0.0
  0
LINE
  8
0
 62
     0
 10
127.857
 20
66.2122
 30
0.0
 11
131.018
 21
69.373
 31
0.0
  0
LINE
  8
0
 62
     0
 10
131.018
 20
69.373
 30
0.0
 11
129.799
 21
70.5926
 31
0.0
  0
LINE
  8
0
 62
     0
 10
129.799
 20
70.5926
 30
0.0
 11
130.492
 21
71.2844
 31
0.0
  0
LINE
  8
0
 62
     0
 10
130.492
 20
71.2844
 30
0.0
 11
128.265
 21
73.5129
 31
0.0
  0
LINE
  8
0
 62
     0
 10
128.265
 20
73.5129
 30
0.0
 11
127.572
 21
72.8197
 31
0.0
  0
LINE
  8
0
 62
     0
 10
127.572
 20
72.8197
 30
0.0
 11
126.351
 21
74.0406
 31
0.0
  0
LINE
  8
0
 62
     0
 10
126.351
 20
74.0406
 30
0.0
 11
121.918
 21
69.6062
 31
0.0
  0
LINE
  8
0
 62
     0
 10
7.27054
 20
67.0789
 30
0.0
 11
7.27054
 21
66.0785
 31
0.0
  0
LINE
  8
0
 62
     0
 10
7.27054
 20
66.0785
 30
0.0
 11
6.46987
 21
66.0785
 31
0.0
  0
LINE
  8
0
 62
     0
 10
6.46987
 20
66.0785
 30
0.0
 11
6.46987
 21
63.1278
 31
0.0
  0
LINE
  8
0
 62
     0
 10
6.46987
 20
63.1278
 30
0.0
 11
7.27054
 21
63.1278
 31
0.0
  0
LINE
  8
0
 62
     0
 10
7.27054
 20
63.1278
 30
0.0
 11
7.27054
 21
57.1775
 31
0.0
  0
LINE
  8
0
 62
     0
 10
7.27054
 20
57.1775
 30
0.0
 11
6.46987
 21
57.1775
 31
0.0
  0
LINE
  8
0
 62
     0
 10
6.46987
 20
57.1775
 30
0.0
 11
6.46987
 21
54.2286
 31
0.0
  0
LINE
  8
0
 62
     0
 10
6.46987
 20
54.2286
 30
0.0
 11
7.27054
 21
54.2286
 31
0.0
  0
LINE
  8
0
 62
     0
 10
7.27054
 20
54.2286
 30
0.0
 11
7.27054
 21
53.2282
 31
0.0
  0
LINE
  8
0
 62
     0
 10
7.27054
 20
53.2282
 30
0.0
 11
21.1198
 21
53.2282
 31
0.0
  0
LINE
  8
0
 62
     0
 10
21.1198
 20
53.2282
 30
0.0
 11
21.1198
 21
54.2286
 31
0.0
  0
LINE
  8
0
 62
     0
 10
21.1198
 20
54.2286
 30
0.0
 11
21.9204
 21
54.2286
 31
0.0
  0
LINE
  8
0
 62
     0
 10
21.9204
 20
54.2286
 30
0.0
 11
21.9204
 21
57.1775
 31
0.0
  0
LINE
  8
0
 62
     0
 10
21.9204
 20
57.1775
 30
0.0
 11
21.1198
 21
57.1775
 31
0.0
  0
LINE
  8
0
 62
     0
 10
21.1198
 20
57.1775
 30
0.0
 11
21.1198
 21
63.1278
 31
0.0
  0
LINE
  8
0
 62
     0
 10
21.1198
 20
63.1278
 30
0.0
 11
21.9204
 21
63.1278
 31
0.0
  0
LINE
  8
0
 62
     0
 10
21.9204
 20
63.1278
 30
0.0
 11
21.9204
 21
66.0785
 31
0.0
  0
LINE
  8
0
 62
     0
 10
21.9204
 20
66.0785
 30
0.0
 11
21.1198
 21
66.0785
 31
0.0
  0
LINE
  8
0
 62
     0
 10
21.1198
 20
66.0785
 30
0.0
 11
21.1198
 21
67.0789
 31
0.0
  0
LINE
  8
0
 62
     0
 10
21.1198
 20
67.0789
 30
0.0
 11
7.27054
 21
67.0789
 31
0.0
  0
LINE
  8
0
 62
     0
 10
26.3205
 20
67.0789
 30
0.0
 11
26.3205
 21
66.0785
 31
0.0
  0
LINE
  8
0
 62
     0
 10
26.3205
 20
66.0785
 30
0.0
 11
25.5199
 21
66.0785
 31
0.0
  0
LINE
  8
0
 62
     0
 10
25.5199
 20
66.0785
 30
0.0
 11
25.5199
 21
63.1278
 31
0.0
  0
LINE
  8
0
 62
     0
 10
25.5199
 20
63.1278
 30
0.0
 11
26.3205
 21
63.1278
 31
0.0
  0
LINE
  8
0
 62
     0
 10
26.3205
 20
63.1278
 30
0.0
 11
26.3205
 21
57.1775
 31
0.0
  0
LINE
  8
0
 62
     0
 10
26.3205
 20
57.1775
 30
0.0
 11
25.5199
 21
57.1775
 31
0.0
  0
LINE
  8
0
 62
     0
 10
25.5199
 20
57.1775
 30
0.0
 11
25.5199
 21
54.2286
 31
0.0
  0
LINE
  8
0
 62
     0
 10
25.5199
 20
54.2286
 30
0.0
 11
26.3205
 21
54.2286
 31
0.0
  0
LINE
  8
0
 62
     0
 10
26.3205
 20
54.2286
 30
0.0
 11
26.3205
 21
53.2282
 31
0.0
  0
LINE
  8
0
 62
     0
 10
26.3205
 20
53.2282
 30
0.0
 11
40.1697
 21
53.2282
 31
0.0
  0
LINE
  8
0
 62
     0
 10
40.1697
 20
53.2282
 30
0.0
 11
40.1697
 21
54.2286
 31
0.0
  0
LINE
  8
0
 62
     0
 10
40.1697
 20
54.2286
 30
0.0
 11
40.9706
 21
54.2286
 31
0.0
  0
LINE
  8
0
 62
     0
 10
40.9706
 20
54.2286
 30
0.0
 11
40.9706
 21
57.1775
 31
0.0
  0
LINE
  8
0
 62
     0
 10
40.9706
 20
57.1775
 30
0.0
 11
40.1697
 21
57.1775
 31
0.0
  0
LINE
  8
0
 62
     0
 10
40.1697
 20
57.1775
 30
0.0
 11
40.1697
 21
63.1278
 31
0.0
  0
LINE
  8
0
 62
     0
 10
40.1697
 20
63.1278
 30
0.0
 11
40.9706
 21
63.1278
 31
0.0
  0
LINE
  8
0
 62
     0
 10
40.9706
 20
63.1278
 30
0.0
 11
40.9706
 21
66.0785
 31
0.0
  0
LINE
  8
0
 62
     0
 10
40.9706
 20
66.0785
 30
0.0
 11
40.1697
 21
66.0785
 31
0.0
  0
LINE
  8
0
 62
     0
 10
40.1697
 20
66.0785
 30
0.0
 11
40.1697
 21
67.0789
 31
0.0
  0
LINE
  8
0
 62
     0
 10
40.1697
 20
67.0789
 30
0.0
 11
26.3205
 21
67.0789
 31
0.0
  0
LINE
  8
0
 62
     0
 10
45.3704
 20
71.84
 30
0.0
 11
45.3704
 21
70.841
 31
0.0
  0
LINE
  8
0
 62
     0
 10
45.3704
 20
70.841
 30
0.0
 11
44.5699
 21
70.841
 31
0.0
  0
LINE
  8
0
 62
     0
 10
44.5699
 20
70.841
 30
0.0
 11
44.5699
 21
67.8903
 31
0.0
  0
LINE
  8
0
 62
     0
 10
44.5699
 20
67.8903
 30
0.0
 11
45.3704
 21
67.8903
 31
0.0
  0
LINE
  8
0
 62
     0
 10
45.3704
 20
67.8903
 30
0.0
 11
45.3704
 21
61.94
 31
0.0
  0
LINE
  8
0
 62
     0
 10
45.3704
 20
61.94
 30
0.0
 11
44.5699
 21
61.94
 31
0.0
  0
LINE
  8
0
 62
     0
 10
44.5699
 20
61.94
 30
0.0
 11
44.5699
 21
58.9897
 31
0.0
  0
LINE
  8
0
 62
     0
 10
44.5699
 20
58.9897
 30
0.0
 11
45.3704
 21
58.9897
 31
0.0
  0
LINE
  8
0
 62
     0
 10
45.3704
 20
58.9897
 30
0.0
 11
45.3704
 21
57.9907
 31
0.0
  0
LINE
  8
0
 62
     0
 10
45.3704
 20
57.9907
 30
0.0
 11
59.2197
 21
57.9907
 31
0.0
  0
LINE
  8
0
 62
     0
 10
59.2197
 20
57.9907
 30
0.0
 11
59.2197
 21
58.9897
 31
0.0
  0
LINE
  8
0
 62
     0
 10
59.2197
 20
58.9897
 30
0.0
 11
60.0206
 21
58.9897
 31
0.0
  0
LINE
  8
0
 62
     0
 10
60.0206
 20
58.9897
 30
0.0
 11
60.0206
 21
61.94
 31
0.0
  0
LINE
  8
0
 62
     0
 10
60.0206
 20
61.94
 30
0.0
 11
59.2197
 21
61.94
 31
0.0
  0
LINE
  8
0
 62
     0
 10
59.2197
 20
61.94
 30
0.0
 11
59.2197
 21
67.8903
 31
0.0
  0
LINE
  8
0
 62
     0
 10
59.2197
 20
67.8903
 30
0.0
 11
60.0206
 21
67.8903
 31
0.0
  0
LINE
  8
0
 62
     0
 10
60.0206
 20
67.8903
 30
0.0
 11
60.0206
 21
70.841
 31
0.0
  0
LINE
  8
0
 62
     0
 10
60.0206
 20
70.841
 30
0.0
 11
59.2197
 21
70.841
 31
0.0
  0
LINE
  8
0
 62
     0
 10
59.2197
 20
70.841
 30
0.0
 11
59.2197
 21
71.84
 31
0.0
  0
LINE
  8
0
 62
     0
 10
59.2197
 20
71.84
 30
0.0
 11
45.3704
 21
71.84
 31
0.0
  0
LINE
  8
0
 62
     0
 10
83.4704
 20
71.84
 30
0.0
 11
83.4704
 21
70.841
 31
0.0
  0
LINE
  8
0
 62
     0
 10
83.4704
 20
70.841
 30
0.0
 11
82.6699
 21
70.841
 31
0.0
  0
LINE
  8
0
 62
     0
 10
82.6699
 20
70.841
 30
0.0
 11
82.6699
 21
67.8903
 31
0.0
  0
LINE
  8
0
 62
     0
 10
82.6699
 20
67.8903
 30
0.0
 11
83.4704
 21
67.8903
 31
0.0
  0
LINE
  8
0
 62
     0
 10
83.4704
 20
67.8903
 30
0.0
 11
83.4704
 21
61.94
 31
0.0
  0
LINE
  8
0
 62
     0
 10
83.4704
 20
61.94
 30
0.0
 11
82.6699
 21
61.94
 31
0.0
  0
LINE
  8
0
 62
     0
 10
82.6699
 20
61.94
 30
0.0
 11
82.6699
 21
58.9897
 31
0.0
  0
LINE
  8
0
 62
     0
 10
82.6699
 20
58.9897
 30
0.0
 11
83.4704
 21
58.9897
 31
0.0
  0
LINE
  8
0
 62
     0
 10
83.4704
 20
58.9897
 30
0.0
 11
83.4704
 21
57.9907
 31
0.0
  0
LINE
  8
0
 62
     0
 10
83.4704
 20
57.9907
 30
0.0
 11
97.3197
 21
57.9907
 31
0.0
  0
LINE
  8
0
 62
     0
 10
97.3197
 20
57.9907
 30
0.0
 11
97.3197
 21
58.9897
 31
0.0
  0
LINE
  8
0
 62
     0
 10
97.3197
 20
58.9897
 30
0.0
 11
98.1191
 21
58.9897
 31
0.0
  0
LINE
  8
0
 62
     0
 10
98.1191
 20
58.9897
 30
0.0
 11
98.1191
 21
61.94
 31
0.0
  0
LINE
  8
0
 62
     0
 10
98.1191
 20
61.94
 30
0.0
 11
97.3197
 21
61.94
 31
0.0
  0
LINE
  8
0
 62
     0
 10
97.3197
 20
61.94
 30
0.0
 11
97.3197
 21
67.8903
 31
0.0
  0
LINE
  8
0
 62
     0
 10
97.3197
 20
67.8903
 30
0.0
 11
98.1191
 21
67.8903
 31
0.0
  0
LINE
  8
0
 62
     0
 10
98.1191
 20
67.8903
 30
0.0
 11
98.1191
 21
70.841
 31
0.0
  0
LINE
  8
0
 62
     0
 10
98.1191
 20
70.841
 30
0.0
 11
97.3197
 21
70.841
 31
0.0
  0
LINE
  8
0
 62
     0
 10
97.3197
 20
70.841
 30
0.0
 11
97.3197
 21
71.84
 31
0.0
  0
LINE
  8
0
 62
     0
 10
97.3197
 20
71.84
 30
0.0
 11
83.4704
 21
71.84
 31
0.0
  0
LINE
  8
0
 62
     0
 10
64.4204
 20
74.2213
 30
0.0
 11
64.4204
 21
73.2208
 31
0.0
  0
LINE
  8
0
 62
     0
 10
64.4204
 20
73.2208
 30
0.0
 11
63.6199
 21
73.2208
 31
0.0
  0
LINE
  8
0
 62
     0
 10
63.6199
 20
73.2208
 30
0.0
 11
63.6199
 21
70.2716
 31
0.0
  0
LINE
  8
0
 62
     0
 10
63.6199
 20
70.2716
 30
0.0
 11
64.4204
 21
70.2716
 31
0.0
  0
LINE
  8
0
 62
     0
 10
64.4204
 20
70.2716
 30
0.0
 11
64.4204
 21
64.3213
 31
0.0
  0
LINE
  8
0
 62
     0
 10
64.4204
 20
64.3213
 30
0.0
 11
63.6199
 21
64.3213
 31
0.0
  0
LINE
  8
0
 62
     0
 10
63.6199
 20
64.3213
 30
0.0
 11
63.6199
 21
61.371
 31
0.0
  0
LINE
  8
0
 62
     0
 10
63.6199
 20
61.371
 30
0.0
 11
64.4204
 21
61.371
 31
0.0
  0
LINE
  8
0
 62
     0
 10
64.4204
 20
61.371
 30
0.0
 11
64.4204
 21
60.3719
 31
0.0
  0
LINE
  8
0
 62
     0
 10
64.4204
 20
60.3719
 30
0.0
 11
78.2697
 21
60.3719
 31
0.0
  0
LINE
  8
0
 62
     0
 10
78.2697
 20
60.3719
 30
0.0
 11
78.2697
 21
61.371
 31
0.0
  0
LINE
  8
0
 62
     0
 10
78.2697
 20
61.371
 30
0.0
 11
79.0706
 21
61.371
 31
0.0
  0
LINE
  8
0
 62
     0
 10
79.0706
 20
61.371
 30
0.0
 11
79.0706
 21
64.3213
 31
0.0
  0
LINE
  8
0
 62
     0
 10
79.0706
 20
64.3213
 30
0.0
 11
78.2697
 21
64.3213
 31
0.0
  0
LINE
  8
0
 62
     0
 10
78.2697
 20
64.3213
 30
0.0
 11
78.2697
 21
70.2716
 31
0.0
  0
LINE
  8
0
 62
     0
 10
78.2697
 20
70.2716
 30
0.0
 11
79.0706
 21
70.2716
 31
0.0
  0
LINE
  8
0
 62
     0
 10
79.0706
 20
70.2716
 30
0.0
 11
79.0706
 21
73.2208
 31
0.0
  0
LINE
  8
0
 62
     0
 10
79.0706
 20
73.2208
 30
0.0
 11
78.2697
 21
73.2208
 31
0.0
  0
LINE
  8
0
 62
     0
 10
78.2697
 20
73.2208
 30
0.0
 11
78.2697
 21
74.2213
 31
0.0
  0
LINE
  8
0
 62
     0
 10
78.2697
 20
74.2213
 30
0.0
 11
64.4204
 21
74.2213
 31
0.0
  0
LINE
  8
0
 62
     0
 10
7.27054
 20
86.1289
 30
0.0
 11
7.27054
 21
85.1285
 31
0.0
  0
LINE
  8
0
 62
     0
 10
7.27054
 20
85.1285
 30
0.0
 11
6.46987
 21
85.1285
 31
0.0
  0
LINE
  8
0
 62
     0
 10
6.46987
 20
85.1285
 30
0.0
 11
6.46987
 21
82.1778
 31
0.0
  0
LINE
  8
0
 62
     0
 10
6.46987
 20
82.1778
 30
0.0
 11
7.27054
 21
82.1778
 31
0.0
  0
LINE
  8
0
 62
     0
 10
7.27054
 20
82.1778
 30
0.0
 11
7.27054
 21
76.2275
 31
0.0
  0
LINE
  8
0
 62
     0
 10
7.27054
 20
76.2275
 30
0.0
 11
6.46987
 21
76.2275
 31
0.0
  0
LINE
  8
0
 62
     0
 10
6.46987
 20
76.2275
 30
0.0
 11
6.46987
 21
73.2786
 31
0.0
  0
LINE
  8
0
 62
     0
 10
6.46987
 20
73.2786
 30
0.0
 11
7.27054
 21
73.2786
 31
0.0
  0
LINE
  8
0
 62
     0
 10
7.27054
 20
73.2786
 30
0.0
 11
7.27054
 21
72.2782
 31
0.0
  0
LINE
  8
0
 62
     0
 10
7.27054
 20
72.2782
 30
0.0
 11
21.1198
 21
72.2782
 31
0.0
  0
LINE
  8
0
 62
     0
 10
21.1198
 20
72.2782
 30
0.0
 11
21.1198
 21
73.2786
 31
0.0
  0
LINE
  8
0
 62
     0
 10
21.1198
 20
73.2786
 30
0.0
 11
21.9204
 21
73.2786
 31
0.0
  0
LINE
  8
0
 62
     0
 10
21.9204
 20
73.2786
 30
0.0
 11
21.9204
 21
76.2275
 31
0.0
  0
LINE
  8
0
 62
     0
 10
21.9204
 20
76.2275
 30
0.0
 11
21.1198
 21
76.2275
 31
0.0
  0
LINE
  8
0
 62
     0
 10
21.1198
 20
76.2275
 30
0.0
 11
21.1198
 21
82.1778
 31
0.0
  0
LINE
  8
0
 62
     0
 10
21.1198
 20
82.1778
 30
0.0
 11
21.9204
 21
82.1778
 31
0.0
  0
LINE
  8
0
 62
     0
 10
21.9204
 20
82.1778
 30
0.0
 11
21.9204
 21
85.1285
 31
0.0
  0
LINE
  8
0
 62
     0
 10
21.9204
 20
85.1285
 30
0.0
 11
21.1198
 21
85.1285
 31
0.0
  0
LINE
  8
0
 62
     0
 10
21.1198
 20
85.1285
 30
0.0
 11
21.1198
 21
86.1289
 31
0.0
  0
LINE
  8
0
 62
     0
 10
21.1198
 20
86.1289
 30
0.0
 11
7.27054
 21
86.1289
 31
0.0
  0
LINE
  8
0
 62
     0
 10
26.3205
 20
86.1289
 30
0.0
 11
26.3205
 21
85.1285
 31
0.0
  0
LINE
  8
0
 62
     0
 10
26.3205
 20
85.1285
 30
0.0
 11
25.5199
 21
85.1285
 31
0.0
  0
LINE
  8
0
 62
     0
 10
25.5199
 20
85.1285
 30
0.0
 11
25.5199
 21
82.1778
 31
0.0
  0
LINE
  8
0
 62
     0
 10
25.5199
 20
82.1778
 30
0.0
 11
26.3205
 21
82.1778
 31
0.0
  0
LINE
  8
0
 62
     0
 10
26.3205
 20
82.1778
 30
0.0
 11
26.3205
 21
76.2275
 31
0.0
  0
LINE
  8
0
 62
     0
 10
26.3205
 20
76.2275
 30
0.0
 11
25.5199
 21
76.2275
 31
0.0
  0
LINE
  8
0
 62
     0
 10
25.5199
 20
76.2275
 30
0.0
 11
25.5199
 21
73.2786
 31
0.0
  0
LINE
  8
0
 62
     0
 10
25.5199
 20
73.2786
 30
0.0
 11
26.3205
 21
73.2786
 31
0.0
  0
LINE
  8
0
 62
     0
 10
26.3205
 20
73.2786
 30
0.0
 11
26.3205
 21
72.2782
 31
0.0
  0
LINE
  8
0
 62
     0
 10
26.3205
 20
72.2782
 30
0.0
 11
40.1697
 21
72.2782
 31
0.0
  0
LINE
  8
0
 62
     0
 10
40.1697
 20
72.2782
 30
0.0
 11
40.1697
 21
73.2786
 31
0.0
  0
LINE
  8
0
 62
     0
 10
40.1697
 20
73.2786
 30
0.0
 11
40.9706
 21
73.2786
 31
0.0
  0
LINE
  8
0
 62
     0
 10
40.9706
 20
73.2786
 30
0.0
 11
40.9706
 21
76.2275
 31
0.0
  0
LINE
  8
0
 62
     0
 10
40.9706
 20
76.2275
 30
0.0
 11
40.1697
 21
76.2275
 31
0.0
  0
LINE
  8
0
 62
     0
 10
40.1697
 20
76.2275
 30
0.0
 11
40.1697
 21
82.1778
 31
0.0
  0
LINE
  8
0
 62
     0
 10
40.1697
 20
82.1778
 30
0.0
 11
40.9706
 21
82.1778
 31
0.0
  0
LINE
  8
0
 62
     0
 10
40.9706
 20
82.1778
 30
0.0
 11
40.9706
 21
85.1285
 31
0.0
  0
LINE
  8
0
 62
     0
 10
40.9706
 20
85.1285
 30
0.0
 11
40.1697
 21
85.1285
 31
0.0
  0
LINE
  8
0
 62
     0
 10
40.1697
 20
85.1285
 30
0.0
 11
40.1697
 21
86.1289
 31
0.0
  0
LINE
  8
0
 62
     0
 10
40.1697
 20
86.1289
 30
0.0
 11
26.3205
 21
86.1289
 31
0.0
  0
LINE
  8
0
 62
     0
 10
102.52
 20
88.5088
 30
0.0
 11
102.52
 21
87.5097
 31
0.0
  0
LINE
  8
0
 62
     0
 10
102.52
 20
87.5097
 30
0.0
 11
101.72
 21
87.5097
 31
0.0
  0
LINE
  8
0
 62
     0
 10
101.72
 20
87.5097
 30
0.0
 11
101.72
 21
84.5591
 31
0.0
  0
LINE
  8
0
 62
     0
 10
101.72
 20
84.5591
 30
0.0
 11
102.52
 21
84.5591
 31
0.0
  0
LINE
  8
0
 62
     0
 10
102.52
 20
84.5591
 30
0.0
 11
102.52
 21
78.6088
 31
0.0
  0
LINE
  8
0
 62
     0
 10
102.52
 20
78.6088
 30
0.0
 11
101.72
 21
78.6088
 31
0.0
  0
LINE
  8
0
 62
     0
 10
101.72
 20
78.6088
 30
0.0
 11
101.72
 21
75.6599
 31
0.0
  0
LINE
  8
0
 62
     0
 10
101.72
 20
75.6599
 30
0.0
 11
102.52
 21
75.6599
 31
0.0
  0
LINE
  8
0
 62
     0
 10
102.52
 20
75.6599
 30
0.0
 11
102.52
 21
74.6594
 31
0.0
  0
LINE
  8
0
 62
     0
 10
102.52
 20
74.6594
 30
0.0
 11
116.37
 21
74.6594
 31
0.0
  0
LINE
  8
0
 62
     0
 10
116.37
 20
74.6594
 30
0.0
 11
116.37
 21
75.6599
 31
0.0
  0
LINE
  8
0
 62
     0
 10
116.37
 20
75.6599
 30
0.0
 11
117.171
 21
75.6599
 31
0.0
  0
LINE
  8
0
 62
     0
 10
117.171
 20
75.6599
 30
0.0
 11
117.171
 21
78.6088
 31
0.0
  0
LINE
  8
0
 62
     0
 10
117.171
 20
78.6088
 30
0.0
 11
116.37
 21
78.6088
 31
0.0
  0
LINE
  8
0
 62
     0
 10
116.37
 20
78.6088
 30
0.0
 11
116.37
 21
84.5591
 31
0.0
  0
LINE
  8
0
 62
     0
 10
116.37
 20
84.5591
 30
0.0
 11
117.171
 21
84.5591
 31
0.0
  0
LINE
  8
0
 62
     0
 10
117.171
 20
84.5591
 30
0.0
 11
117.171
 21
87.5097
 31
0.0
  0
LINE
  8
0
 62
     0
 10
117.171
 20
87.5097
 30
0.0
 11
116.37
 21
87.5097
 31
0.0
  0
LINE
  8
0
 62
     0
 10
116.37
 20
87.5097
 30
0.0
 11
116.37
 21
88.5088
 31
0.0
  0
LINE
  8
0
 62
     0
 10
116.37
 20
88.5088
 30
0.0
 11
102.52
 21
88.5088
 31
0.0
  0
LINE
  8
0
 62
     0
 10
45.3704
 20
90.89
 30
0.0
 11
45.3704
 21
89.891
 31
0.0
  0
LINE
  8
0
 62
     0
 10
45.3704
 20
89.891
 30
0.0
 11
44.5699
 21
89.891
 31
0.0
  0
LINE
  8
0
 62
     0
 10
44.5699
 20
89.891
 30
0.0
 11
44.5699
 21
86.9403
 31
0.0
  0
LINE
  8
0
 62
     0
 10
44.5699
 20
86.9403
 30
0.0
 11
45.3704
 21
86.9403
 31
0.0
  0
LINE
  8
0
 62
     0
 10
45.3704
 20
86.9403
 30
0.0
 11
45.3704
 21
80.99
 31
0.0
  0
LINE
  8
0
 62
     0
 10
45.3704
 20
80.99
 30
0.0
 11
44.5699
 21
80.99
 31
0.0
  0
LINE
  8
0
 62
     0
 10
44.5699
 20
80.99
 30
0.0
 11
44.5699
 21
78.0397
 31
0.0
  0
LINE
  8
0
 62
     0
 10
44.5699
 20
78.0397
 30
0.0
 11
45.3704
 21
78.0397
 31
0.0
  0
LINE
  8
0
 62
     0
 10
45.3704
 20
78.0397
 30
0.0
 11
45.3704
 21
77.0407
 31
0.0
  0
LINE
  8
0
 62
     0
 10
45.3704
 20
77.0407
 30
0.0
 11
59.2197
 21
77.0407
 31
0.0
  0
LINE
  8
0
 62
     0
 10
59.2197
 20
77.0407
 30
0.0
 11
59.2197
 21
78.0397
 31
0.0
  0
LINE
  8
0
 62
     0
 10
59.2197
 20
78.0397
 30
0.0
 11
60.0206
 21
78.0397
 31
0.0
  0
LINE
  8
0
 62
     0
 10
60.0206
 20
78.0397
 30
0.0
 11
60.0206
 21
80.99
 31
0.0
  0
LINE
  8
0
 62
     0
 10
60.0206
 20
80.99
 30
0.0
 11
59.2197
 21
80.99
 31
0.0
  0
LINE
  8
0
 62
     0
 10
59.2197
 20
80.99
 30
0.0
 11
59.2197
 21
86.9403
 31
0.0
  0
LINE
  8
0
 62
     0
 10
59.2197
 20
86.9403
 30
0.0
 11
60.0206
 21
86.9403
 31
0.0
  0
LINE
  8
0
 62
     0
 10
60.0206
 20
86.9403
 30
0.0
 11
60.0206
 21
89.891
 31
0.0
  0
LINE
  8
0
 62
     0
 10
60.0206
 20
89.891
 30
0.0
 11
59.2197
 21
89.891
 31
0.0
  0
LINE
  8
0
 62
     0
 10
59.2197
 20
89.891
 30
0.0
 11
59.2197
 21
90.89
 31
0.0
  0
LINE
  8
0
 62
     0
 10
59.2197
 20
90.89
 30
0.0
 11
45.3704
 21
90.89
 31
0.0
  0
LINE
  8
0
 62
     0
 10
83.4704
 20
90.89
 30
0.0
 11
83.4704
 21
89.891
 31
0.0
  0
LINE
  8
0
 62
     0
 10
83.4704
 20
89.891
 30
0.0
 11
82.6699
 21
89.891
 31
0.0
  0
LINE
  8
0
 62
     0
 10
82.6699
 20
89.891
 30
0.0
 11
82.6699
 21
86.9403
 31
0.0
  0
LINE
  8
0
 62
     0
 10
82.6699
 20
86.9403
 30
0.0
 11
83.4704
 21
86.9403
 31
0.0
  0
LINE
  8
0
 62
     0
 10
83.4704
 20
86.9403
 30
0.0
 11
83.4704
 21
80.99
 31
0.0
  0
LINE
  8
0
 62
     0
 10
83.4704
 20
80.99
 30
0.0
 11
82.6699
 21
80.99
 31
0.0
  0
LINE
  8
0
 62
     0
 10
82.6699
 20
80.99
 30
0.0
 11
82.6699
 21
78.0397
 31
0.0
  0
LINE
  8
0
 62
     0
 10
82.6699
 20
78.0397
 30
0.0
 11
83.4704
 21
78.0397
 31
0.0
  0
LINE
  8
0
 62
     0
 10
83.4704
 20
78.0397
 30
0.0
 11
83.4704
 21
77.0407
 31
0.0
  0
LINE
  8
0
 62
     0
 10
83.4704
 20
77.0407
 30
0.0
 11
97.3197
 21
77.0407
 31
0.0
  0
LINE
  8
0
 62
     0
 10
97.3197
 20
77.0407
 30
0.0
 11
97.3197
 21
78.0397
 31
0.0
  0
LINE
  8
0
 62
     0
 10
97.3197
 20
78.0397
 30
0.0
 11
98.1191
 21
78.0397
 31
0.0
  0
LINE
  8
0
 62
     0
 10
98.1191
 20
78.0397
 30
0.0
 11
98.1191
 21
80.99
 31
0.0
  0
LINE
  8
0
 62
     0
 10
98.1191
 20
80.99
 30
0.0
 11
97.3197
 21
80.99
 31
0.0
  0
LINE
  8
0
 62
     0
 10
97.3197
 20
80.99
 30
0.0
 11
97.3197
 21
86.9403
 31
0.0
  0
LINE
  8
0
 62
     0
 10
97.3197
 20
86.9403
 30
0.0
 11
98.1191
 21
86.9403
 31
0.0
  0
LINE
  8
0
 62
     0
 10
98.1191
 20
86.9403
 30
0.0
 11
98.1191
 21
89.891
 31
0.0
  0
LINE
  8
0
 62
     0
 10
98.1191
 20
89.891
 30
0.0
 11
97.3197
 21
89.891
 31
0.0
  0
LINE
  8
0
 62
     0
 10
97.3197
 20
89.891
 30
0.0
 11
97.3197
 21
90.89
 31
0.0
  0
LINE
  8
0
 62
     0
 10
97.3197
 20
90.89
 30
0.0
 11
83.4704
 21
90.89
 31
0.0
  0
LINE
  8
0
 62
     0
 10
64.4204
 20
93.2713
 30
0.0
 11
64.4204
 21
92.2708
 31
0.0
  0
LINE
  8
0
 62
     0
 10
64.4204
 20
92.2708
 30
0.0
 11
63.6199
 21
92.2708
 31
0.0
  0
LINE
  8
0
 62
     0
 10
63.6199
 20
92.2708
 30
0.0
 11
63.6199
 21
89.3216
 31
0.0
  0
LINE
  8
0
 62
     0
 10
63.6199
 20
89.3216
 30
0.0
 11
64.4204
 21
89.3216
 31
0.0
  0
LINE
  8
0
 62
     0
 10
64.4204
 20
89.3216
 30
0.0
 11
64.4204
 21
83.3713
 31
0.0
  0
LINE
  8
0
 62
     0
 10
64.4204
 20
83.3713
 30
0.0
 11
63.6199
 21
83.3713
 31
0.0
  0
LINE
  8
0
 62
     0
 10
63.6199
 20
83.3713
 30
0.0
 11
63.6199
 21
80.421
 31
0.0
  0
LINE
  8
0
 62
     0
 10
63.6199
 20
80.421
 30
0.0
 11
64.4204
 21
80.421
 31
0.0
  0
LINE
  8
0
 62
     0
 10
64.4204
 20
80.421
 30
0.0
 11
64.4204
 21
79.4219
 31
0.0
  0
LINE
  8
0
 62
     0
 10
64.4204
 20
79.4219
 30
0.0
 11
78.2697
 21
79.4219
 31
0.0
  0
LINE
  8
0
 62
     0
 10
78.2697
 20
79.4219
 30
0.0
 11
78.2697
 21
80.421
 31
0.0
  0
LINE
  8
0
 62
     0
 10
78.2697
 20
80.421
 30
0.0
 11
79.0706
 21
80.421
 31
0.0
  0
LINE
  8
0
 62
     0
 10
79.0706
 20
80.421
 30
0.0
 11
79.0706
 21
83.3713
 31
0.0
  0
LINE
  8
0
 62
     0
 10
79.0706
 20
83.3713
 30
0.0
 11
78.2697
 21
83.3713
 31
0.0
  0
LINE
  8
0
 62
     0
 10
78.2697
 20
83.3713
 30
0.0
 11
78.2697
 21
89.3216
 31
0.0
  0
LINE
  8
0
 62
     0
 10
78.2697
 20
89.3216
 30
0.0
 11
79.0706
 21
89.3216
 31
0.0
  0
LINE
  8
0
 62
     0
 10
79.0706
 20
89.3216
 30
0.0
 11
79.0706
 21
92.2708
 31
0.0
  0
LINE
  8
0
 62
     0
 10
79.0706
 20
92.2708
 30
0.0
 11
78.2697
 21
92.2708
 31
0.0
  0
LINE
  8
0
 62
     0
 10
78.2697
 20
92.2708
 30
0.0
 11
78.2697
 21
93.2713
 31
0.0
  0
LINE
  8
0
 62
     0
 10
78.2697
 20
93.2713
 30
0.0
 11
64.4204
 21
93.2713
 31
0.0
  0
LINE
  8
0
 62
     0
 10
121.57
 20
102.796
 30
0.0
 11
121.57
 21
101.796
 31
0.0
  0
LINE
  8
0
 62
     0
 10
121.57
 20
101.796
 30
0.0
 11
120.77
 21
101.796
 31
0.0
  0
LINE
  8
0
 62
     0
 10
120.77
 20
101.796
 30
0.0
 11
120.77
 21
98.8466
 31
0.0
  0
LINE
  8
0
 62
     0
 10
120.77
 20
98.8466
 30
0.0
 11
121.57
 21
98.8466
 31
0.0
  0
LINE
  8
0
 62
     0
 10
121.57
 20
98.8466
 30
0.0
 11
121.57
 21
92.8963
 31
0.0
  0
LINE
  8
0
 62
     0
 10
121.57
 20
92.8963
 30
0.0
 11
120.77
 21
92.8963
 31
0.0
  0
LINE
  8
0
 62
     0
 10
120.77
 20
92.8963
 30
0.0
 11
120.77
 21
89.946
 31
0.0
  0
LINE
  8
0
 62
     0
 10
120.77
 20
89.946
 30
0.0
 11
121.57
 21
89.946
 31
0.0
  0
LINE
  8
0
 62
     0
 10
121.57
 20
89.946
 30
0.0
 11
121.57
 21
88.9469
 31
0.0
  0
LINE
  8
0
 62
     0
 10
121.57
 20
88.9469
 30
0.0
 11
135.42
 21
88.9469
 31
0.0
  0
LINE
  8
0
 62
     0
 10
135.42
 20
88.9469
 30
0.0
 11
135.42
 21
89.946
 31
0.0
  0
LINE
  8
0
 62
     0
 10
135.42
 20
89.946
 30
0.0
 11
136.221
 21
89.946
 31
0.0
  0
LINE
  8
0
 62
     0
 10
136.221
 20
89.946
 30
0.0
 11
136.221
 21
92.8963
 31
0.0
  0
LINE
  8
0
 62
     0
 10
136.221
 20
92.8963
 30
0.0
 11
135.42
 21
92.8963
 31
0.0
  0
LINE
  8
0
 62
     0
 10
135.42
 20
92.8963
 30
0.0
 11
135.42
 21
98.8466
 31
0.0
  0
LINE
  8
0
 62
     0
 10
135.42
 20
98.8466
 30
0.0
 11
136.221
 21
98.8466
 31
0.0
  0
LINE
  8
0
 62
     0
 10
136.221
 20
98.8466
 30
0.0
 11
136.221
 21
101.796
 31
0.0
  0
LINE
  8
0
 62
     0
 10
136.221
 20
101.796
 30
0.0
 11
135.42
 21
101.796
 31
0.0
  0
LINE
  8
0
 62
     0
 10
135.42
 20
101.796
 30
0.0
 11
135.42
 21
102.796
 31
0.0
  0
LINE
  8
0
 62
     0
 10
135.42
 20
102.796
 30
0.0
 11
121.57
 21
102.796
 31
0.0
  0
LINE
  8
0
 62
     0
 10
7.27054
 20
105.179
 30
0.0
 11
7.27054
 21
104.178
 31
0.0
  0
LINE
  8
0
 62
     0
 10
7.27054
 20
104.178
 30
0.0
 11
6.46987
 21
104.178
 31
0.0
  0
LINE
  8
0
 62
     0
 10
6.46987
 20
104.178
 30
0.0
 11
6.46987
 21
101.228
 31
0.0
  0
LINE
  8
0
 62
     0
 10
6.46987
 20
101.228
 30
0.0
 11
7.27054
 21
101.228
 31
0.0
  0
LINE
  8
0
 62
     0
 10
7.27054
 20
101.228
 30
0.0
 11
7.27054
 21
95.2775
 31
0.0
  0
LINE
  8
0
 62
     0
 10
7.27054
 20
95.2775
 30
0.0
 11
6.46987
 21
95.2775
 31
0.0
  0
LINE
  8
0
 62
     0
 10
6.46987
 20
95.2775
 30
0.0
 11
6.46987
 21
92.3286
 31
0.0
  0
LINE
  8
0
 62
     0
 10
6.46987
 20
92.3286
 30
0.0
 11
7.27054
 21
92.3286
 31
0.0
  0
LINE
  8
0
 62
     0
 10
7.27054
 20
92.3286
 30
0.0
 11
7.27054
 21
91.3282
 31
0.0
  0
LINE
  8
0
 62
     0
 10
7.27054
 20
91.3282
 30
0.0
 11
21.1198
 21
91.3282
 31
0.0
  0
LINE
  8
0
 62
     0
 10
21.1198
 20
91.3282
 30
0.0
 11
21.1198
 21
92.3286
 31
0.0
  0
LINE
  8
0
 62
     0
 10
21.1198
 20
92.3286
 30
0.0
 11
21.9204
 21
92.3286
 31
0.0
  0
LINE
  8
0
 62
     0
 10
21.9204
 20
92.3286
 30
0.0
 11
21.9204
 21
95.2775
 31
0.0
  0
LINE
  8
0
 62
     0
 10
21.9204
 20
95.2775
 30
0.0
 11
21.1198
 21
95.2775
 31
0.0
  0
LINE
  8
0
 62
     0
 10
21.1198
 20
95.2775
 30
0.0
 11
21.1198
 21
101.228
 31
0.0
  0
LINE
  8
0
 62
     0
 10
21.1198
 20
101.228
 30
0.0
 11
21.9204
 21
101.228
 31
0.0
  0
LINE
  8
0
 62
     0
 10
21.9204
 20
101.228
 30
0.0
 11
21.9204
 21
104.178
 31
0.0
  0
LINE
  8
0
 62
     0
 10
21.9204
 20
104.178
 30
0.0
 11
21.1198
 21
104.178
 31
0.0
  0
LINE
  8
0
 62
     0
 10
21.1198
 20
104.178
 30
0.0
 11
21.1198
 21
105.179
 31
0.0
  0
LINE
  8
0
 62
     0
 10
21.1198
 20
105.179
 30
0.0
 11
7.27054
 21
105.179
 31
0.0
  0
LINE
  8
0
 62
     0
 10
26.3205
 20
105.179
 30
0.0
 11
26.3205
 21
104.178
 31
0.0
  0
LINE
  8
0
 62
     0
 10
26.3205
 20
104.178
 30
0.0
 11
25.5199
 21
104.178
 31
0.0
  0
LINE
  8
0
 62
     0
 10
25.5199
 20
104.178
 30
0.0
 11
25.5199
 21
101.228
 31
0.0
  0
LINE
  8
0
 62
     0
 10
25.5199
 20
101.228
 30
0.0
 11
26.3205
 21
101.228
 31
0.0
  0
LINE
  8
0
 62
     0
 10
26.3205
 20
101.228
 30
0.0
 11
26.3205
 21
95.2775
 31
0.0
  0
LINE
  8
0
 62
     0
 10
26.3205
 20
95.2775
 30
0.0
 11
25.5199
 21
95.2775
 31
0.0
  0
LINE
  8
0
 62
     0
 10
25.5199
 20
95.2775
 30
0.0
 11
25.5199
 21
92.3286
 31
0.0
  0
LINE
  8
0
 62
     0
 10
25.5199
 20
92.3286
 30
0.0
 11
26.3205
 21
92.3286
 31
0.0
  0
LINE
  8
0
 62
     0
 10
26.3205
 20
92.3286
 30
0.0
 11
26.3205
 21
91.3282
 31
0.0
  0
LINE
  8
0
 62
     0
 10
26.3205
 20
91.3282
 30
0.0
 11
40.1697
 21
91.3282
 31
0.0
  0
LINE
  8
0
 62
     0
 10
40.1697
 20
91.3282
 30
0.0
 11
40.1697
 21
92.3286
 31
0.0
  0
LINE
  8
0
 62
     0
 10
40.1697
 20
92.3286
 30
0.0
 11
40.9706
 21
92.3286
 31
0.0
  0
LINE
  8
0
 62
     0
 10
40.9706
 20
92.3286
 30
0.0
 11
40.9706
 21
95.2775
 31
0.0
  0
LINE
  8
0
 62
     0
 10
40.9706
 20
95.2775
 30
0.0
 11
40.1697
 21
95.2775
 31
0.0
  0
LINE
  8
0
 62
     0
 10
40.1697
 20
95.2775
 30
0.0
 11
40.1697
 21
101.228
 31
0.0
  0
LINE
  8
0
 62
     0
 10
40.1697
 20
101.228
 30
0.0
 11
40.9706
 21
101.228
 31
0.0
  0
LINE
  8
0
 62
     0
 10
40.9706
 20
101.228
 30
0.0
 11
40.9706
 21
104.178
 31
0.0
  0
LINE
  8
0
 62
     0
 10
40.9706
 20
104.178
 30
0.0
 11
40.1697
 21
104.178
 31
0.0
  0
LINE
  8
0
 62
     0
 10
40.1697
 20
104.178
 30
0.0
 11
40.1697
 21
105.179
 31
0.0
  0
LINE
  8
0
 62
     0
 10
40.1697
 20
105.179
 30
0.0
 11
26.3205
 21
105.179
 31
0.0
  0
LINE
  8
0
 62
     0
 10
102.52
 20
107.559
 30
0.0
 11
102.52
 21
106.56
 31
0.0
  0
LINE
  8
0
 62
     0
 10
102.52
 20
106.56
 30
0.0
 11
101.72
 21
106.56
 31
0.0
  0
LINE
  8
0
 62
     0
 10
101.72
 20
106.56
 30
0.0
 11
101.72
 21
103.609
 31
0.0
  0
LINE
  8
0
 62
     0
 10
101.72
 20
103.609
 30
0.0
 11
102.52
 21
103.609
 31
0.0
  0
LINE
  8
0
 62
     0
 10
102.52
 20
103.609
 30
0.0
 11
102.52
 21
97.6588
 31
0.0
  0
LINE
  8
0
 62
     0
 10
102.52
 20
97.6588
 30
0.0
 11
101.72
 21
97.6588
 31
0.0
  0
LINE
  8
0
 62
     0
 10
101.72
 20
97.6588
 30
0.0
 11
101.72
 21
94.7099
 31
0.0
  0
LINE
  8
0
 62
     0
 10
101.72
 20
94.7099
 30
0.0
 11
102.52
 21
94.7099
 31
0.0
  0
LINE
  8
0
 62
     0
 10
102.52
 20
94.7099
 30
0.0
 11
102.52
 21
93.7094
 31
0.0
  0
LINE
  8
0
 62
     0
 10
102.52
 20
93.7094
 30
0.0
 11
116.37
 21
93.7094
 31
0.0
  0
LINE
  8
0
 62
     0
 10
116.37
 20
93.7094
 30
0.0
 11
116.37
 21
94.7099
 31
0.0
  0
LINE
  8
0
 62
     0
 10
116.37
 20
94.7099
 30
0.0
 11
117.171
 21
94.7099
 31
0.0
  0
LINE
  8
0
 62
     0
 10
117.171
 20
94.7099
 30
0.0
 11
117.171
 21
97.6588
 31
0.0
  0
LINE
  8
0
 62
     0
 10
117.171
 20
97.6588
 30
0.0
 11
116.37
 21
97.6588
 31
0.0
  0
LINE
  8
0
 62
     0
 10
116.37
 20
97.6588
 30
0.0
 11
116.37
 21
103.609
 31
0.0
  0
LINE
  8
0
 62
     0
 10
116.37
 20
103.609
 30
0.0
 11
117.171
 21
103.609
 31
0.0
  0
LINE
  8
0
 62
     0
 10
117.171
 20
103.609
 30
0.0
 11
117.171
 21
106.56
 31
0.0
  0
LINE
  8
0
 62
     0
 10
117.171
 20
106.56
 30
0.0
 11
116.37
 21
106.56
 31
0.0
  0
LINE
  8
0
 62
     0
 10
116.37
 20
106.56
 30
0.0
 11
116.37
 21
107.559
 31
0.0
  0
LINE
  8
0
 62
     0
 10
116.37
 20
107.559
 30
0.0
 11
102.52
 21
107.559
 31
0.0
  0
LINE
  8
0
 62
     0
 10
45.3704
 20
109.94
 30
0.0
 11
45.3704
 21
108.941
 31
0.0
  0
LINE
  8
0
 62
     0
 10
45.3704
 20
108.941
 30
0.0
 11
44.5699
 21
108.941
 31
0.0
  0
LINE
  8
0
 62
     0
 10
44.5699
 20
108.941
 30
0.0
 11
44.5699
 21
105.99
 31
0.0
  0
LINE
  8
0
 62
     0
 10
44.5699
 20
105.99
 30
0.0
 11
45.3704
 21
105.99
 31
0.0
  0
LINE
  8
0
 62
     0
 10
45.3704
 20
105.99
 30
0.0
 11
45.3704
 21
100.04
 31
0.0
  0
LINE
  8
0
 62
     0
 10
45.3704
 20
100.04
 30
0.0
 11
44.5699
 21
100.04
 31
0.0
  0
LINE
  8
0
 62
     0
 10
44.5699
 20
100.04
 30
0.0
 11
44.5699
 21
97.0897
 31
0.0
  0
LINE
  8
0
 62
     0
 10
44.5699
 20
97.0897
 30
0.0
 11
45.3704
 21
97.0897
 31
0.0
  0
LINE
  8
0
 62
     0
 10
45.3704
 20
97.0897
 30
0.0
 11
45.3704
 21
96.0907
 31
0.0
  0
LINE
  8
0
 62
     0
 10
45.3704
 20
96.0907
 30
0.0
 11
59.2197
 21
96.0907
 31
0.0
  0
LINE
  8
0
 62
     0
 10
59.2197
 20
96.0907
 30
0.0
 11
59.2197
 21
97.0897
 31
0.0
  0
LINE
  8
0
 62
     0
 10
59.2197
 20
97.0897
 30
0.0
 11
60.0206
 21
97.0897
 31
0.0
  0
LINE
  8
0
 62
     0
 10
60.0206
 20
97.0897
 30
0.0
 11
60.0206
 21
100.04
 31
0.0
  0
LINE
  8
0
 62
     0
 10
60.0206
 20
100.04
 30
0.0
 11
59.2197
 21
100.04
 31
0.0
  0
LINE
  8
0
 62
     0
 10
59.2197
 20
100.04
 30
0.0
 11
59.2197
 21
105.99
 31
0.0
  0
LINE
  8
0
 62
     0
 10
59.2197
 20
105.99
 30
0.0
 11
60.0206
 21
105.99
 31
0.0
  0
LINE
  8
0
 62
     0
 10
60.0206
 20
105.99
 30
0.0
 11
60.0206
 21
108.941
 31
0.0
  0
LINE
  8
0
 62
     0
 10
60.0206
 20
108.941
 30
0.0
 11
59.2197
 21
108.941
 31
0.0
  0
LINE
  8
0
 62
     0
 10
59.2197
 20
108.941
 30
0.0
 11
59.2197
 21
109.94
 31
0.0
  0
LINE
  8
0
 62
     0
 10
59.2197
 20
109.94
 30
0.0
 11
45.3704
 21
109.94
 31
0.0
  0
LINE
  8
0
 62
     0
 10
83.4704
 20
109.94
 30
0.0
 11
83.4704
 21
108.941
 31
0.0
  0
LINE
  8
0
 62
     0
 10
83.4704
 20
108.941
 30
0.0
 11
82.6699
 21
108.941
 31
0.0
  0
LINE
  8
0
 62
     0
 10
82.6699
 20
108.941
 30
0.0
 11
82.6699
 21
105.99
 31
0.0
  0
LINE
  8
0
 62
     0
 10
82.6699
 20
105.99
 30
0.0
 11
83.4704
 21
105.99
 31
0.0
  0
LINE
  8
0
 62
     0
 10
83.4704
 20
105.99
 30
0.0
 11
83.4704
 21
100.04
 31
0.0
  0
LINE
  8
0
 62
     0
 10
83.4704
 20
100.04
 30
0.0
 11
82.6699
 21
100.04
 31
0.0
  0
LINE
  8
0
 62
     0
 10
82.6699
 20
100.04
 30
0.0
 11
82.6699
 21
97.0897
 31
0.0
  0
LINE
  8
0
 62
     0
 10
82.6699
 20
97.0897
 30
0.0
 11
83.4704
 21
97.0897
 31
0.0
  0
LINE
  8
0
 62
     0
 10
83.4704
 20
97.0897
 30
0.0
 11
83.4704
 21
96.0907
 31
0.0
  0
LINE
  8
0
 62
     0
 10
83.4704
 20
96.0907
 30
0.0
 11
97.3197
 21
96.0907
 31
0.0
  0
LINE
  8
0
 62
     0
 10
97.3197
 20
96.0907
 30
0.0
 11
97.3197
 21
97.0897
 31
0.0
  0
LINE
  8
0
 62
     0
 10
97.3197
 20
97.0897
 30
0.0
 11
98.1191
 21
97.0897
 31
0.0
  0
LINE
  8
0
 62
     0
 10
98.1191
 20
97.0897
 30
0.0
 11
98.1191
 21
100.04
 31
0.0
  0
LINE
  8
0
 62
     0
 10
98.1191
 20
100.04
 30
0.0
 11
97.3197
 21
100.04
 31
0.0
  0
LINE
  8
0
 62
     0
 10
97.3197
 20
100.04
 30
0.0
 11
97.3197
 21
105.99
 31
0.0
  0
LINE
  8
0
 62
     0
 10
97.3197
 20
105.99
 30
0.0
 11
98.1191
 21
105.99
 31
0.0
  0
LINE
  8
0
 62
     0
 10
98.1191
 20
105.99
 30
0.0
 11
98.1191
 21
108.941
 31
0.0
  0
LINE
  8
0
 62
     0
 10
98.1191
 20
108.941
 30
0.0
 11
97.3197
 21
108.941
 31
0.0
  0
LINE
  8
0
 62
     0
 10
97.3197
 20
108.941
 30
0.0
 11
97.3197
 21
109.94
 31
0.0
  0
LINE
  8
0
 62
     0
 10
97.3197
 20
109.94
 30
0.0
 11
83.4704
 21
109.94
 31
0.0
  0
LINE
  8
0
 62
     0
 10
64.4204
 20
112.321
 30
0.0
 11
64.4204
 21
111.321
 31
0.0
  0
LINE
  8
0
 62
     0
 10
64.4204
 20
111.321
 30
0.0
 11
63.6199
 21
111.321
 31
0.0
  0
LINE
  8
0
 62
     0
 10
63.6199
 20
111.321
 30
0.0
 11
63.6199
 21
108.372
 31
0.0
  0
LINE
  8
0
 62
     0
 10
63.6199
 20
108.372
 30
0.0
 11
64.4204
 21
108.372
 31
0.0
  0
LINE
  8
0
 62
     0
 10
64.4204
 20
108.372
 30
0.0
 11
64.4204
 21
102.421
 31
0.0
  0
LINE
  8
0
 62
     0
 10
64.4204
 20
102.421
 30
0.0
 11
63.6199
 21
102.421
 31
0.0
  0
LINE
  8
0
 62
     0
 10
63.6199
 20
102.421
 30
0.0
 11
63.6199
 21
99.471
 31
0.0
  0
LINE
  8
0
 62
     0
 10
63.6199
 20
99.471
 30
0.0
 11
64.4204
 21
99.471
 31
0.0
  0
LINE
  8
0
 62
     0
 10
64.4204
 20
99.471
 30
0.0
 11
64.4204
 21
98.4719
 31
0.0
  0
LINE
  8
0
 62
     0
 10
64.4204
 20
98.4719
 30
0.0
 11
78.2697
 21
98.4719
 31
0.0
  0
LINE
  8
0
 62
     0
 10
78.2697
 20
98.4719
 30
0.0
 11
78.2697
 21
99.471
 31
0.0
  0
LINE
  8
0
 62
     0
 10
78.2697
 20
99.471
 30
0.0
 11
79.0706
 21
99.471
 31
0.0
  0
LINE
  8
0
 62
     0
 10
79.0706
 20
99.471
 30
0.0
 11
79.0706
 21
102.421
 31
0.0
  0
LINE
  8
0
 62
     0
 10
79.0706
 20
102.421
 30
0.0
 11
78.2697
 21
102.421
 31
0.0
  0
LINE
  8
0
 62
     0
 10
78.2697
 20
102.421
 30
0.0
 11
78.2697
 21
108.372
 31
0.0
  0
LINE
  8
0
 62
     0
 10
78.2697
 20
108.372
 30
0.0
 11
79.0706
 21
108.372
 31
0.0
  0
LINE
  8
0
 62
     0
 10
79.0706
 20
108.372
 30
0.0
 11
79.0706
 21
111.321
 31
0.0
  0
LINE
  8
0
 62
     0
 10
79.0706
 20
111.321
 30
0.0
 11
78.2697
 21
111.321
 31
0.0
  0
LINE
  8
0
 62
     0
 10
78.2697
 20
111.321
 30
0.0
 11
78.2697
 21
112.321
 31
0.0
  0
LINE
  8
0
 62
     0
 10
78.2697
 20
112.321
 30
0.0
 11
64.4204
 21
112.321
 31
0.0
  0
LINE
  8
0
 62
     0
 10
121.57
 20
121.846
 30
0.0
 11
121.57
 21
120.846
 31
0.0
  0
LINE
  8
0
 62
     0
 10
121.57
 20
120.846
 30
0.0
 11
120.77
 21
120.846
 31
0.0
  0
LINE
  8
0
 62
     0
 10
120.77
 20
120.846
 30
0.0
 11
120.77
 21
117.897
 31
0.0
  0
LINE
  8
0
 62
     0
 10
120.77
 20
117.897
 30
0.0
 11
121.57
 21
117.897
 31
0.0
  0
LINE
  8
0
 62
     0
 10
121.57
 20
117.897
 30
0.0
 11
121.57
 21
111.946
 31
0.0
  0
LINE
  8
0
 62
     0
 10
121.57
 20
111.946
 30
0.0
 11
120.77
 21
111.946
 31
0.0
  0
LINE
  8
0
 62
     0
 10
120.77
 20
111.946
 30
0.0
 11
120.77
 21
108.996
 31
0.0
  0
LINE
  8
0
 62
     0
 10
120.77
 20
108.996
 30
0.0
 11
121.57
 21
108.996
 31
0.0
  0
LINE
  8
0
 62
     0
 10
121.57
 20
108.996
 30
0.0
 11
121.57
 21
107.997
 31
0.0
  0
LINE
  8
0
 62
     0
 10
121.57
 20
107.997
 30
0.0
 11
135.42
 21
107.997
 31
0.0
  0
LINE
  8
0
 62
     0
 10
135.42
 20
107.997
 30
0.0
 11
135.42
 21
108.996
 31
0.0
  0
LINE
  8
0
 62
     0
 10
135.42
 20
108.996
 30
0.0
 11
136.221
 21
108.996
 31
0.0
  0
LINE
  8
0
 62
     0
 10
136.221
 20
108.996
 30
0.0
 11
136.221
 21
111.946
 31
0.0
  0
LINE
  8
0
 62
     0
 10
136.221
 20
111.946
 30
0.0
 11
135.42
 21
111.946
 31
0.0
  0
LINE
  8
0
 62
     0
 10
135.42
 20
111.946
 30
0.0
 11
135.42
 21
117.897
 31
0.0
  0
LINE
  8
0
 62
     0
 10
135.42
 20
117.897
 30
0.0
 11
136.221
 21
117.897
 31
0.0
  0
LINE
  8
0
 62
     0
 10
136.221
 20
117.897
 30
0.0
 11
136.221
 21
120.846
 31
0.0
  0
LINE
  8
0
 62
     0
 10
136.221
 20
120.846
 30
0.0
 11
135.42
 21
120.846
 31
0.0
  0
LINE
  8
0
 62
     0
 10
135.42
 20
120.846
 30
0.0
 11
135.42
 21
121.846
 31
0.0
  0
LINE
  8
0
 62
     0
 10
135.42
 20
121.846
 30
0.0
 11
121.57
 21
121.846
 31
0.0
  0
LINE
  8
0
 62
     0
 10
7.27054
 20
124.229
 30
0.0
 11
7.27054
 21
123.228
 31
0.0
  0
LINE
  8
0
 62
     0
 10
7.27054
 20
123.228
 30
0.0
 11
6.46987
 21
123.228
 31
0.0
  0
LINE
  8
0
 62
     0
 10
6.46987
 20
123.228
 30
0.0
 11
6.46987
 21
120.278
 31
0.0
  0
LINE
  8
0
 62
     0
 10
6.46987
 20
120.278
 30
0.0
 11
7.27054
 21
120.278
 31
0.0
  0
LINE
  8
0
 62
     0
 10
7.27054
 20
120.278
 30
0.0
 11
7.27054
 21
114.328
 31
0.0
  0
LINE
  8
0
 62
     0
 10
7.27054
 20
114.328
 30
0.0
 11
6.46987
 21
114.328
 31
0.0
  0
LINE
  8
0
 62
     0
 10
6.46987
 20
114.328
 30
0.0
 11
6.46987
 21
111.379
 31
0.0
  0
LINE
  8
0
 62
     0
 10
6.46987
 20
111.379
 30
0.0
 11
7.27054
 21
111.379
 31
0.0
  0
LINE
  8
0
 62
     0
 10
7.27054
 20
111.379
 30
0.0
 11
7.27054
 21
110.378
 31
0.0
  0
LINE
  8
0
 62
     0
 10
7.27054
 20
110.378
 30
0.0
 11
21.1198
 21
110.378
 31
0.0
  0
LINE
  8
0
 62
     0
 10
21.1198
 20
110.378
 30
0.0
 11
21.1198
 21
111.379
 31
0.0
  0
LINE
  8
0
 62
     0
 10
21.1198
 20
111.379
 30
0.0
 11
21.9204
 21
111.379
 31
0.0
  0
LINE
  8
0
 62
     0
 10
21.9204
 20
111.379
 30
0.0
 11
21.9204
 21
114.328
 31
0.0
  0
LINE
  8
0
 62
     0
 10
21.9204
 20
114.328
 30
0.0
 11
21.1198
 21
114.328
 31
0.0
  0
LINE
  8
0
 62
     0
 10
21.1198
 20
114.328
 30
0.0
 11
21.1198
 21
120.278
 31
0.0
  0
LINE
  8
0
 62
     0
 10
21.1198
 20
120.278
 30
0.0
 11
21.9204
 21
120.278
 31
0.0
  0
LINE
  8
0
 62
     0
 10
21.9204
 20
120.278
 30
0.0
 11
21.9204
 21
123.228
 31
0.0
  0
LINE
  8
0
 62
     0
 10
21.9204
 20
123.228
 30
0.0
 11
21.1198
 21
123.228
 31
0.0
  0
LINE
  8
0
 62
     0
 10
21.1198
 20
123.228
 30
0.0
 11
21.1198
 21
124.229
 31
0.0
  0
LINE
  8
0
 62
     0
 10
21.1198
 20
124.229
 30
0.0
 11
7.27054
 21
124.229
 31
0.0
  0
LINE
  8
0
 62
     0
 10
26.3205
 20
124.229
 30
0.0
 11
26.3205
 21
123.228
 31
0.0
  0
LINE
  8
0
 62
     0
 10
26.3205
 20
123.228
 30
0.0
 11
25.5199
 21
123.228
 31
0.0
  0
LINE
  8
0
 62
     0
 10
25.5199
 20
123.228
 30
0.0
 11
25.5199
 21
120.278
 31
0.0
  0
LINE
  8
0
 62
     0
 10
25.5199
 20
120.278
 30
0.0
 11
26.3205
 21
120.278
 31
0.0
  0
LINE
  8
0
 62
     0
 10
26.3205
 20
120.278
 30
0.0
 11
26.3205
 21
114.328
 31
0.0
  0
LINE
  8
0
 62
     0
 10
26.3205
 20
114.328
 30
0.0
 11
25.5199
 21
114.328
 31
0.0
  0
LINE
  8
0
 62
     0
 10
25.5199
 20
114.328
 30
0.0
 11
25.5199
 21
111.379
 31
0.0
  0
LINE
  8
0
 62
     0
 10
25.5199
 20
111.379
 30
0.0
 11
26.3205
 21
111.379
 31
0.0
  0
LINE
  8
0
 62
     0
 10
26.3205
 20
111.379
 30
0.0
 11
26.3205
 21
110.378
 31
0.0
  0
LINE
  8
0
 62
     0
 10
26.3205
 20
110.378
 30
0.0
 11
40.1697
 21
110.378
 31
0.0
  0
LINE
  8
0
 62
     0
 10
40.1697
 20
110.378
 30
0.0
 11
40.1697
 21
111.379
 31
0.0
  0
LINE
  8
0
 62
     0
 10
40.1697
 20
111.379
 30
0.0
 11
40.9706
 21
111.379
 31
0.0
  0
LINE
  8
0
 62
     0
 10
40.9706
 20
111.379
 30
0.0
 11
40.9706
 21
114.328
 31
0.0
  0
LINE
  8
0
 62
     0
 10
40.9706
 20
114.328
 30
0.0
 11
40.1697
 21
114.328
 31
0.0
  0
LINE
  8
0
 62
     0
 10
40.1697
 20
114.328
 30
0.0
 11
40.1697
 21
120.278
 31
0.0
  0
LINE
  8
0
 62
     0
 10
40.1697
 20
120.278
 30
0.0
 11
40.9706
 21
120.278
 31
0.0
  0
LINE
  8
0
 62
     0
 10
40.9706
 20
120.278
 30
0.0
 11
40.9706
 21
123.228
 31
0.0
  0
LINE
  8
0
 62
     0
 10
40.9706
 20
123.228
 30
0.0
 11
40.1697
 21
123.228
 31
0.0
  0
LINE
  8
0
 62
     0
 10
40.1697
 20
123.228
 30
0.0
 11
40.1697
 21
124.229
 31
0.0
  0
LINE
  8
0
 62
     0
 10
40.1697
 20
124.229
 30
0.0
 11
26.3205
 21
124.229
 31
0.0
  0
LINE
  8
0
 62
     0
 10
102.52
 20
126.609
 30
0.0
 11
102.52
 21
125.61
 31
0.0
  0
LINE
  8
0
 62
     0
 10
102.52
 20
125.61
 30
0.0
 11
101.72
 21
125.61
 31
0.0
  0
LINE
  8
0
 62
     0
 10
101.72
 20
125.61
 30
0.0
 11
101.72
 21
122.659
 31
0.0
  0
LINE
  8
0
 62
     0
 10
101.72
 20
122.659
 30
0.0
 11
102.52
 21
122.659
 31
0.0
  0
LINE
  8
0
 62
     0
 10
102.52
 20
122.659
 30
0.0
 11
102.52
 21
116.709
 31
0.0
  0
LINE
  8
0
 62
     0
 10
102.52
 20
116.709
 30
0.0
 11
101.72
 21
116.709
 31
0.0
  0
LINE
  8
0
 62
     0
 10
101.72
 20
116.709
 30
0.0
 11
101.72
 21
113.76
 31
0.0
  0
LINE
  8
0
 62
     0
 10
101.72
 20
113.76
 30
0.0
 11
102.52
 21
113.76
 31
0.0
  0
LINE
  8
0
 62
     0
 10
102.52
 20
113.76
 30
0.0
 11
102.52
 21
112.759
 31
0.0
  0
LINE
  8
0
 62
     0
 10
102.52
 20
112.759
 30
0.0
 11
116.37
 21
112.759
 31
0.0
  0
LINE
  8
0
 62
     0
 10
116.37
 20
112.759
 30
0.0
 11
116.37
 21
113.76
 31
0.0
  0
LINE
  8
0
 62
     0
 10
116.37
 20
113.76
 30
0.0
 11
117.171
 21
113.76
 31
0.0
  0
LINE
  8
0
 62
     0
 10
117.171
 20
113.76
 30
0.0
 11
117.171
 21
116.709
 31
0.0
  0
LINE
  8
0
 62
     0
 10
117.171
 20
116.709
 30
0.0
 11
116.37
 21
116.709
 31
0.0
  0
LINE
  8
0
 62
     0
 10
116.37
 20
116.709
 30
0.0
 11
116.37
 21
122.659
 31
0.0
  0
LINE
  8
0
 62
     0
 10
116.37
 20
122.659
 30
0.0
 11
117.171
 21
122.659
 31
0.0
  0
LINE
  8
0
 62
     0
 10
117.171
 20
122.659
 30
0.0
 11
117.171
 21
125.61
 31
0.0
  0
LINE
  8
0
 62
     0
 10
117.171
 20
125.61
 30
0.0
 11
116.37
 21
125.61
 31
0.0
  0
LINE
  8
0
 62
     0
 10
116.37
 20
125.61
 30
0.0
 11
116.37
 21
126.609
 31
0.0
  0
LINE
  8
0
 62
     0
 10
116.37
 20
126.609
 30
0.0
 11
102.52
 21
126.609
 31
0.0
  0
LINE
  8
0
 62
     0
 10
45.3704
 20
128.99
 30
0.0
 11
45.3704
 21
127.991
 31
0.0
  0
LINE
  8
0
 62
     0
 10
45.3704
 20
127.991
 30
0.0
 11
44.5699
 21
127.991
 31
0.0
  0
LINE
  8
0
 62
     0
 10
44.5699
 20
127.991
 30
0.0
 11
44.5699
 21
125.04
 31
0.0
  0
LINE
  8
0
 62
     0
 10
44.5699
 20
125.04
 30
0.0
 11
45.3704
 21
125.04
 31
0.0
  0
LINE
  8
0
 62
     0
 10
45.3704
 20
125.04
 30
0.0
 11
45.3704
 21
119.09
 31
0.0
  0
LINE
  8
0
 62
     0
 10
45.3704
 20
119.09
 30
0.0
 11
44.5699
 21
119.09
 31
0.0
  0
LINE
  8
0
 62
     0
 10
44.5699
 20
119.09
 30
0.0
 11
44.5699
 21
116.14
 31
0.0
  0
LINE
  8
0
 62
     0
 10
44.5699
 20
116.14
 30
0.0
 11
45.3704
 21
116.14
 31
0.0
  0
LINE
  8
0
 62
     0
 10
45.3704
 20
116.14
 30
0.0
 11
45.3704
 21
115.141
 31
0.0
  0
LINE
  8
0
 62
     0
 10
45.3704
 20
115.141
 30
0.0
 11
59.2197
 21
115.141
 31
0.0
  0
LINE
  8
0
 62
     0
 10
59.2197
 20
115.141
 30
0.0
 11
59.2197
 21
116.14
 31
0.0
  0
LINE
  8
0
 62
     0
 10
59.2197
 20
116.14
 30
0.0
 11
60.0206
 21
116.14
 31
0.0
  0
LINE
  8
0
 62
     0
 10
60.0206
 20
116.14
 30
0.0
 11
60.0206
 21
119.09
 31
0.0
  0
LINE
  8
0
 62
     0
 10
60.0206
 20
119.09
 30
0.0
 11
59.2197
 21
119.09
 31
0.0
  0
LINE
  8
0
 62
     0
 10
59.2197
 20
119.09
 30
0.0
 11
59.2197
 21
125.04
 31
0.0
  0
LINE
  8
0
 62
     0
 10
59.2197
 20
125.04
 30
0.0
 11
60.0206
 21
125.04
 31
0.0
  0
LINE
  8
0
 62
     0
 10
60.0206
 20
125.04
 30
0.0
 11
60.0206
 21
127.991
 31
0.0
  0
LINE
  8
0
 62
     0
 10
60.0206
 20
127.991
 30
0.0
 11
59.2197
 21
127.991
 31
0.0
  0
LINE
  8
0
 62
     0
 10
59.2197
 20
127.991
 30
0.0
 11
59.2197
 21
128.99
 31
0.0
  0
LINE
  8
0
 62
     0
 10
59.2197
 20
128.99
 30
0.0
 11
45.3704
 21
128.99
 31
0.0
  0
LINE
  8
0
 62
     0
 10
83.4704
 20
128.99
 30
0.0
 11
83.4704
 21
127.991
 31
0.0
  0
LINE
  8
0
 62
     0
 10
83.4704
 20
127.991
 30
0.0
 11
82.6699
 21
127.991
 31
0.0
  0
LINE
  8
0
 62
     0
 10
82.6699
 20
127.991
 30
0.0
 11
82.6699
 21
125.04
 31
0.0
  0
LINE
  8
0
 62
     0
 10
82.6699
 20
125.04
 30
0.0
 11
83.4704
 21
125.04
 31
0.0
  0
LINE
  8
0
 62
     0
 10
83.4704
 20
125.04
 30
0.0
 11
83.4704
 21
119.09
 31
0.0
  0
LINE
  8
0
 62
     0
 10
83.4704
 20
119.09
 30
0.0
 11
82.6699
 21
119.09
 31
0.0
  0
LINE
  8
0
 62
     0
 10
82.6699
 20
119.09
 30
0.0
 11
82.6699
 21
116.14
 31
0.0
  0
LINE
  8
0
 62
     0
 10
82.6699
 20
116.14
 30
0.0
 11
83.4704
 21
116.14
 31
0.0
  0
LINE
  8
0
 62
     0
 10
83.4704
 20
116.14
 30
0.0
 11
83.4704
 21
115.141
 31
0.0
  0
LINE
  8
0
 62
     0
 10
83.4704
 20
115.141
 30
0.0
 11
97.3197
 21
115.141
 31
0.0
  0
LINE
  8
0
 62
     0
 10
97.3197
 20
115.141
 30
0.0
 11
97.3197
 21
116.14
 31
0.0
  0
LINE
  8
0
 62
     0
 10
97.3197
 20
116.14
 30
0.0
 11
98.1191
 21
116.14
 31
0.0
  0
LINE
  8
0
 62
     0
 10
98.1191
 20
116.14
 30
0.0
 11
98.1191
 21
119.09
 31
0.0
  0
LINE
  8
0
 62
     0
 10
98.1191
 20
119.09
 30
0.0
 11
97.3197
 21
119.09
 31
0.0
  0
LINE
  8
0
 62
     0
 10
97.3197
 20
119.09
 30
0.0
 11
97.3197
 21
125.04
 31
0.0
  0
LINE
  8
0
 62
     0
 10
97.3197
 20
125.04
 30
0.0
 11
98.1191
 21
125.04
 31
0.0
  0
LINE
  8
0
 62
     0
 10
98.1191
 20
125.04
 30
0.0
 11
98.1191
 21
127.991
 31
0.0
  0
LINE
  8
0
 62
     0
 10
98.1191
 20
127.991
 30
0.0
 11
97.3197
 21
127.991
 31
0.0
  0
LINE
  8
0
 62
     0
 10
97.3197
 20
127.991
 30
0.0
 11
97.3197
 21
128.99
 31
0.0
  0
LINE
  8
0
 62
     0
 10
97.3197
 20
128.99
 30
0.0
 11
83.4704
 21
128.99
 31
0.0
  0
LINE
  8
0
 62
     0
 10
64.4204
 20
131.371
 30
0.0
 11
64.4204
 21
130.371
 31
0.0
  0
LINE
  8
0
 62
     0
 10
64.4204
 20
130.371
 30
0.0
 11
63.6199
 21
130.371
 31
0.0
  0
LINE
  8
0
 62
     0
 10
63.6199
 20
130.371
 30
0.0
 11
63.6199
 21
127.422
 31
0.0
  0
LINE
  8
0
 62
     0
 10
63.6199
 20
127.422
 30
0.0
 11
64.4204
 21
127.422
 31
0.0
  0
LINE
  8
0
 62
     0
 10
64.4204
 20
127.422
 30
0.0
 11
64.4204
 21
121.471
 31
0.0
  0
LINE
  8
0
 62
     0
 10
64.4204
 20
121.471
 30
0.0
 11
63.6199
 21
121.471
 31
0.0
  0
LINE
  8
0
 62
     0
 10
63.6199
 20
121.471
 30
0.0
 11
63.6199
 21
118.521
 31
0.0
  0
LINE
  8
0
 62
     0
 10
63.6199
 20
118.521
 30
0.0
 11
64.4204
 21
118.521
 31
0.0
  0
LINE
  8
0
 62
     0
 10
64.4204
 20
118.521
 30
0.0
 11
64.4204
 21
117.522
 31
0.0
  0
LINE
  8
0
 62
     0
 10
64.4204
 20
117.522
 30
0.0
 11
78.2697
 21
117.522
 31
0.0
  0
LINE
  8
0
 62
     0
 10
78.2697
 20
117.522
 30
0.0
 11
78.2697
 21
118.521
 31
0.0
  0
LINE
  8
0
 62
     0
 10
78.2697
 20
118.521
 30
0.0
 11
79.0706
 21
118.521
 31
0.0
  0
LINE
  8
0
 62
     0
 10
79.0706
 20
118.521
 30
0.0
 11
79.0706
 21
121.471
 31
0.0
  0
LINE
  8
0
 62
     0
 10
79.0706
 20
121.471
 30
0.0
 11
78.2697
 21
121.471
 31
0.0
  0
LINE
  8
0
 62
     0
 10
78.2697
 20
121.471
 30
0.0
 11
78.2697
 21
127.422
 31
0.0
  0
LINE
  8
0
 62
     0
 10
78.2697
 20
127.422
 30
0.0
 11
79.0706
 21
127.422
 31
0.0
  0
LINE
  8
0
 62
     0
 10
79.0706
 20
127.422
 30
0.0
 11
79.0706
 21
130.371
 31
0.0
  0
LINE
  8
0
 62
     0
 10
79.0706
 20
130.371
 30
0.0
 11
78.2697
 21
130.371
 31
0.0
  0
LINE
  8
0
 62
     0
 10
78.2697
 20
130.371
 30
0.0
 11
78.2697
 21
131.371
 31
0.0
  0
LINE
  8
0
 62
     0
 10
78.2697
 20
131.371
 30
0.0
 11
64.4204
 21
131.371
 31
0.0
  0
LINE
  8
0
 62
     0
 10
121.57
 20
140.896
 30
0.0
 11
121.57
 21
139.896
 31
0.0
  0
LINE
  8
0
 62
     0
 10
121.57
 20
139.896
 30
0.0
 11
120.77
 21
139.896
 31
0.0
  0
LINE
  8
0
 62
     0
 10
120.77
 20
139.896
 30
0.0
 11
120.77
 21
136.947
 31
0.0
  0
LINE
  8
0
 62
     0
 10
120.77
 20
136.947
 30
0.0
 11
121.57
 21
136.947
 31
0.0
  0
LINE
  8
0
 62
     0
 10
121.57
 20
136.947
 30
0.0
 11
121.57
 21
130.996
 31
0.0
  0
LINE
  8
0
 62
     0
 10
121.57
 20
130.996
 30
0.0
 11
120.77
 21
130.996
 31
0.0
  0
LINE
  8
0
 62
     0
 10
120.77
 20
130.996
 30
0.0
 11
120.77
 21
128.046
 31
0.0
  0
LINE
  8
0
 62
     0
 10
120.77
 20
128.046
 30
0.0
 11
121.57
 21
128.046
 31
0.0
  0
LINE
  8
0
 62
     0
 10
121.57
 20
128.046
 30
0.0
 11
121.57
 21
127.047
 31
0.0
  0
LINE
  8
0
 62
     0
 10
121.57
 20
127.047
 30
0.0
 11
135.42
 21
127.047
 31
0.0
  0
LINE
  8
0
 62
     0
 10
135.42
 20
127.047
 30
0.0
 11
135.42
 21
128.046
 31
0.0
  0
LINE
  8
0
 62
     0
 10
135.42
 20
128.046
 30
0.0
 11
136.221
 21
128.046
 31
0.0
  0
LINE
  8
0
 62
     0
 10
136.221
 20
128.046
 30
0.0
 11
136.221
 21
130.996
 31
0.0
  0
LINE
  8
0
 62
     0
 10
136.221
 20
130.996
 30
0.0
 11
135.42
 21
130.996
 31
0.0
  0
LINE
  8
0
 62
     0
 10
135.42
 20
130.996
 30
0.0
 11
135.42
 21
136.947
 31
0.0
  0
LINE
  8
0
 62
     0
 10
135.42
 20
136.947
 30
0.0
 11
136.221
 21
136.947
 31
0.0
  0
LINE
  8
0
 62
     0
 10
136.221
 20
136.947
 30
0.0
 11
136.221
 21
139.896
 31
0.0
  0
LINE
  8
0
 62
     0
 10
136.221
 20
139.896
 30
0.0
 11
135.42
 21
139.896
 31
0.0
  0
LINE
  8
0
 62
     0
 10
135.42
 20
139.896
 30
0.0
 11
135.42
 21
140.896
 31
0.0
  0
LINE
  8
0
 62
     0
 10
135.42
 20
140.896
 30
0.0
 11
121.57
 21
140.896
 31
0.0
  0
LINE
  8
0
 62
     0
 10
7.27054
 20
143.279
 30
0.0
 11
7.27054
 21
142.278
 31
0.0
  0
LINE
  8
0
 62
     0
 10
7.27054
 20
142.278
 30
0.0
 11
6.46987
 21
142.278
 31
0.0
  0
LINE
  8
0
 62
     0
 10
6.46987
 20
142.278
 30
0.0
 11
6.46987
 21
139.328
 31
0.0
  0
LINE
  8
0
 62
     0
 10
6.46987
 20
139.328
 30
0.0
 11
7.27054
 21
139.328
 31
0.0
  0
LINE
  8
0
 62
     0
 10
7.27054
 20
139.328
 30
0.0
 11
7.27054
 21
133.378
 31
0.0
  0
LINE
  8
0
 62
     0
 10
7.27054
 20
133.378
 30
0.0
 11
6.46987
 21
133.378
 31
0.0
  0
LINE
  8
0
 62
     0
 10
6.46987
 20
133.378
 30
0.0
 11
6.46987
 21
130.429
 31
0.0
  0
LINE
  8
0
 62
     0
 10
6.46987
 20
130.429
 30
0.0
 11
7.27054
 21
130.429
 31
0.0
  0
LINE
  8
0
 62
     0
 10
7.27054
 20
130.429
 30
0.0
 11
7.27054
 21
129.428
 31
0.0
  0
LINE
  8
0
 62
     0
 10
7.27054
 20
129.428
 30
0.0
 11
21.1198
 21
129.428
 31
0.0
  0
LINE
  8
0
 62
     0
 10
21.1198
 20
129.428
 30
0.0
 11
21.1198
 21
130.429
 31
0.0
  0
LINE
  8
0
 62
     0
 10
21.1198
 20
130.429
 30
0.0
 11
21.9204
 21
130.429
 31
0.0
  0
LINE
  8
0
 62
     0
 10
21.9204
 20
130.429
 30
0.0
 11
21.9204
 21
133.378
 31
0.0
  0
LINE
  8
0
 62
     0
 10
21.9204
 20
133.378
 30
0.0
 11
21.1198
 21
133.378
 31
0.0
  0
LINE
  8
0
 62
     0
 10
21.1198
 20
133.378
 30
0.0
 11
21.1198
 21
139.328
 31
0.0
  0
LINE
  8
0
 62
     0
 10
21.1198
 20
139.328
 30
0.0
 11
21.9204
 21
139.328
 31
0.0
  0
LINE
  8
0
 62
     0
 10
21.9204
 20
139.328
 30
0.0
 11
21.9204
 21
142.278
 31
0.0
  0
LINE
  8
0
 62
     0
 10
21.9204
 20
142.278
 30
0.0
 11
21.1198
 21
142.278
 31
0.0
  0
LINE
  8
0
 62
     0
 10
21.1198
 20
142.278
 30
0.0
 11
21.1198
 21
143.279
 31
0.0
  0
LINE
  8
0
 62
     0
 10
21.1198
 20
143.279
 30
0.0
 11
7.27054
 21
143.279
 31
0.0
  0
LINE
  8
0
 62
     0
 10
26.3205
 20
143.279
 30
0.0
 11
26.3205
 21
142.278
 31
0.0
  0
LINE
  8
0
 62
     0
 10
26.3205
 20
142.278
 30
0.0
 11
25.5199
 21
142.278
 31
0.0
  0
LINE
  8
0
 62
     0
 10
25.5199
 20
142.278
 30
0.0
 11
25.5199
 21
139.328
 31
0.0
  0
LINE
  8
0
 62
     0
 10
25.5199
 20
139.328
 30
0.0
 11
26.3205
 21
139.328
 31
0.0
  0
LINE
  8
0
 62
     0
 10
26.3205
 20
139.328
 30
0.0
 11
26.3205
 21
133.378
 31
0.0
  0
LINE
  8
0
 62
     0
 10
26.3205
 20
133.378
 30
0.0
 11
25.5199
 21
133.378
 31
0.0
  0
LINE
  8
0
 62
     0
 10
25.5199
 20
133.378
 30
0.0
 11
25.5199
 21
130.429
 31
0.0
  0
LINE
  8
0
 62
     0
 10
25.5199
 20
130.429
 30
0.0
 11
26.3205
 21
130.429
 31
0.0
  0
LINE
  8
0
 62
     0
 10
26.3205
 20
130.429
 30
0.0
 11
26.3205
 21
129.428
 31
0.0
  0
LINE
  8
0
 62
     0
 10
26.3205
 20
129.428
 30
0.0
 11
40.1697
 21
129.428
 31
0.0
  0
LINE
  8
0
 62
     0
 10
40.1697
 20
129.428
 30
0.0
 11
40.1697
 21
130.429
 31
0.0
  0
LINE
  8
0
 62
     0
 10
40.1697
 20
130.429
 30
0.0
 11
40.9706
 21
130.429
 31
0.0
  0
LINE
  8
0
 62
     0
 10
40.9706
 20
130.429
 30
0.0
 11
40.9706
 21
133.378
 31
0.0
  0
LINE
  8
0
 62
     0
 10
40.9706
 20
133.378
 30
0.0
 11
40.1697
 21
133.378
 31
0.0
  0
LINE
  8
0
 62
     0
 10
40.1697
 20
133.378
 30
0.0
 11
40.1697
 21
139.328
 31
0.0
  0
LINE
  8
0
 62
     0
 10
40.1697
 20
139.328
 30
0.0
 11
40.9706
 21
139.328
 31
0.0
  0
LINE
  8
0
 62
     0
 10
40.9706
 20
139.328
 30
0.0
 11
40.9706
 21
142.278
 31
0.0
  0
LINE
  8
0
 62
     0
 10
40.9706
 20
142.278
 30
0.0
 11
40.1697
 21
142.278
 31
0.0
  0
LINE
  8
0
 62
     0
 10
40.1697
 20
142.278
 30
0.0
 11
40.1697
 21
143.279
 31
0.0
  0
LINE
  8
0
 62
     0
 10
40.1697
 20
143.279
 30
0.0
 11
26.3205
 21
143.279
 31
0.0
  0
LINE
  8
0
 62
     0
 10
102.52
 20
145.659
 30
0.0
 11
102.52
 21
144.66
 31
0.0
  0
LINE
  8
0
 62
     0
 10
102.52
 20
144.66
 30
0.0
 11
101.72
 21
144.66
 31
0.0
  0
LINE
  8
0
 62
     0
 10
101.72
 20
144.66
 30
0.0
 11
101.72
 21
141.709
 31
0.0
  0
LINE
  8
0
 62
     0
 10
101.72
 20
141.709
 30
0.0
 11
102.52
 21
141.709
 31
0.0
  0
LINE
  8
0
 62
     0
 10
102.52
 20
141.709
 30
0.0
 11
102.52
 21
135.759
 31
0.0
  0
LINE
  8
0
 62
     0
 10
102.52
 20
135.759
 30
0.0
 11
101.72
 21
135.759
 31
0.0
  0
LINE
  8
0
 62
     0
 10
101.72
 20
135.759
 30
0.0
 11
101.72
 21
132.81
 31
0.0
  0
LINE
  8
0
 62
     0
 10
101.72
 20
132.81
 30
0.0
 11
102.52
 21
132.81
 31
0.0
  0
LINE
  8
0
 62
     0
 10
102.52
 20
132.81
 30
0.0
 11
102.52
 21
131.809
 31
0.0
  0
LINE
  8
0
 62
     0
 10
102.52
 20
131.809
 30
0.0
 11
116.37
 21
131.809
 31
0.0
  0
LINE
  8
0
 62
     0
 10
116.37
 20
131.809
 30
0.0
 11
116.37
 21
132.81
 31
0.0
  0
LINE
  8
0
 62
     0
 10
116.37
 20
132.81
 30
0.0
 11
117.171
 21
132.81
 31
0.0
  0
LINE
  8
0
 62
     0
 10
117.171
 20
132.81
 30
0.0
 11
117.171
 21
135.759
 31
0.0
  0
LINE
  8
0
 62
     0
 10
117.171
 20
135.759
 30
0.0
 11
116.37
 21
135.759
 31
0.0
  0
LINE
  8
0
 62
     0
 10
116.37
 20
135.759
 30
0.0
 11
116.37
 21
141.709
 31
0.0
  0
LINE
  8
0
 62
     0
 10
116.37
 20
141.709
 30
0.0
 11
117.171
 21
141.709
 31
0.0
  0
LINE
  8
0
 62
     0
 10
117.171
 20
141.709
 30
0.0
 11
117.171
 21
144.66
 31
0.0
  0
LINE
  8
0
 62
     0
 10
117.171
 20
144.66
 30
0.0
 11
116.37
 21
144.66
 31
0.0
  0
LINE
  8
0
 62
     0
 10
116.37
 20
144.66
 30
0.0
 11
116.37
 21
145.659
 31
0.0
  0
LINE
  8
0
 62
     0
 10
116.37
 20
145.659
 30
0.0
 11
102.52
 21
145.659
 31
0.0
  0
LINE
  8
0
 62
     0
 10
45.3704
 20
148.04
 30
0.0
 11
45.3704
 21
147.041
 31
0.0
  0
LINE
  8
0
 62
     0
 10
45.3704
 20
147.041
 30
0.0
 11
44.5699
 21
147.041
 31
0.0
  0
LINE
  8
0
 62
     0
 10
44.5699
 20
147.041
 30
0.0
 11
44.5699
 21
144.09
 31
0.0
  0
LINE
  8
0
 62
     0
 10
44.5699
 20
144.09
 30
0.0
 11
45.3704
 21
144.09
 31
0.0
  0
LINE
  8
0
 62
     0
 10
45.3704
 20
144.09
 30
0.0
 11
45.3704
 21
138.14
 31
0.0
  0
LINE
  8
0
 62
     0
 10
45.3704
 20
138.14
 30
0.0
 11
44.5699
 21
138.14
 31
0.0
  0
LINE
  8
0
 62
     0
 10
44.5699
 20
138.14
 30
0.0
 11
44.5699
 21
135.19
 31
0.0
  0
LINE
  8
0
 62
     0
 10
44.5699
 20
135.19
 30
0.0
 11
45.3704
 21
135.19
 31
0.0
  0
LINE
  8
0
 62
     0
 10
45.3704
 20
135.19
 30
0.0
 11
45.3704
 21
134.191
 31
0.0
  0
LINE
  8
0
 62
     0
 10
45.3704
 20
134.191
 30
0.0
 11
59.2197
 21
134.191
 31
0.0
  0
LINE
  8
0
 62
     0
 10
59.2197
 20
134.191
 30
0.0
 11
59.2197
 21
135.19
 31
0.0
  0
LINE
  8
0
 62
     0
 10
59.2197
 20
135.19
 30
0.0
 11
60.0206
 21
135.19
 31
0.0
  0
LINE
  8
0
 62
     0
 10
60.0206
 20
135.19
 30
0.0
 11
60.0206
 21
138.14
 31
0.0
  0
LINE
  8
0
 62
     0
 10
60.0206
 20
138.14
 30
0.0
 11
59.2197
 21
138.14
 31
0.0
  0
LINE
  8
0
 62
     0
 10
59.2197
 20
138.14
 30
0.0
 11
59.2197
 21
144.09
 31
0.0
  0
LINE
  8
0
 62
     0
 10
59.2197
 20
144.09
 30
0.0
 11
60.0206
 21
144.09
 31
0.0
  0
LINE
  8
0
 62
     0
 10
60.0206
 20
144.09
 30
0.0
 11
60.0206
 21
147.041
 31
0.0
  0
LINE
  8
0
 62
     0
 10
60.0206
 20
147.041
 30
0.0
 11
59.2197
 21
147.041
 31
0.0
  0
LINE
  8
0
 62
     0
 10
59.2197
 20
147.041
 30
0.0
 11
59.2197
 21
148.04
 31
0.0
  0
LINE
  8
0
 62
     0
 10
59.2197
 20
148.04
 30
0.0
 11
45.3704
 21
148.04
 31
0.0
  0
LINE
  8
0
 62
     0
 10
83.4704
 20
148.04
 30
0.0
 11
83.4704
 21
147.041
 31
0.0
  0
LINE
  8
0
 62
     0
 10
83.4704
 20
147.041
 30
0.0
 11
82.6699
 21
147.041
 31
0.0
  0
LINE
  8
0
 62
     0
 10
82.6699
 20
147.041
 30
0.0
 11
82.6699
 21
144.09
 31
0.0
  0
LINE
  8
0
 62
     0
 10
82.6699
 20
144.09
 30
0.0
 11
83.4704
 21
144.09
 31
0.0
  0
LINE
  8
0
 62
     0
 10
83.4704
 20
144.09
 30
0.0
 11
83.4704
 21
138.14
 31
0.0
  0
LINE
  8
0
 62
     0
 10
83.4704
 20
138.14
 30
0.0
 11
82.6699
 21
138.14
 31
0.0
  0
LINE
  8
0
 62
     0
 10
82.6699
 20
138.14
 30
0.0
 11
82.6699
 21
135.19
 31
0.0
  0
LINE
  8
0
 62
     0
 10
82.6699
 20
135.19
 30
0.0
 11
83.4704
 21
135.19
 31
0.0
  0
LINE
  8
0
 62
     0
 10
83.4704
 20
135.19
 30
0.0
 11
83.4704
 21
134.191
 31
0.0
  0
LINE
  8
0
 62
     0
 10
83.4704
 20
134.191
 30
0.0
 11
97.3197
 21
134.191
 31
0.0
  0
LINE
  8
0
 62
     0
 10
97.3197
 20
134.191
 30
0.0
 11
97.3197
 21
135.19
 31
0.0
  0
LINE
  8
0
 62
     0
 10
97.3197
 20
135.19
 30
0.0
 11
98.1191
 21
135.19
 31
0.0
  0
LINE
  8
0
 62
     0
 10
98.1191
 20
135.19
 30
0.0
 11
98.1191
 21
138.14
 31
0.0
  0
LINE
  8
0
 62
     0
 10
98.1191
 20
138.14
 30
0.0
 11
97.3197
 21
138.14
 31
0.0
  0
LINE
  8
0
 62
     0
 10
97.3197
 20
138.14
 30
0.0
 11
97.3197
 21
144.09
 31
0.0
  0
LINE
  8
0
 62
     0
 10
97.3197
 20
144.09
 30
0.0
 11
98.1191
 21
144.09
 31
0.0
  0
LINE
  8
0
 62
     0
 10
98.1191
 20
144.09
 30
0.0
 11
98.1191
 21
147.041
 31
0.0
  0
LINE
  8
0
 62
     0
 10
98.1191
 20
147.041
 30
0.0
 11
97.3197
 21
147.041
 31
0.0
  0
LINE
  8
0
 62
     0
 10
97.3197
 20
147.041
 30
0.0
 11
97.3197
 21
148.04
 31
0.0
  0
LINE
  8
0
 62
     0
 10
97.3197
 20
148.04
 30
0.0
 11
83.4704
 21
148.04
 31
0.0
  0
LINE
  8
0
 62
     0
 10
64.4204
 20
150.421
 30
0.0
 11
64.4204
 21
149.421
 31
0.0
  0
LINE
  8
0
 62
     0
 10
64.4204
 20
149.421
 30
0.0
 11
63.6199
 21
149.421
 31
0.0
  0
LINE
  8
0
 62
     0
 10
63.6199
 20
149.421
 30
0.0
 11
63.6199
 21
146.472
 31
0.0
  0
LINE
  8
0
 62
     0
 10
63.6199
 20
146.472
 30
0.0
 11
64.4204
 21
146.472
 31
0.0
  0
LINE
  8
0
 62
     0
 10
64.4204
 20
146.472
 30
0.0
 11
64.4204
 21
140.521
 31
0.0
  0
LINE
  8
0
 62
     0
 10
64.4204
 20
140.521
 30
0.0
 11
63.6199
 21
140.521
 31
0.0
  0
LINE
  8
0
 62
     0
 10
63.6199
 20
140.521
 30
0.0
 11
63.6199
 21
137.571
 31
0.0
  0
LINE
  8
0
 62
     0
 10
63.6199
 20
137.571
 30
0.0
 11
64.4204
 21
137.571
 31
0.0
  0
LINE
  8
0
 62
     0
 10
64.4204
 20
137.571
 30
0.0
 11
64.4204
 21
136.572
 31
0.0
  0
LINE
  8
0
 62
     0
 10
64.4204
 20
136.572
 30
0.0
 11
78.2697
 21
136.572
 31
0.0
  0
LINE
  8
0
 62
     0
 10
78.2697
 20
136.572
 30
0.0
 11
78.2697
 21
137.571
 31
0.0
  0
LINE
  8
0
 62
     0
 10
78.2697
 20
137.571
 30
0.0
 11
79.0706
 21
137.571
 31
0.0
  0
LINE
  8
0
 62
     0
 10
79.0706
 20
137.571
 30
0.0
 11
79.0706
 21
140.521
 31
0.0
  0
LINE
  8
0
 62
     0
 10
79.0706
 20
140.521
 30
0.0
 11
78.2697
 21
140.521
 31
0.0
  0
LINE
  8
0
 62
     0
 10
78.2697
 20
140.521
 30
0.0
 11
78.2697
 21
146.472
 31
0.0
  0
LINE
  8
0
 62
     0
 10
78.2697
 20
146.472
 30
0.0
 11
79.0706
 21
146.472
 31
0.0
  0
LINE
  8
0
 62
     0
 10
79.0706
 20
146.472
 30
0.0
 11
79.0706
 21
149.421
 31
0.0
  0
LINE
  8
0
 62
     0
 10
79.0706
 20
149.421
 30
0.0
 11
78.2697
 21
149.421
 31
0.0
  0
LINE
  8
0
 62
     0
 10
78.2697
 20
149.421
 30
0.0
 11
78.2697
 21
150.421
 31
0.0
  0
LINE
  8
0
 62
     0
 10
78.2697
 20
150.421
 30
0.0
 11
64.4204
 21
150.421
 31
0.0
  0
ENDSEC
  0
EOF
